<?xml version="1.0" encoding="UTF-8"?>
<svg id="Livello_2" data-name="Livello 2" xmlns="http://www.w3.org/2000/svg" viewBox="0 0 25.11 330.73">
  <defs>
    <style>
      .cls-1 {
        fill: #8ada51;
      }

      .cls-2 {
        fill: #caea60;
      }
    </style>
  </defs>
  <g id="Livello_4" data-name="Livello 4">
    <path class="cls-1" d="M16.02,4.59c-.39-.52-.9-.96-1.52-1.27-.03-.19-.08-.36-.15-.54-.12-.28-.23-.56-.4-.81-.36-.52-.77-.93-1.29-1.28-.16-.11-.34-.2-.52-.28-.28-.12-.56-.24-.85-.31-.63-.13-1.24-.14-1.87,0-.31,.07-.59,.29-.78,.54-.22,.28-.29,.55-.32,.91-.03,.28,0,.54,.04,.81,.04,.27,.08,.54,.18,.79,.12,.3,.25,.59,.41,.86-2.56,2.4-1.94,7.59,1.9,8.6,.8,1.06,2.06,1.79,3.8,1.79,5.93,0,6.4-8.5,1.38-9.82Z"/>
    <path class="cls-1" d="M15.32,66.75c-.19-.25-.41-.47-.65-.68,.97-2.59,1.02-5.53,.19-8.16-.3-.95-1.32-1.35-2.2-.9-1.64,.85-2.82,2.4-3.4,4.13-.49,1.44-.48,2.97-.04,4.4-1.27,.58-2.3,1.62-2.53,3.07,0,.04,0,.07-.01,.11-.22,.25-.42,.54-.59,.86-.9,1.7-.85,4.23,.43,5.79,.15,1.15,.39,2.3,.76,3.44,1.32,4.08,6.85,4.95,9.14,1.19,.93-1.53,1.29-3.37,1.15-5.17,2.01-2.53,1.27-7.09-2.23-8.1Z"/>
    <path class="cls-1" d="M10.42,257.99c-.22-1.13-.57-2.27-1.06-3.42-.06-.14-.13-.27-.21-.4,.2-.18,.35-.41,.41-.69,.42-2.07,.15-4.14-.76-6.05-.21-.43-.81-.79-1.3-.74-.94,.08-1.73,.42-2.45,1.04-.6,.52-1,1.24-1.28,1.98-.3,.82-.34,1.73-.13,2.57-.41,.11-.8,.27-1.14,.49-2.5,1.61-2.9,4.26-1.79,6.84-.29-.67-.11-.04,0,.35-.12-.36,.06,.57,.07,.79,0,.15,.02,.23,.03,.28-.02,.06-.05,.14-.09,.25-.07,.2-.55,1.42-.15,.57-1.12,2.36-.73,5.51,1.79,6.84,2.22,1.18,5.65,.73,6.84-1.79,.05-.1,.08-.2,.12-.3,3.4-1.41,3.76-6.44,1.07-8.61Z"/>
    <path class="cls-1" d="M20.46,318.32c-.64-1.21-1.78-2.15-3.42-2.37,.06-.36,.05-.74-.05-1.11-.24-.9-.92-1.74-1.73-2.19-.97-.54-2.19-.57-3.11,.1-.49,.35-.92,.78-1.19,1.32-.29,.58-.43,1.13-.5,1.77-.07,.62,0,1.24,.15,1.84,0,.14,0,.28,.05,.41,.26,.81,.52,1.62,.79,2.43,0,0,0,.02,.01,.03-.1,1.59,.45,3.22,1.66,4.25-.45,2.77,1.13,5.93,4.75,5.93,2.24,0,3.7-1.21,4.38-2.79,4.34-1.78,3.75-9.46-1.79-9.62Z"/>
    <path class="cls-2" d="M23.69,321.19c-.2-.38-.5-.65-.85-.89-.17-.12-.38-.19-.56-.26-.04-.01-.08-.03-.13-.03-.17-.03-.34-.06-.52-.06-.21,0-.4,.04-.58,.13-.19,.06-.35,.16-.48,.31-.15,.14-.25,.3-.31,.48-.09,.18-.14,.37-.13,.58,.02,.13,.04,.27,.05,.4,.07,.25,.2,.47,.39,.66l.3,.23s.02,0,.03,.01c-.02,.17-.02,.33,.04,.5,.05,.2,.14,.37,.27,.51,.11,.16,.25,.29,.42,.39l.36,.15c.27,.07,.53,.07,.8,0l.36-.15c.23-.13,.4-.31,.54-.54,.22-.35,.34-.8,.33-1.21-.01-.44-.12-.82-.33-1.21Z"/>
    <path class="cls-2" d="M12.67,314.67c-1.93,0-1.93,3,0,3s1.93-3,0-3Z"/>
    <path class="cls-2" d="M4.88,266.39c-.11-.38-.23-.76-.34-1.14-.11-.37-.36-.7-.69-.9-.03-.02-.07-.03-.1-.05-.03-.15-.08-.3-.16-.43-.18-.31-.54-.61-.9-.69-.38-.09-.82-.07-1.16,.15-.32,.21-.6,.51-.69,.9-.2,.84-.07,1.68,.33,2.44,.05,.1,.12,.2,.19,.3,.14,.19,.28,.38,.45,.54,.17,.15,.35,.3,.55,.42,.2,.13,.44,.22,.66,.3,.27,.07,.53,.07,.8,0,.25-.07,.47-.2,.66-.39,.37-.37,.54-.95,.39-1.46Z"/>
    <path class="cls-2" d="M7.99,250.49c-1.93,0-1.93,3,0,3s1.93-3,0-3Z"/>
    <path class="cls-2" d="M16.79,76.58c0-.21-.04-.4-.13-.58-.06-.19-.16-.35-.31-.48-.14-.14-.32-.25-.52-.33-.19-.21-.42-.37-.7-.44-.37-.08-.84-.09-1.16,.15-.59,.44-1.15,.91-1.63,1.47-.06,.07-.12,.15-.18,.23-.19,.08-.37,.19-.47,.32-.59,.74-1.05,1.54-1.28,2.47-.19,.74,.24,1.68,1.05,1.85,.7,.14,1.42,.14,2.1-.08,.69-.22,1.29-.58,1.82-1.07,.93-.86,1.57-2.23,1.4-3.51Z"/>
    <path class="cls-2" d="M9.41,67.13c-1.93,0-1.93,3,0,3s1.93-3,0-3Z"/>
    <path class="cls-2" d="M11.89,8.3c-.12-.25-.3-.47-.47-.68-.01-.01-.03-.02-.04-.04-.09-.2-.18-.41-.28-.61-.09-.17-.22-.32-.39-.42-.14-.13-.31-.22-.51-.27-.2-.06-.4-.07-.6-.03-.2,0-.39,.07-.56,.18-.32,.21-.6,.51-.69,.9-.02,.13-.04,.27-.05,.4,0,.27,.07,.52,.2,.76,.01,.02,.02,.04,.03,.07,0,.06,.02,.13,.03,.19,.06,.22,.17,.41,.32,.57,.2,.46,.41,.91,.61,1.37l.23,.3c.14,.15,.3,.25,.48,.31,.12,.07,.24,.1,.38,.1,.2,.04,.4,.04,.6-.03,.25-.08,.47-.21,.66-.39,.27-.25,.44-.69,.44-1.06,0-.58-.15-1.1-.41-1.62Z"/>
    <path class="cls-2" d="M14.51,9.68c-1.93,0-1.93,3,0,3s1.93-3,0-3Z"/>
  </g>
</svg>