<?xml version="1.0" encoding="UTF-8"?>
<svg id="Livello_2" data-name="Livello 2" xmlns="http://www.w3.org/2000/svg" viewBox="0 0 2294.25 342.82">
  <defs>
    <style>
      .cls-1 {
        fill: #8ada51;
      }

      .cls-2 {
        fill: #caea60;
      }
    </style>
  </defs>
  <g id="Livello_1-2" data-name="Livello 1">
    <path d="M917.2,306.15c1.93,0,1.93-3,0-3s-1.93,3,0,3h0Z"/>
  </g>
  <g id="Livello_5" data-name="Livello 5">
    <path class="cls-1" d="M2280.7,34.15c1.49-2.47,5.64-9.35,3.07-16.76-2.82-8.11-11.54-10.64-12.43-10.89-.03-.56-.06-1.13-.09-1.69-.28-5.2-6.93-6.2-9.23-2.94-.72,1.02-.82,2.3-.77,2.94,.72,8.65,11.65,41.41,14.45,53.34,5.4,22.96-3.08,37.73,5,42,3.66,1.93,9.45,1.05,12-2,2.57-3.08,1.49-7.98-.01-13.03-7.42-24.8-20.58-37.25-15.99-45.97,1.09-2.07,1.96-1.62,4-5Z"/>
    <path class="cls-2" d="M2286.29,95.33c-.05-1.57-.42-3.2-.79-4.7-.41-1.67-.98-3.29-1.65-4.87-.32-.76-.7-1.45-1.47-1.84-.4-.2-.81-.26-1.21-.21-.23-.38-.64-.66-1.22-.66-1.45,0-1.81,1.7-1.08,2.54-.48,3.45-.24,6.99,.94,10.28,.59,1.66,1.71,3.34,3.7,3.27,.87-.03,1.53-.43,1.99-1.01,.2,.11,.44,.18,.72,.18,1.91,0,1.93-2.93,.06-2.99Z"/>
    <path class="cls-2" d="M2282.75,78.98c-.05-.2-.14-.37-.27-.51-.09-.14-.22-.24-.36-.33-.01-.02-.02-.04-.03-.06-.09-.17-.22-.32-.39-.42-.14-.13-.31-.22-.51-.27-.13-.02-.27-.04-.4-.05-.27,0-.52,.07-.76,.2-.33,.21-.59,.51-.69,.9-.02,.07-.03,.14-.04,.21-.03,.19-.06,.39-.07,.59,0,.07,0,.14,0,.21,.02,.2,.04,.4,.08,.6,.05,.26,.16,.5,.27,.74,.06,.13,.13,.26,.22,.38,.13,.23,.31,.4,.54,.54,.23,.14,.49,.2,.76,.2,.27,0,.52-.07,.76-.2,.23-.13,.4-.31,.54-.54,.09-.13,.15-.27,.21-.42,.06-.15,.13-.29,.15-.44,.04-.21,.08-.43,.07-.65,0-.22-.04-.45-.09-.67Z"/>
  </g>
  <g id="Livello_4" data-name="Livello 4">
    <path class="cls-1" d="M2237.3,94.14c-3.86-4.07-8.31-3.91-13.45-4.52-4.27-.51-7.95-2.76-11.42-5.28,.51-2.2-.3-4.75-2.44-5.8,.78-3.22,.09-6.75-2.5-9.34-4.23-4.23-10.93-3.41-14.77,.64-.79-.58-1.58-1.16-2.37-1.74-1.64-1.2-3.35-2.36-5.1-3.43,.88-2.91-.64-6.65-4.58-6.65-.88,0-1.64,.19-2.28,.52-.11-.47-.23-.93-.39-1.39-1.29-3.67-5.47-4.55-8.89-3.62-4.16,1.12-6.98,4.62-7.5,8.63-.79,.49-1.58,1.05-2.36,1.71-4.77,4.01-9.84,6.8-16.2,4.54-5.62-2-8.94-7.42-15.5-3.92-2.77,1.48-4.81,4.2-7.35,6.04-1.51,1.09-3.13,2.06-4.81,2.92-.74-1.41-2.14-2.46-4.22-2.46-.54,0-1.02,.07-1.47,.2-.19-.69-.45-1.37-.78-2.03-1.88-3.79-6.18-6.16-10.37-5.23-3.63,.8-6.37,3.89-7.2,7.46-.46,1.96-.37,3.85,.2,5.56-2.34-.26-5.41,.82-5.78,3.54-.1,.77-.19,1.53-.27,2.29-.08,0-.16-.01-.24-.01-5.81,0-6.38,8.15-1.7,9.73-1.18,2.85-1.42,5.75-.55,8.42-.25,.61-.38,1.33-.34,2.15,.39,7.2,6.02,13.65,13.56,13.65,4.29,0,7.96-2.1,10.4-5.23,.8,.78,1.92,1.29,3.36,1.29,3.48,0,5.07-2.92,4.79-5.6,2.97-.4,5.94-.76,8.91-1.07-1.96,12.81-2.29,25.85-.77,38.76,1.75,14.8,4.85,32.2,13.65,44.65,8.68,12.27,23,14.1,35.44,6,13.06-8.51,21.69-22.99,28.75-36.51,6.8-13.02,11.9-26.76,14.57-41.11,2.05,.63,4.12,1.17,6.21,1.52,9.97,1.7,20.1-3.36,19.95-14.49-.05-3.9-1.53-7.94-4.22-10.78Zm-46.83,62.95c-4.08,7.45-8.52,14.99-14.16,21.38-5.06,5.73-12.15,12.37-20.31,12.27-7.46-.09-11.87-6.95-14.62-13.05-3.56-7.87-5.69-16.68-7.25-25.15-2.89-15.6-2.85-31.65-.17-47.27,.96-.05,1.92-.12,2.88-.16,.8,1.05,2.06,1.78,3.79,1.78s3.07-.77,3.87-1.88c.37,0,.74,0,1.12,0,.35,.88,.97,1.69,1.93,2.34,6.08,4.07,13.09,5.12,19.91,3.66,2.97,7.17,9.1,12.68,17.83,10.23,1.65-.46,3.22-1.24,4.59-2.25,3.35,1.63,7.42,1.64,10.69-.42,1.67-1.05,2.99-2.61,3.87-4.39,.48,.16,.96,.32,1.44,.48-2.54,14.9-8.12,29.16-15.39,42.42Z"/>
    <path class="cls-1" d="M1853.86,258.21c-1.58-1.63-3.71-2.74-5.86-3.4-2.2-.68-5.52-.34-6.51-2.75-.8-1.96-.05-5,.02-7.05,.1-2.81,.02-5.67-.98-8.33-.4-1.07-.91-1.98-1.5-2.79,1.06-2.5,.18-5.9-2.65-6.89,.29-4.87-1.66-9.77-6.89-11.32-3.23-.96-6.99,.13-9.41,2.43-1.1,1.05-1.84,2.21-2.26,3.44-2.04-1.47-3.96-3.09-5.72-4.88-8.18-8.32-11.04-20.87-23.4-24.02-.29-2.22-1.88-4.24-4.78-4.24-1.31,0-2.34,.42-3.12,1.07-1.51-2.56-4.23-4.4-7.27-4.6-4.34-.28-8.57,2.86-9.51,7.13-.03,.13-.03,.26-.05,.39-1.21-.11-2.4-.31-3.54-.7-3.23-1.08-5.15-3.69-7.88-5.55-5.56-3.77-12.76-3.46-18.33,.15-3.39,2.2-5.66,5.34-7.13,8.88-4.14,.35-5.32,5.06-3.52,7.89-.8,1.03-1.09,2.44-.43,4.12,1.93,4.93,6.16,7.46,11.49,7.02,2.68-.22,5.03-1.61,7.56-2.28-.95,2.92,.56,6.76,4.55,6.76,.22,0,.43-.01,.63-.04,1.22,4.59,4.34,8.82,9.49,8.98,2.33,.07,4.6-.85,6.36-2.34,3.68,2.96,7.63,5.1,12.1,6.46,1.16,6.68,5.36,14.17,13.09,13.99,3.02-.07,5.86-1.49,7.88-3.6,.8,.81,1.93,1.33,3.4,1.33,2.35,0,3.83-1.33,4.47-3.02,3.11,2.13,5.9,4.73,8.18,7.7,1,1.29,1.92,2.65,2.81,4.02-3.66,2.21-2.87,9.16,2.38,9.32,.19,.93,.63,1.82,1.29,2.57,1.31,1.48,1.75,3.71,2.78,5.39,1.4,2.29,3.42,4.35,6.04,5.18,2.31,.73,4.75,.44,6.81-.76,.54,.22,1.07,.44,1.64,.62,5,1.6,10.62,1.39,15.14-1.44,5.29-3.31,7.23-10.05,2.6-14.83Z"/>
    <path class="cls-1" d="M1581.21,261.84c-.97,0-1.79,.23-2.47,.62-2.63-2.93-5.97-5.32-9.17-7.49-6.92-4.7-14.27-8.76-21.92-12.15-6.44-2.85-12.94-5.03-19.54-6.84,.33-2.71-1.26-5.7-4.78-5.7-.09,0-.18,0-.27,.01-.68-2.66-2.14-5.13-4.25-6.69-5.52-4.09-12.04-.79-15.77,4.19-.4-.1-.82-.15-1.28-.15-1.81,0-3.11,.79-3.9,1.92-3.08-.59-6.16-1.25-9.19-2.05,.91-2.91-.61-6.69-4.57-6.69-1.15,0-2.1,.33-2.84,.85,.67-1.92,.96-3.94,.61-6.11-.71-4.42-3.89-8.32-8.41-9.12-4.69-.83-8.76,2.08-10.36,6.39-.03,.08-.05,.17-.08,.25-1.27,.08-2.27,.57-3,1.3-1.7-.76-3.44-1.45-5.26-2.01-14.66-4.48-30.7-2.1-44.65,3.65-3.31,1.36-6.56,2.91-9.72,4.62-.74-1.39-2.14-2.41-4.2-2.41-2.65,0-4.21,1.7-4.68,3.69-2.63-1.17-5.58-1.58-8.64-1.01-1.48,.28-3.18,.81-4.26,1.89-1.19,1.19-1.48,2.86-1.64,4.49-.06,0-.11,0-.18,0-3.88,0-5.42,3.63-4.62,6.52-.91,1.29-1.47,2.85-1.49,4.62-.03,3.19,1.71,6.07,4.39,7.73,.36,.22,.72,.41,1.09,.58-1.41,2.28-3.34,3.78-5.48,5.01-.73-1.42-2.14-2.48-4.23-2.48-2.98,0-4.58,2.14-4.8,4.45-3.76-1.17-8.19-.15-10.71,3.1-3.4,4.4-2.35,10.66,1.9,13.98-.03,1.86,.34,3.72,1.27,5.46,.75,1.41,1.82,2.59,3.09,3.55,1.14,.86,3.72,1.25,4.48,2.31,1.43,1.98-2.05,7.37-2.44,9.99-.91,6.09,2.19,13.47,9.28,13.1,1.18-.06,2.14-.45,2.89-1.05,2.25,.01,4.54-.62,6.76-1.91,.69,.41,1.53,.65,2.53,.65,3.84,0,5.38-3.56,4.63-6.44,2.48-1.46,2.95-5.08,1.42-7.36,.1-.42,.21-.83,.3-1.25,.72-3.3,1.5-6.16,2.73-8.75,3.46,2.71,7.94,3.93,12.43,2.3,5.85-2.12,9.3-8.51,8.05-14.37,.04,0,.07,0,.11,0,4.26,0,5.7-4.38,4.32-7.34,2.1-1.07,4.27-2.06,6.49-2.86-.68,7.78-.39,15.63,.87,23.43,1.96,12.06,6.34,28.18,17.85,34.67,12.45,7.03,21.07-8.49,25.58-17.7,5.14-10.5,8.12-21.82,8.88-33.41,2.82-.47,5.52-1.37,7.97-2.83,3.08,3.81,7.63,6.01,12.58,7.11-.11,.31-.22,.62-.32,.93-.43,1.42-.57,2.92-.26,4.37,.59,2.8,2.86,5.01,5.67,5.54,2.92,.55,5.91-.32,7.89-2.59,.65-.74,1.15-1.56,1.54-2.43,.22,.03,.45,.05,.7,.05,3.56,0,5.15-3.07,4.77-5.8,6.51-.47,12.36-.05,18.22,4.43,.92,.7,1.84,1.39,2.76,2.06,.59,3.98,3.54,7.69,7.48,8.67,2.46,.61,4.8,.27,6.79-.73,.1,.03,.2,.06,.29,.1,.45,2.01,2.01,3.74,4.69,3.74,1.74,0,3-.73,3.8-1.8,9.63,1.23,22.56,.26,24.47-8.21,1.54-1.46,1.91-3.93,1.12-5.88,2.73-2.71,1.62-8.68-3.37-8.68Zm-129.42,39.26c-1.03,1.56-2.6,4.57-4.45,5.23-2.54,.91-4.77-1.75-6.27-3.54-6.42-7.67-8.86-19.52-9.84-29.23-.63-6.31-.51-12.59,.27-18.8,1-.02,2.01,.02,3.02,.13,2.55,.28,5.03,.91,7.47,1.72-.81,2.89,.73,6.53,4.62,6.53,.32,0,.61-.03,.9-.08,1.32,3.59,4.13,6.54,8.13,7.68,2.81,.8,5.6,.46,8.05-.67-.87,5.8-2.36,11.49-4.53,17.01-1.94,4.91-4.45,9.61-7.36,14.02Z"/>
    <path class="cls-1" d="M1701,264.81c-3.08-5.66-10.33-2.52-14.11,.54-.68,.55-1.08,1.33-1.29,2.18-4.95-1-10.38,1.39-12.67,7.35-1.68,4.38-1.24,9.2-2.79,13.59-.78,2.2-2.13,4.21-3.83,5.87-1.36,.1-2.4,.67-3.13,1.5-.71-1.51-2.14-2.64-4.31-2.64-4.05,0-5.55,3.97-4.5,6.9-.93,.83-1.53,1.99-1.45,3.47,.24,4.71,1.34,8.95,3.3,12.9-3.6,2.3-2.72,9.27,2.66,9.27,1.42,0,2.52-.49,3.32-1.24,.28,.14,.57,.25,.86,.31-.13,1.44,.29,2.91,1.41,3.87,2.77,2.36,6.15,3.31,9.74,2.53,3.02-.66,5.98-2.72,7.28-5.59,.15-.34,.27-.69,.37-1.05,.23,.03,.46,.05,.7,.05,5.33,0,6.25-6.85,2.75-9.21,.32-.53,.62-1.06,.89-1.61,3.1-6.21,5.19-13.09,6.93-19.78,.91-3.52,1.95-7.33,2.18-11.1,4.09-.25,5.38-4.68,3.85-7.55,2.88-2.47,3.66-7.23,1.87-10.51Z"/>
    <g>
      <path class="cls-1" d="M589.79,247.02c-.15-.51-.4-1.04-.79-1.57l.79,1.57Z"/>
      <path class="cls-1" d="M1293.95,277.18c-1.32-4.38-2.83-8.74-4.49-13.05,2.52-2.03,2.38-6.57-.44-8.31,1.78-3.56,1.5-8.04-.59-11.52-2.67-4.43-7.48-6.33-12.35-7.08-4.72-7.41-10.18-14.31-16.47-20.44-7.87-7.67-17.01-13.88-27.25-17.9-4.59-1.8-9.31-3-14.15-3.79-.39-2.1-1.97-3.93-4.73-3.93-1.17,0-2.12,.33-2.87,.87-.98-3.02-3.14-5.67-6.08-6.99-3.89-1.73-8.32-1-11.58,1.45-2.38-2.8-4.38-6-7.29-8.28-2.71-2.13-5.75-3.24-8.94-3.67-.79-1.13-2.09-1.92-3.9-1.92-.45,0-.86,.05-1.25,.14-.82-.76-1.79-1.38-2.95-1.8-2.21-.8-4.62-.48-6.66,.62-1.68,.9-2.61,2.94-2.44,4.84-1.55,.24-3.1,.39-4.66,.35-7.04-.18-9.37-6.99-13.86-11.27-14.07-13.39-32.62-8.73-49.06-1.7-.8-.82-1.94-1.35-3.42-1.35-1.67,0-2.9,.68-3.71,1.68-3.07-1.05-7.09-.68-9.98,.29-5.32,1.79-10.29,5.48-11.4,11.28-.04,.21-.07,.42-.08,.62-1.94,.57-3.91,1.04-5.91,1.34-7.51,1.12-14.77-.75-22.14-1.92-7.46-1.19-14.82-1.15-22.12-.36-.09-.15-.18-.31-.28-.46-1.73-2.51-4.39-4.13-7.45-4.35-3.49-.25-6.64,1.61-8.51,4.36-.64-.32-1.4-.52-2.28-.52-3.43,0-5.03,2.84-4.81,5.5-14.55,3.71-29,7.16-43.87,9.37-15.45,2.3-31,3.94-46.51,5.79l-47.16,5.61c-3.03,.36-6.03,.72-9.01,1.04-.77-1.28-2.12-2.19-4.07-2.19-1.05,0-1.93,.27-2.64,.72-2.18-3.01-5.85-4.69-9.76-3.93-3.12,.61-5.73,3-6.91,5.93-4.76-.52-9.5-1.55-14.26-3.35-5.87-2.22-11.57-4.38-17.85-5.1-7.91-.91-14.21,.08-20.94,1.43-6.43,1.29-14.63,3.17-24.27,5.97-.67-1.62-2.13-2.87-4.41-2.87-1.42,0-2.52,.49-3.32,1.24-1.89-2.08-4.47-3.46-7.24-2.81-4.14,.96-4.96,5.14-4.59,8.93-13.04-.94-31.14-.93-51.93,3.46-.48-1.97-2.03-3.64-4.67-3.64-1.58,0-2.78,.61-3.58,1.52-2.42-2.1-5.75-3.11-9.1-2.7-5.66,.7-9.73,5.31-11.89,10.3-.16,.37-.28,.76-.37,1.14-1.98,.37-3.19,1.8-3.63,3.47-23.9,9.37-43.8,21.91-42.26,30.37,.84,4.61,8.28,8.98,13.81,8.8,2.87-.1,5.57-1.56,7.09-4.03,.55-.9,.9-1.96,1.17-2.98,2.31-1.77,5.82-2.09,9.72-1.65-.26,1.52,.21,3.1,1.34,4.41,2.8,3.24,7.88,3.8,11.45,1.6,.14-.09,.27-.18,.4-.28,.76,.6,1.77,.98,3.01,.98,1.51,0,2.67-.56,3.47-1.4,1.07,.34,2.01,.61,2.77,.78,3.62,.81,7.27,1.45,10.94,1.97-.92,2.79-2.58,5.53-3.58,8.06-1.83,4.64-2.4,9.61-2.36,14.57,.06,7.11,.18,19.44,10.06,19.74,9.89,.29,11.77-10.89,9.86-18.21-1.38-5.3-2.66-10.45-2.97-15.96-.12-2.15-.34-4.7-.13-7.11,5.73,.35,11.48,.34,17.2-.02,11.39,7.66,24.15,14.2,37.61,16.16-.78,6.74-1.85,13.45-2.49,20.21-.73,7.73-.83,15.52,.61,23.18,1.07,5.72,3.42,16.05,11.35,14.76,7.26-1.18,7.45-9.96,6.93-15.58-.76-8.15-3.03-16.01-4.73-23.99-1.29-6.03-1.5-12.05-1.09-18.04,2.95-.14,5.92-.51,8.91-1.18,14.27-3.19,25.81-13.72,29.38-27.15,1.15,6.78,4.47,13.42,11.1,14.82,4.36,.92,8.72-2.07,9.16-6.48,1.67-.01,2.9-.71,3.7-1.72,7.3,2.15,14.88,3.39,22.5,3.87,1.25,3.38,4.09,6.14,7.83,6.82,4.14,.75,8.22-1.29,10.51-4.59,.59,.26,1.27,.41,2.05,.41,2.62,0,4.17-1.66,4.66-3.62,18.6-2.51,36.63-8.55,54.32-15.14,5.34,15.09,16.49,27.91,30.6,35.22,1.14,3.93,2.38,7.82,3.68,11.65,6.12,18.05,15.54,35.75,32.08,46.21,15.11,9.56,34.74,11.58,50.05,1.31,15.41-10.34,23.58-28.18,28.3-45.54,5.76-21.19,8.17-43.42,10.96-65.3,1.14-.09,2.27-.26,3.37-.54,2.71,1.86,5.59,3.4,8.72,4.34,7.94,2.4,19.74,3.55,25.82-3.17,.64-.71,1.33-1.66,2-2.75,1.3,.28,2.66,.3,4.05-.03,4.23-1.03,7.15-4.72,7.62-8.84,2.32,.19,4.64,.38,6.96,.58,17.06,1.48,34.09,3.35,51.11,5.28,2.77,.31,5.55,.62,8.33,.94,.04,.3,.11,.6,.22,.89,1.84,4.72,5.59,8.24,10.8,8.75,2.81,.28,5.55-.46,7.85-1.93,.67,.37,1.48,.59,2.43,.59,2.76,0,4.34-1.84,4.73-3.94,2.81,.72,5.6,1.55,8.34,2.53,14.53,5.19,23.47,15.14,31.88,27.63,4.96,7.37,10.2,14.65,16.87,20.22-.96,2.92,.55,6.77,4.55,6.77,.17,0,.33-.01,.5-.02,0,.03-.01,.05-.02,.08-.33,1.68-.78,3.39-.39,5.09,.82,3.6,4.46,5.59,7.96,5.69,5.29,.15,9.69-3.44,11.03-8.29,3.01-.07,6-.6,8.87-1.68,2.48-.93,4.33-3.37,3.49-6.15Zm-566.39-12.05c-7.96-1.18-15.54-4.27-22.68-8.18,7.51-1.33,14.92-3.27,22.12-5.82,1.2,4.06,.97,9.43,.55,14Zm10.74,.37c1.13-7,2.76-13.98,4.17-20.94,6.32-3.2,12.91-7,20.03-7.13,1.47-.03,2.87,.19,4.23,.56,.91,15.45-14.2,26.32-28.43,27.52Zm206.77-36.83c.79,0,1.47-.15,2.07-.41,7.22,4.74,20.45,6.6,26.85,.28,1.75-1.73,2.86-4.12,3.01-6.52,.3,.05,.62,.08,.95,.08,3.18,0,4.79-2.45,4.83-4.92,10.32-1.86,20.76-3.25,31.38-4.1,.38-.03,.76-.05,1.14-.08-2.25,26.99-16.67,53.23-45.1,59.34-10.47,2.25-20.88,1.01-30.12-2.88-3.49-13.06-5.7-26.54-5.63-39.92,2.38-.78,4.76-1.53,7.14-2.26,.8,.85,1.96,1.41,3.48,1.41Zm-34.47,9.4c1.74-.66,3.49-1.32,5.22-1.98,2.88-1.09,5.76-2.13,8.64-3.16,.2,9.88,1.58,19.79,3.7,29.52-7.9-6.15-14.13-14.55-17.57-24.39Zm129.38,33.16c-3.1,16.97-7.57,35.39-19.22,48.72-11.14,12.74-27.36,16.44-42.77,9.08-16.26-7.76-25.8-23.67-31.73-40.05-.9-2.49-1.77-5.02-2.61-7.56,2.11,.57,4.26,1.02,6.45,1.34,26.23,3.85,51.86-9.3,64.63-32.38,6.44-11.64,9.86-24.78,10.69-38.03,3.51-.18,7.02-.33,10.53-.43,.29,2.13,1.77,4.06,4.45,4.2,.95,3.33,3.42,5.87,6.67,7.41-2.13,15.94-4.19,31.92-7.08,47.71Z"/>
    </g>
    <path class="cls-1" d="M852.62,317.1c-.19-.63-.42-1.24-.71-1.83,.44-2.42-.69-5.17-3.39-5.85,.88-2.9-.64-6.64-4.58-6.64-1.75,0-3.02,.74-3.82,1.82-1.17-.62-2.32-1.17-3.4-1.66-4.94-2.2-10.17-3.48-15.5-3.8-.79-1.18-2.1-2.01-3.96-2.01-2.01,0-3.39,.98-4.15,2.32-2.51,.65-3.81,2.88-3.93,5.07-.5,.05-1,.07-1.5,.18-.31,.07-.62,.2-.9,.36-.27,.15-.53,.35-.74,.58-.29,.33-.49,.65-.63,1.07-.13,.41-.12,.86-.02,1.27,.07,.33,.24,.62,.45,.88,.12,.15,.24,.28,.38,.39-.3,.88,.15,2.05,1.36,2.05,.1,0,.19-.01,.29-.03,.06,2.74,1.24,5.45,3.47,7.58,4.21,4.03,10.1,3.59,15.37,2.31,3.41,4.28,8.38,7.16,13.94,7.75,7.29,.77,14.38-3.72,11.98-11.79Z"/>
    <path class="cls-1" d="M525.62,305.45c-.08-.06-.15-.12-.23-.17,.75-.85,1.2-1.93,1.13-3.15-.22-3.75-2.72-6.8-6.39-7.71-1.72-.43-3.51-.34-5.13,.23-.75-1.37-2.14-2.36-4.17-2.36-.86,0-1.59,.18-2.22,.49-3.75-2.8-7.51-5.6-11.26-8.4-3.69-2.75-7.78-5.55-10.47-9.37-2.53-3.58-2.4-8.24-5.13-11.69-2.46-3.1-6.01-4.06-9.83-4.18-1.99-.07-4.23,.35-6.04-.7-1.79-1.04-2.97-3.25-4.02-4.95-4.19-6.76-10.83-14.95-19.86-11.45-.66,.25-1.2,.6-1.66,1.01-.39-.6-.95-1.15-1.71-1.59-6.58-3.84-13.78-3.08-20.69-1.03-.29-.05-.59-.08-.9-.08-1.24,0-2.24,.37-3,.97-.72-1.48-2.13-2.59-4.28-2.59-4.2,0-5.66,4.25-4.38,7.21-.21,.24-.39,.5-.55,.77-.6,.09-1.2,.25-1.78,.5-.8,.34-1.6,.68-2.39,1.01-3.93,1.66-2.8,8.36,1.19,9.14,2.09,.41,4.2,.73,6.31,1-.05,2.53,1.56,5.1,4.83,5.1,1.65,0,2.86-.66,3.66-1.64,.74,.51,1.67,.83,2.8,.83,1.68,0,2.91-.68,3.72-1.69,1.18,.13,2.35,.27,3.52,.45-.27,5.04-.06,10.1,.66,15.11,.05,.36,.11,.74,.17,1.11-3.19,3.73-7.09,6.87-11.43,9.15-11.86,6.21-28.96,5.34-37.25-6.36-3.97-5.6-5.47-12.44-6.5-19.17,1.61-.84,3.13-1.94,4.55-3.44,3.11-3.3,.75-8.21-3.54-8.54-.39-.03-.79-.06-1.19-.09-.64-1.67-2.12-2.99-4.46-2.99s-3.82,1.32-4.46,2.99c-3,.35-5.82,1.19-8.12,2.96-1.88-.79-4.01-1.04-6.17-.68-5.05,.84-8.26,4.82-11.13,8.69-2.16,2.92-.35,5.78,2.33,6.8,.55,.58,1.21,1.03,1.96,1.29,.57,1.82,2.09,3.31,4.57,3.31,3.26,0,4.87-2.57,4.82-5.1,.49,.16,1.04,.25,1.65,.25,2.01,0,3.39-.98,4.15-2.32,4.14-.47,8.34-.66,12.22-1.95,.99,6.28,2.42,12.58,5.77,18.04,4.1,6.7,10.97,10.99,18.61,12.5,12.69,2.52,25.47-2.48,34.26-11.6,.77,3.9,1.92,7.8,4.08,11.04,5.82,8.72,18.6,8.92,27.42,5.27,3.75-1.55,7.1-3.83,9.88-6.73,.86,3.63,3.4,6.73,7.27,7.58,2.53,.56,5.25,0,7.43-1.38,3.31,2.46,6.64,4.89,10.04,7.25,4.77,3.31,9.91,7.3,15.38,9.58,.67,1.61,2.14,2.85,4.41,2.85,1.27,0,2.28-.39,3.05-1.02,2.77,.15,5.6-.34,8.51-1.73,3.74-1.79,2.71-6.61,0-8.63Zm-95.95-43.5c1.29,.28,2.59,.61,3.89,1.04,.51,.17,1.01,.35,1.51,.53-1.03,3.85-2.75,7.49-4.99,10.79-.49-4.1-.61-8.24-.41-12.36Zm17.45,34.91c-4.62-.27-9.46-1.83-12.18-5.8-2.49-3.64-3.52-8.21-4.25-12.56,.17-.21,.35-.42,.52-.63,3.05-3.96,5.34-8.47,6.66-13.26,1.53,.64,3.03,1.35,4.51,2.11-.16,.46-.28,.95-.34,1.47-.44,3.92,2.88,7.57,6.63,8.08,1.53,.21,3.12-.11,4.51-.8,.72,1.47,2.14,2.56,4.27,2.56,.63,0,1.2-.1,1.7-.27,1.52,1.17,3.02,2.34,4.5,3.52,1.26,1,2.52,1.99,3.79,2.99-.44,1.38-.32,2.95,.34,4.22-5.18,5.68-12.98,8.83-20.67,8.38Z"/>
    <path class="cls-1" d="M78.58,285.85c-.17-.78-.38-1.54-.61-2.3,1.87-2.54,1.39-6.9-2.35-7.94,1.27-2.7,.39-6.53-3.43-7.2-1.77-.31-3.17,.23-4.15,1.2-1.14-.77-2.37-1.45-3.68-2.02-.39-.17-1.03-.51-1.62-.73,.38-1.3-.41-3.53-1.09-4.57-2.12-3.23-6.95-3.63-10.42-3.74-4.3-.13-8.62,.86-12.9,.49-4.26-.37-6.97-3.86-11.41-3.79-1.68,.03-3.42,.19-5.16,.47-.65-.78-1.6-1.36-2.88-1.59-2.6-.46-4.43,.94-5.24,2.81-6.09-.77-12.26,3.35-13.55,9.64-.28,1.36,.12,2.73,.92,3.8-.49,1.99,0,4.1,2.39,6.38,4.99,4.77,15.04,1.19,21.15,1.63,2.96,.21,5.83,.76,8.64,1.5,.54,2.85,1.96,5.41,4.46,7.28,3.19,2.41,7.18,3.28,11,2.15,.62,.55,1.43,.95,2.44,1.13,2.33,.41,4.04-.67,4.95-2.25,5.78,1.99,11.69,3.39,18.04,3.1,2.47-.12,5.07-2.9,4.5-5.45Z"/>
    <path class="cls-2" d="M665.08,285.21c-1.18-3.58-2.77-7.02-4.36-10.44,.07-.61-.26-1.07-.73-1.32-.9-.84-2.54,.14-2.4,1.46-1.68,5.78-1.15,12.06,1.43,17.49,.56,1.18,1.28,2.97,2.45,3.66,1.57,.93,3.04-.44,3.7-1.79,1.39-2.86,.87-6.15-.09-9.06Z"/>
    <path class="cls-2" d="M659.3,268.37c-1.93,0-1.93,3,0,3s1.93-3,0-3Z"/>
    <path class="cls-2" d="M606.89,240.11c-.22-.96-1.39-1.35-2.2-.9-3.49,1.96-6.11,5.4-7.05,9.29-.18,.76,.24,1.66,1.05,1.85,.45,.1,.93,0,1.3-.26,.48,.04,.97-.05,1.44-.2,2.53-.86,4.43-2.94,5.27-5.45,.46-1.39,.52-2.9,.19-4.33Z"/>
    <path class="cls-2" d="M609.08,235.29c-1.93,0-1.93,3,0,3s1.93-3,0-3Z"/>
    <path class="cls-2" d="M636.93,253.43c-.26-1.02-.79-1.94-1.5-2.71-.71-.78-1.61-1.33-2.59-1.69-.35-.13-.85-.03-1.16,.15-.31,.18-.61,.54-.69,.9-.03,.14-.04,.28-.04,.42-.2,.08-.39,.19-.53,.33-.26,.29-.46,.66-.44,1.06,.02,.41,.17,.75,.44,1.06,1.27,1.45,3.14,2.28,5.06,2.38,.99,.05,1.68-1,1.45-1.9Z"/>
    <path class="cls-2" d="M639.76,250.39c-1.93,0-1.93,3,0,3s1.93-3,0-3Z"/>
    <path class="cls-2" d="M740.42,314.41c-.2-3.99-1.25-7.87-3.86-10.93-.24-1.85-3.18-1.85-2.99,.05,.45,4.52,.34,9.11-.44,13.59-.4,2.27-.96,4.51-1.66,6.7-.57,1.78-1.05,3.81,.54,5.22,1.2,1.07,3.03,1.16,4.46,.56,1.72-.71,2.69-2.41,3.12-4.15,.44-1.79,.55-3.7,.7-5.53,.15-1.83,.23-3.68,.14-5.52Z"/>
    <path class="cls-2" d="M734.74,296.66c-1.93,0-1.93,3,0,3s1.93-3,0-3Z"/>
    <path class="cls-2" d="M651.5,208.41c-.02-.21-.08-.42-.19-.58-.21-.32-.51-.6-.9-.69-.13-.02-.27-.04-.4-.05-.27,0-.52,.07-.76,.2-.9,.4-1.62,1.09-2.2,1.88-.59,.81-.87,1.77-.97,2.75,.02,.13,.04,.27,.05,.4,.05,.12,.1,.24,.15,.36,.17,.28,.42,.49,.72,.61,.26,.11,.5,.14,.78,.1,.34-.05,.6-.18,.86-.41,.95-.82,1.9-1.63,2.85-2.45,.28-.24,.44-.71,.44-1.06s-.16-.81-.44-1.06Z"/>
    <path class="cls-2" d="M716.22,208.05c-6-.01-12-.03-18.01-.04-.19,0-.36,.03-.51,.09-.14-.04-.29-.07-.46-.07-.49,0-.85,.19-1.09,.48-.17,.06-.34,.13-.5,.21-.23,.11-.43,.28-.63,.44-.15,.14-.25,.3-.31,.48-.09,.18-.14,.37-.13,.58,0,.21,.04,.4,.13,.58,.06,.19,.16,.35,.31,.48,.09,.07,.18,.14,.27,.21,.15,.37,.46,.68,.96,.81,4.05,1.05,8.27,1.5,12.45,1.27,1.94-.11,3.98-.28,5.87-.77,1.64-.43,3.01-1.44,3.14-3.23,.06-.81-.73-1.5-1.5-1.5Z"/>
    <path class="cls-2" d="M690.42,208.5c-1.93,0-1.93,3,0,3s1.93-3,0-3Z"/>
    <path class="cls-2" d="M797.69,200.61c-2.87-4.86-8.81-5.37-13.89-5.44-1.82-.03-1.92,2.63-.32,2.96,.12,.22,.3,.42,.58,.57,3.71,2.04,7.75,3.45,11.93,4.11,.61,.1,1.19-.01,1.58-.54,.36-.48,.43-1.14,.12-1.67Z"/>
    <path class="cls-2" d="M780.73,196.79c-.07-.25-.2-.47-.39-.66l-.3-.23c-.23-.14-.49-.2-.76-.2h-.77c-.21,0-.4,.04-.58,.13-.19,.06-.35,.16-.48,.31-.15,.14-.25,.3-.31,.48-.09,.18-.14,.37-.13,.58,.02,.13,.04,.27,.05,.4,.07,.25,.2,.47,.39,.66,.1,.08,.2,.16,.3,.23,.23,.14,.49,.2,.76,.2h.77c.21,0,.4-.04,.58-.13,.19-.06,.35-.16,.48-.31,.15-.14,.25-.3,.31-.48,.09-.18,.14-.37,.13-.58-.02-.13-.04-.27-.05-.4Z"/>
    <path class="cls-2" d="M887.67,239.35c-1.55-1.58-4.03-.9-5.89-.47-5.39,1.24-10.83,2.34-16.16,3.82-.5,.14-1,.29-1.5,.44,0-.24-.06-.49-.19-.69-.08-.1-.16-.2-.23-.3-.19-.19-.41-.31-.66-.39-.42-.18-.92-.24-1.38-.21-.62,.04-1.13,.19-1.69,.45-.93,.45-1.67,1.35-1.95,2.34-.09,.33-.05,.73,.1,1.04-2.37,1.09-4.61,2.43-6.64,4.12-.6,.12-.91,.51-.98,.97-.59,1.18,.98,2.61,2.23,1.84,.68-.11,1.35-.23,2.03-.34,.03,0,.05,0,.08-.01,5.13-.83,10.24-1.75,15.32-2.79,2.87-.59,5.74-1.21,8.6-1.87,2.42-.56,5.04-1.04,7.13-2.46,1.7-1.15,3.68-3.54,1.78-5.48Z"/>
    <path class="cls-2" d="M890.45,235.21c-1.93,0-1.93,3,0,3s1.93-3,0-3Z"/>
    <g>
      <path class="cls-2" d="M968.62,226.37s-.03,.04-.05,.06c0,.01-.02,.03-.02,.04-.02,.04,0,.02,.07-.1Z"/>
      <path class="cls-2" d="M973.54,223.19s-.02-.02-.02-.03c.17-.52,.08-1.13-.35-1.52-.59-.54-1.54-.61-2.12,0-.1,.1-.2,.19-.3,.28-.07,.04-.13,.09-.2,.13-.26,.16-.53,.28-.8,.41,.03,0,.04-.01,.07-.02-.04,.01-.07,.03-.11,.04,0,0,0,0,0,0,0,0-.02,0-.03,.01-.03,.01-.07,.03-.1,.04-.14,.06-.27,.11-.41,.16-.39,.16-.79,.32-1.17,.5-1.24,.59-2.18,1.6-2.56,2.94-.38,1.35-.03,2.99,1.31,3.68,.92,.47,1.93,.42,2.85-.05,.73-.38,1.33-1.06,1.75-1.75,.35-.58,.55-1.23,.85-1.84,.07-.15,.15-.29,.24-.43,.03-.05,.06-.09,.09-.14,0-.01,.01-.02,.02-.03,.03-.03,.06-.07,.09-.1,.03-.03,.11-.09,.15-.13,.08-.05,.16-.09,.25-.13,.32-.15,.6-.57,.69-.9,.1-.36,.05-.84-.15-1.16Z"/>
      <path class="cls-2" d="M969.75,222.46c-.22,.08-.15,.06-.07,.03,.01,0,.02,0,.03-.01,.01,0,.03-.01,.04-.02Z"/>
    </g>
    <path class="cls-2" d="M961.74,225.8c-1.93,0-1.93,3,0,3s1.93-3,0-3Z"/>
    <path class="cls-2" d="M981.64,184.47c-1.23-.4-2.79-.3-4.06-.17-1.53,.16-3,.5-4.42,1.07-.36,.15-.67,.38-.87,.69-1.77,.39-3.6,.52-5.31,1.12-2.19,.77-4.01,2.12-4.85,4.34-.36,.96,.56,1.86,1.45,1.9,2.88,.12,5.1-1.86,7.75-2.62,2.63-.75,5.4-.77,8.07-1.32,1.28-.26,2.7-.6,3.46-1.77,.81-1.24,.16-2.81-1.21-3.25Z"/>
    <path class="cls-2" d="M959.16,190.4c-1.93,0-1.93,3,0,3s1.93-3,0-3Z"/>
    <path class="cls-2" d="M1009.56,173.1c-1.31-.74-2.84-1.12-4.35-1.03-.4,.02-.77,.15-1.06,.44-.26,.26-.46,.69-.44,1.06,.02,.39,.14,.79,.44,1.06,.02,.01,.03,.03,.05,.04,.12,.33,.33,.67,.66,.82,.75,.35,1.47,.55,2.3,.61,.68,.05,1.39-.05,2.04-.25,.58-.18,.99-.64,1.07-1.25,.08-.58-.19-1.2-.72-1.49Z"/>
    <path class="cls-2" d="M1001.55,174.18c-1.93,0-1.93,3,0,3s1.93-3,0-3Z"/>
    <path class="cls-2" d="M1122.62,161.68c-.58-.59-1.44-.65-2.22-.73-.06-.65-.5-1.25-1.34-1.31s-1.32,.44-1.49,1.05c-.92-.06-1.84-.09-2.76-.1-2.1-.01-4.2,.11-6.28,.35-.53,.05-1.05,.11-1.58,.2-.27,.04-.54,.09-.81,.13-.06,.01-.12,.02-.18,.03-.65,.11-1.3,.21-1.95,.35-.31,.06-.55,.2-.73,.38-.29,.09-.58,.18-.86,.28-.76,.28-1.01,1.34-.68,2.01,.03,.07,.09,.11,.13,.17-1.39,.42-1.38,2.81,.34,2.93,.62,.04,1.06-.24,1.31-.65,3.55,.48,7.12,.56,10.68,.27,1.7-.14,3.45-.31,5.12-.71,1.41-.34,2.99-1.03,3.61-2.45,.34-.77,.28-1.59-.33-2.21Z"/>
    <path class="cls-2" d="M1126.33,160.02c-.05-.26-.17-.49-.34-.69l-.29-.26c-.22-.15-.47-.24-.74-.26l-.34-.02c-.21-.02-.4,0-.59,.09-.19,.05-.36,.14-.5,.28-.16,.13-.27,.28-.34,.46-.11,.17-.16,.36-.17,.57,0,.13,.02,.27,.03,.4,.05,.26,.17,.49,.34,.69,.1,.09,.19,.17,.29,.26,.22,.15,.47,.24,.74,.26l.34,.02c.21,.02,.4,0,.59-.09,.19-.05,.36-.14,.5-.28,.16-.13,.27-.28,.34-.46,.11-.17,.16-.36,.17-.57,0-.13-.02-.27-.03-.4Z"/>
    <path class="cls-2" d="M1091.65,224.01c-.08-.12-.19-.23-.3-.33,0-.12-.02-.23-.05-.34-.27-.82-1.02-1.21-1.85-1.05-.83,.16-1.64,.38-2.44,.65-.4,.14-.79,.28-1.18,.45-.52,.21-1.05,.4-1.44,.83-.56,.61-.73,1.54-.27,2.26,.42,.66,1.1,.87,1.83,.95,.85,.09,1.74,0,2.56-.2,.92-.22,1.83-.62,2.6-1.16,.33-.23,.58-.5,.69-.9,.1-.36,.05-.84-.15-1.16Z"/>
    <path class="cls-2" d="M1081.28,226.09c-1.93,0-1.93,3,0,3s1.93-3,0-3Z"/>
    <path class="cls-2" d="M1168.89,214.73c-2.39-2.03-5.99-2.42-8.68-.69-.54,.35-.85,1.03-.7,1.66-.06,.73,.37,1.35,1.08,1.6,2.43,.86,5.22,.85,7.64-.06,.5-.19,.9-.51,1.05-1.05,.13-.48,.01-1.12-.39-1.46Z"/>
    <path class="cls-2" d="M1171.57,215.35c-1.93,0-1.93,3,0,3s1.93-3,0-3Z"/>
    <path class="cls-2" d="M1204.82,186.26c-.19-.12-.4-.18-.62-.19-.36-.23-.82-.32-1.21-.2-.82,.26-1.22,1.02-1.05,1.85,.2,1,.46,1.96,.86,2.9,.44,1.02,1.12,1.86,2.02,2.49,.38,.27,.93,.25,1.33,.08,.44-.19,.72-.52,.87-.97,.72-2.21-.29-4.71-2.21-5.95Z"/>
    <path class="cls-2" d="M1208.72,193.2c-1.93,0-1.93,3,0,3s1.93-3,0-3Z"/>
    <path class="cls-2" d="M1190.97,224.81c-.16-.11-.34-.19-.53-.26-.27-.35-.68-.57-1.16-.58-.22,0-.44,0-.66,0-.04,0-.08,0-.12,0-.33,0-.67,0-1-.01-.6,0-1.25-.08-1.84,.08-.91,.24-1.59,1.06-1.59,2.01,0,.71,.32,1.33,.77,1.85,.79,.92,2.18,1.28,3.36,1.3,.59,0,1.21-.08,1.77-.27,.71-.24,1.43-.59,1.82-1.26,.6-1.03,.14-2.23-.8-2.85Z"/>
    <path class="cls-2" d="M1192.73,222.23c-1.93,0-1.93,3,0,3s1.93-3,0-3Z"/>
    <path class="cls-2" d="M1168.85,172.79c-.1-.15-.21-.29-.33-.43-.04-.05-.08-.1-.13-.14-.04-.04-.09-.08-.13-.12-.14-.11-.29-.23-.44-.33-.2-.13-.44-.22-.66-.3-.12-.05-.24-.08-.36-.09-.11-.04-.22-.05-.34-.05-.1-.02-.19-.03-.3-.03-.21,0-.4,.04-.58,.13-.19,.06-.35,.16-.48,.31-.08,.1-.16,.2-.23,.3-.1,.18-.15,.37-.18,.57-.04,0-.08-.01-.12-.01-1.93,0-1.93,3,0,3,.79,0,1.25-.5,1.39-1.09,.03,.02,.05,.04,.08,.05,.22,.12,.47,.22,.7,.31,.13,.05,.26,.09,.4,.12,.13,.02,.27,.04,.4,.05,.13-.02,.27-.04,.4-.05,.12-.05,.24-.1,.36-.15,.17-.09,.31-.22,.42-.39,.09-.09,.16-.2,.19-.33,.07-.12,.1-.24,.1-.38,.04-.13,.04-.27,0-.4,0-.2-.07-.39-.18-.56Z"/>
    <path class="cls-2" d="M1286.35,243c-.32-.39-.83-.6-1.33-.56-.41-.24-.93-.3-1.35-.1-.76,.36-1.09,1.17-.8,1.96,.83,2.27,1.81,4.48,2.93,6.61,.3,.57,.89,1.03,1.57,.91,.63-.11,1.25-.61,1.3-1.29,.2-2.7-.6-5.41-2.32-7.52Z"/>
    <path class="cls-2" d="M1287.21,252.86c-1.93,0-1.93,3,0,3s1.93-3,0-3Z"/>
    <path class="cls-2" d="M1279.51,286.01c-.07-.19-.14-.33-.22-.47-.07-.16-.17-.32-.29-.43-.29-.26-.66-.46-1.06-.44-.13,.02-.27,.04-.4,.05-.25,.07-.47,.2-.66,.39-1.18,.98-2.32,2.09-2.73,3.62-.13,.47-.02,.93,.27,1.31,.27,.34,.72,.64,1.18,.59,.61-.06,1.19-.21,1.7-.56,.42-.28,.8-.62,1.14-1,.13-.15,.27-.3,.39-.45,.25-.31,.45-.58,.6-.95,.14-.33,.23-.69,.2-1.05-.02-.2-.04-.41-.11-.6Z"/>
    <path class="cls-2" d="M1376.63,232.07c-.12-.5-.56-.9-1.06-1.05-.15-.12-.32-.21-.52-.25-.78-.18-1.64,.23-1.85,1.05-.85,3.41-.8,7.01,.15,10.4,.37,1.31,2.03,1.4,2.74,.36,2.12-3.11,1.37-7.1,.53-10.51Z"/>
    <path class="cls-2" d="M1378.17,227.96c-1.93,0-1.93,3,0,3s1.93-3,0-3Z"/>
    <path class="cls-2" d="M1357.08,255.33c-.23,0-.42,.04-.6,.12-.71-.47-1.62-.57-2.42-.12-.11,.06-.21,.15-.3,.24-.15,.07-.3,.16-.44,.27-1.03,.85-1.89,1.97-2.43,3.19-.3,.66-.55,1.34-.69,2.05-.16,.81-.36,1.82,.09,2.58,.31,.52,.78,.86,1.39,.94,.18,.02,.35,.01,.52-.01,.22,.16,.51,.27,.86,.27,1.04,0,1.52-.87,1.43-1.68,.16-.14,.32-.27,.47-.42,1.03-1.04,1.81-2.26,2.36-3.61,.12-.28,.2-.59,.26-.9,1.4-.48,1.24-2.91-.5-2.91Z"/>
    <path class="cls-2" d="M1368.75,300.38c-.32-.88-.69-1.74-1.1-2.58-.88-1.79-2.01-3.45-3.3-4.97-.1-.12-.22-.21-.34-.28-.24-.33-.62-.57-1.16-.57-.34,0-.61,.1-.83,.25-.66,.02-1.16,.44-1.42,1.09-.67,1.66-.71,3.62-.15,5.32,.56,1.7,1.65,3.1,3.12,4.13,1.34,.93,4.11,2.17,5.26,.39,.56-.87,.24-1.89-.08-2.78Z"/>
    <path class="cls-2" d="M1362.86,287.97c-1.93,0-1.93,3,0,3s1.93-3,0-3Z"/>
    <path class="cls-2" d="M1437.89,212.61c-8.73,.29-17.37,1.9-25.61,4.82-.53,.19-.83,.57-.95,.99-.1,.01-.2,.02-.3,.03-1.9,.2-1.92,3.2,0,3,5.3-.55,10.6-1.1,15.9-1.66,4.26-.45,9.78-.85,12.24-4.93,.58-.95-.16-2.29-1.3-2.26Z"/>
    <path class="cls-2" d="M1443.63,213.73c-.05-.2-.14-.37-.27-.51-.04-.07-.12-.1-.17-.16-.05-.07-.1-.13-.15-.2-.19-.19-.41-.31-.66-.39-.13-.02-.27-.04-.4-.05-.27,0-.52,.07-.76,.2,0,0,0,0,0,0-.02,.01-.29,.22-.3,.24,0,0,0,0,0,0,0,0,0,0,0,0-.09,.1-.18,.2-.25,.32-.03,.06-.09,.2-.08,.19,0-.02-.06,.13-.08,.19,0,0,0,0,0,.01-.01,.07-.03,.25-.03,.2,0,.02-.02,.14-.03,.2,0,0,0,.01,0,.02,0,.05,.02,.19,.03,.22,0,.04,.02,.14,.03,.18,0,0,0,0,0,0,0,0,0,0,0,.01,0,0,0,0,0,.01,0,0,0,0,0,0,.01,.03,.14,.33,.15,.36,0,0,0,0,0,0,0,0,0,.01,.01,.02,0,0,0,0,0,.01,0,0,0,0,0,0,0,0,0,0,0,0,0,0,0,0,0,0l.23,.3s.01,.01,.02,.02c0,0,.01,.01,.02,.02,0,0,0,0,0,0,0,0,0,0,0,0,.03,.02,.27,.21,.3,.24,0,0,0,0,0,0,0,0,.01,0,.02,.01,0,0,0,0,.01,0,.03,.01,.33,.14,.36,.15,0,0,0,0,0,0,0,0,0,0,0,0,0,0,.01,0,.02,0,0,0,0,0,0,0,.02,0,.38,.05,.4,.05,0,0,0,0,0,0,0,0,0,0,.01,0,0,0,0,0,.01,0,0,0,0,0,0,0,.03,0,.37-.05,.4-.05,0,0,0,0,0,0,0,0,0,0,.01,0,.06-.02,.17-.07,.18-.08,.02,0,.13-.05,.18-.08,0,0,0,0,.01,0,.11-.07,.21-.15,.31-.24,0,0,0,0,0,0,0,0,0,0,0,0,0-.01,.23-.29,.24-.3,0,0,0,0,0,0,.11-.17,.17-.36,.18-.56,.04-.2,.04-.4-.03-.6Z"/>
    <path class="cls-2" d="M1272.04,289.48c-1.93,0-1.93,3,0,3s1.93-3,0-3Z"/>
    <path class="cls-2" d="M829.5,302.16c-.11-.27-.33-.6-.61-.72-.74-.32-1.49-.6-2.28-.78-.79-.19-1.59-.3-2.4-.35-.37-.02-.81,.18-1.06,.44s-.46,.69-.44,1.06c.02,.43,.19,.79,.46,1.06,.02,.48,.28,.93,.73,1.24,.85,.58,1.85,1.15,2.92,1.08,1.24-.08,2.43-.79,2.77-2.05,.09-.33,.05-.67-.08-.98Z"/>
    <path class="cls-2" d="M831.28,301.75c-1.93,0-1.93,3,0,3s1.93-3,0-3Z"/>
    <path class="cls-2" d="M851.38,322.6c-.02-.09-.07-.19-.11-.28-.04-.09-.07-.18-.12-.27-.25-.41-.69-.8-1.18-.88-.2-.06-.4-.07-.6-.03-.2,0-.39,.07-.56,.18-.23,.13-.44,.36-.58,.61-.03,0-.07,0-.1,0-.13,.02-.27,.04-.4,.05-.25,.07-.47,.2-.66,.39-.68,.54-1.14,1.31-1.43,2.12-.16,.44,0,.95,.27,1.31,.3,.39,.69,.56,1.18,.59,1.13,.08,2.19-.52,3.07-1.15,.31-.23,.57-.43,.8-.73,.3-.38,.46-.81,.48-1.3,.01-.2-.02-.41-.07-.6Z"/>
    <path class="cls-2" d="M843.76,324.84c-1.93,0-1.93,3,0,3s1.93-3,0-3Z"/>
    <path class="cls-2" d="M731.04,247.36c-.37-.58-.82-1.02-1.38-1.41-1-.71-2.34-.94-3.53-.63-.36,.09-.71,.37-.9,.69-.19,.32-.27,.8-.15,1.16,.03,.09,.07,.17,.11,.25-.11,.48,0,1.01,.38,1.39,1.21,1.21,2.86,1.91,4.57,1.96,.36,.01,.82-.17,1.06-.44,.25-.28,.48-.67,.44-1.06-.07-.68-.24-1.32-.61-1.91Z"/>
    <path class="cls-2" d="M1071.54,170.18c-.6-.41-1.36-.36-1.99-.07-.22-.15-.5-.25-.84-.25-1.4,0-1.78,1.57-1.15,2.44,0,.01-.02,.02-.02,.03-.57,.8-1.14,1.61-1.71,2.41-.21,.3-.25,.81-.15,1.16,.1,.35,.36,.72,.69,.9,.35,.18,.77,.28,1.16,.15,.05-.02,.08-.05,.13-.07,.22,.12,.46,.2,.71,.19,.37-.02,.82-.14,1.06-.44l1.62-2.02c.61-.76,1.28-1.46,1.41-2.46,.11-.81-.23-1.53-.9-1.98Z"/>
    <path class="cls-2" d="M1069.96,181.86c-1.3-2.61-4.42-4.34-7.33-3.95-.41,.06-.75,.13-1.06,.44-.19,.19-.34,.47-.41,.75-.02,.02-.05,.04-.07,.06-.5,.54-.65,1.6,0,2.12,2.17,1.74,4.78,2.75,7.57,2.83,.52,.01,1.03-.3,1.3-.74,.28-.49,.24-1.02,0-1.51Z"/>
    <path class="cls-2" d="M1071.37,176.71c-1.93,0-1.93,3,0,3s1.93-3,0-3Z"/>
    <path class="cls-2" d="M842.3,202.69c-.05-.12-.1-.24-.15-.36-.13-.23-.31-.4-.54-.54-.11-.06-.22-.11-.33-.17-.09-.06-.19-.1-.29-.13-.21-.45-.64-.79-1.29-.79-.78,0-1.24,.49-1.39,1.07-1.71,.21-1.65,2.98,.21,2.98,.55,0,.93-.25,1.17-.59,.02,.02,.04,.04,.07,.05,.11,.06,.22,.11,.33,.17,.17,.11,.36,.17,.56,.18,.2,.04,.4,.04,.6-.03,.2-.05,.37-.14,.51-.27,.16-.11,.29-.25,.39-.42,.05-.12,.1-.24,.15-.36,.07-.27,.07-.53,0-.8Z"/>
    <path class="cls-2" d="M1457.3,264.41c-.15-.28-.35-.53-.56-.78-.13-.16-.28-.31-.45-.44-.25-.2-.5-.4-.78-.55-.29-.15-.59-.28-.9-.38-.36-.11-.83-.04-1.16,.15-.22,.13-.42,.34-.56,.58-.29,.19-.56,.52-.63,.86-.09,.38-.07,.82,.15,1.16l.23,.3c.19,.19,.41,.31,.66,.39,.76,.31,1.53,.62,2.29,.93,.13,.02,.27,.04,.4,.05,.13-.02,.27-.04,.4-.05l.36-.15c.17-.09,.32-.22,.42-.39,.09-.09,.16-.2,.19-.33,.07-.12,.1-.24,.1-.38,.04-.13,.04-.27,0-.4,0-.2-.07-.39-.18-.56Z"/>
    <path class="cls-2" d="M1459.55,265.17c-1.93,0-1.93,3,0,3s1.93-3,0-3Z"/>
    <path class="cls-2" d="M1407.11,268.59c-.63,.03-1.13,.38-1.36,.9-.01,0-.02,0-.04,0-2.9,1.02-4.97,3.8-4.98,6.91,0,.95,.97,1.74,1.9,1.45,3.39-1.06,5.81-4.22,5.98-7.76,.04-.78-.72-1.54-1.5-1.5Z"/>
    <path class="cls-2" d="M1398.2,277.83c-1.93,0-1.93,3,0,3s1.93-3,0-3Z"/>
    <path class="cls-2" d="M1543.33,249.81c.08-.2,.14-.4,.17-.61,.34-2.27-1.24-4.23-2.86-5.69,.32-.88-.13-2.07-1.35-2.07-.39,0-.69,.12-.92,.31-1.7-1.13-3.56-1.99-5.54-2.55-.22-.06-.42-.07-.6-.04-.2-.12-.45-.19-.74-.19-.18,0-.33,.03-.47,.08-1-.4-2.44,.39-2.07,1.75,1.17,4.26,4.76,7.15,8.52,9.12,.96,.5,2.01,1.11,3.06,1.41,.18,.05,.36,.08,.54,.09,.13,.61,.6,1.14,1.41,1.14,1.58,0,1.87-2.01,.86-2.74Z"/>
    <path class="cls-2" d="M1546.33,244.27c-.15-.59-.61-1.08-1.39-1.08-1.45,0-1.81,1.69-1.08,2.53,.15,.59,.61,1.08,1.39,1.08,1.45,0,1.81-1.69,1.08-2.53Z"/>
    <path class="cls-2" d="M1578.26,277.17c-.48-.9-1.4-1.25-2.34-1.25-.29-.13-.63-.17-.97-.08-.21,.05-.41,.12-.62,.18-.18-.53-.63-.96-1.36-.96-1.1,0-1.57,.97-1.42,1.8-.89,.3-1.77,.62-2.64,.97-1.03,.42-2.09,1.01-2.35,2.2-.02,.11-.02,.23-.03,.34-1.65,.27-1.56,2.97,.28,2.97,.7,0,1.14-.39,1.33-.9,.24,.07,.48,.11,.73,.16,2.19,.37,4.4,.58,6.49-.33,.81-.35,1.58-.89,2.14-1.58,.78-.96,1.41-2.32,.76-3.52Z"/>
    <path class="cls-2" d="M1579.71,273.3c-1.93,0-1.93,3,0,3s1.93-3,0-3Z"/>
    <path class="cls-2" d="M1500.91,273.6c0-.38-.04-.76-.13-1.13-.22-.97-.77-1.94-1.53-2.59-.3-.26-.64-.43-1.05-.44-.24-.17-.52-.27-.84-.26-.79,.04-1.53,.66-1.5,1.5,.07,2.02,.86,3.93,2.22,5.42,.32,.35,.81,.47,1.26,.41,.19-.03,.4-.09,.58-.2,.22,.17,.51,.27,.87,.27,1.89,0,1.93-2.87,.11-2.99Z"/>
    <path class="cls-2" d="M1661.28,295.95c-.31-.26-.64-.44-1.06-.44-.03,0-.06,0-.08,0-.16-.06-.34-.1-.5-.09-.39,.02-.79,.14-1.06,.44-.25,.27-.49,.68-.44,1.06,.16,1.18,.47,2.29,1.06,3.34,.51,.92,1.21,1.78,2.03,2.44,.48,.39,1.03,.57,1.64,.31,.56-.24,.9-.76,.92-1.37,.07-2.12-.87-4.32-2.5-5.69Z"/>
    <path class="cls-2" d="M1664.56,295.66c-1.93,0-1.93,3,0,3s1.93-3,0-3Z"/>
    <path class="cls-2" d="M1671.22,326.96c-.83-1.61-2.6-2.64-4.4-2.67-.43,0-.84,.21-1.13,.53-.42-.04-.85,.09-1.15,.42-.54,.58-.61,1.55,0,2.12,1.42,1.33,3.44,2.09,5.39,1.85,.27,0,.52-.07,.76-.2,.23-.13,.4-.31,.54-.54,.28-.48,.25-1.03,0-1.51Z"/>
    <path class="cls-2" d="M1673.8,325.39c-1.93,0-1.93,3,0,3s1.93-3,0-3Z"/>
    <path class="cls-2" d="M1692.67,286s0-.02,0-.02c.33-.74,.21-1.61-.54-2.05-.64-.38-1.72-.2-2.05,.54-2.35,5.19-3.81,10.65-4.35,16.32-.14,1.43,1.67,1.79,2.56,1.06,1.15-.94,1.72-2.34,2.17-3.72,.54-1.65,1.04-3.31,1.55-4.97,.65-2.12,1.97-5.15,.65-7.16Z"/>
    <path class="cls-2" d="M1684.83,302.64c-1.93,0-1.93,3,0,3s1.93-3,0-3Z"/>
    <path class="cls-2" d="M1700.63,266.65c-.48-1.18-1.29-2.13-2.54-2.53-.1-.03-.2-.05-.31-.05-.31-.14-.71-.19-1.02-.09-.73,.24-1.33,1.05-1.05,1.85,.61,1.73,1.41,3.39,2.42,4.93,.35,.54,1.04,.9,1.69,.69,.66-.21,1.06-.76,1.1-1.45,.07-1.1,.12-2.29-.3-3.33Z"/>
    <path class="cls-2" d="M1693.39,263.44c-1.93,0-1.93,3,0,3s1.93-3,0-3Z"/>
    <path class="cls-2" d="M1685.51,271.1c-.23,0-.43,.04-.6,.12,0-.01,0-.03,0-.04-.2-1.07-1.02-1.96-2.04-2.26-.12-.18-.27-.33-.47-.43-.73-.39-1.62-.18-2.05,.54-.55,.9-.98,1.89-1.27,2.9-.18,.64-.38,1.35-.22,2.01,.19,.75,.84,1.34,1.6,1.48,1.22,.22,2.42-.29,3.34-1.07,.25-.21,.45-.46,.62-.72,.24,.29,.61,.48,1.1,.48,1.93,0,1.93-3,0-3Z"/>
    <path class="cls-2" d="M1676.27,271.78c-1.93,0-1.93,3,0,3s1.93-3,0-3Z"/>
    <path class="cls-2" d="M1741.93,187.53c-.19-.45-.51-.68-.94-.85,0-.75-.48-1.51-1.45-1.51-.78,0-1.25,.5-1.39,1.09-1.05,.06-2.09,.34-3.02,.8-1.83,.9-4.26,3.36-2.91,5.54,.28,.45,.81,.74,1.33,.74,.03,.03,.07,.06,.1,.08,.59,.51,1.55,.63,2.12,0,.13-.14,.24-.32,.31-.5,2.33-.61,4.39-2.03,5.78-4.05,.27-.39,.25-.92,.08-1.33Z"/>
    <path class="cls-2" d="M1744.09,187.44c-1.93,0-1.93,3,0,3s1.93-3,0-3Z"/>
    <path class="cls-2" d="M1756.9,223.98c-.05-.34-.18-.6-.41-.86-.83-.94-1.66-1.88-2.5-2.81-.25-.28-.7-.44-1.06-.44-.09,0-.19,.01-.29,.03-.16,0-.32,0-.46,.04-.36,.12-.71,.34-.9,.69-.05,.12-.1,.24-.15,.36-.07,.27-.07,.53,0,.8,.07,.48,.26,.96,.49,1.38,.09,.17,.19,.32,.31,.47,.18,.24,.36,.47,.57,.68,.34,.33,.74,.64,1.17,.85,.27,.13,.55,.26,.84,.34,.3,.09,.6,.12,.91,.16,.13-.02,.27-.04,.4-.05,.12-.05,.24-.1,.36-.15,.28-.17,.49-.42,.61-.72,.11-.26,.14-.5,.1-.78Z"/>
    <path class="cls-2" d="M1797.71,201.22c-1.23-2.51-3.33-4.61-5.8-5.89-.7-.36-1.46-.73-2.27-.74-1.11,0-2.11,.83-2.08,1.99,.02,.81,.59,1.59,1.06,2.21,.44,.58,.92,1.13,1.47,1.61,.78,.7,1.67,1.25,2.61,1.69,.5,.45,1.01,.91,1.61,1.21,.95,.48,2.01,.54,2.94-.02,.75-.45,.8-1.36,.45-2.07Z"/>
    <path class="cls-2" d="M1800.24,204.67c-.05-.12-.1-.24-.15-.36-.13-.23-.31-.4-.54-.54-.12-.09-.25-.17-.37-.26-.17-.11-.36-.17-.56-.18-.2-.04-.4-.04-.6,.03-.2,.05-.37,.14-.51,.27-.16,.11-.29,.25-.39,.42-.05,.12-.1,.24-.15,.36-.07,.27-.07,.53,0,.8,.05,.12,.1,.24,.15,.36,.13,.23,.31,.4,.54,.54,.12,.09,.25,.17,.37,.26,.17,.11,.36,.17,.56,.18,.2,.04,.4,.04,.6-.03,.2-.05,.37-.14,.51-.27,.16-.11,.29-.25,.39-.42,.05-.12,.1-.24,.15-.36,.07-.27,.07-.53,0-.8Z"/>
    <path class="cls-2" d="M1781.7,232.34c-.22-.24-.53-.35-.86-.4-.16-.16-.37-.29-.63-.35-.72-.16-1.71,.22-1.85,1.05-.54,3.41,.82,6.74,3.6,8.79,.8,.59,1.96-.05,2.2-.9,.86-2.96-.46-6.02-2.47-8.19Z"/>
    <path class="cls-2" d="M1785.74,240.11c-1.93,0-1.93,3,0,3s1.93-3,0-3Z"/>
    <path class="cls-2" d="M1837.91,237.51c-.95-.99-2.63-1.09-3.34,.24-.51,.94-.56,2.17-.48,3.22,.1,1.33,.3,2.66,.51,3.98,.06,.68,.16,1.34,.32,2,.03,.18,.06,.36,.08,.54,.03,.17,.1,.32,.19,.46,.16,.47,.34,.94,.57,1.39,.6,1.2,2.38,.81,2.74-.36,.61-1.98,1.03-4.08,1.08-6.16,.05-1.86-.34-3.93-1.67-5.32Z"/>
    <path class="cls-2" d="M1840.03,252.1s-.01-.15-.03-.22c-.05-.2-.14-.37-.27-.51-.11-.16-.25-.29-.42-.39-.14-.09-.3-.14-.46-.16-.16-.06-.33-.1-.51-.1-.13,.02-.27,.04-.4,.05-.25,.07-.47,.2-.66,.39-.1,.09-.17,.21-.25,.32,0,0,0,0,0,.01-.06,.12-.11,.24-.16,.37,0,0,0,.02,0,.02,0,0,0,0,0,0,0,.07-.02,.13-.03,.2-.01,.07-.02,.13-.03,.2,0,0,0,0,0,.01,0,0,0,0,0,.01,.01,.14,.03,.27,.05,.41,0,0,0,.02,0,.03,.13,.37,.17,.41,.41,.7,0,0,.01,.01,.02,.02,.1,.09,.2,.16,.31,.24,0,0,0,0,.01,0,.26,.14,.51,.22,.81,.22,.34,0,.51-.07,.81-.22,0,0,0,0,.01,0,.06-.03,.15-.11,.16-.13,.02-.02,.11-.08,.16-.13,0,0,0,0,.01-.01,.09-.1,.17-.21,.24-.32,0,0,0,0,0-.01,.03-.06,.07-.18,.08-.19,0,0,.06-.13,.08-.19,0,0,0-.01,0-.02,.02-.13,.05-.27,.05-.41,0-.07-.03-.23-.03-.22Z"/>
    <path class="cls-2" d="M1825.64,218.01c-.18-.52-.49-.94-.97-1.23-.28-.17-.64-.23-.97-.18-.05,0-.09,.01-.14,.02-.02,0-.03,0-.05,0,0,0-.01,0-.02,0-.14,.03-.28,.08-.41,.15-1.12,.6-2.07,1.53-2.73,2.62-.14,.23-.2,.49-.2,.76,0,.27,.07,.52,.2,.76,.25,.33,.35,.45,.68,.69,.17,.12,.38,.2,.57,.27,.29,.1,.62,.14,.93,.11,.23-.02,.45-.05,.66-.12,.21-.07,.43-.16,.62-.28,.29-.17,.56-.39,.81-.62,.47-.44,.94-1.01,1.06-1.67,.08-.43,.1-.86-.05-1.28Z"/>
    <path class="cls-2" d="M1828.72,217.3c-.06-.19-.16-.35-.31-.48-.1-.08-.2-.16-.3-.23-.23-.14-.49-.2-.76-.2-.13,.02-.27,.04-.4,.05-.25,.07-.47,.2-.66,.39-.04,.04-.08,.08-.12,.12-.15,.14-.25,.3-.31,.48-.09,.18-.14,.37-.13,.58,0,.21,.04,.4,.13,.58,.06,.19,.16,.35,.31,.48,.1,.08,.2,.16,.3,.23,.23,.14,.49,.2,.76,.2,.13-.02,.27-.04,.4-.05,.25-.07,.47-.2,.66-.39l.12-.12c.15-.14,.25-.3,.31-.48,.09-.18,.14-.37,.13-.58,0-.21-.04-.4-.13-.58Z"/>
    <path class="cls-2" d="M1853.22,266.48c.23-.44,.28-.97-.02-1.42-.42-.65-1.35-1-2.05-.54-1.63,1.07-3.27,2.14-4.9,3.21-.35,.23-.71,.47-1.06,.7-.24-.36-.63-.62-1.19-.62-1.4,0-1.78,1.57-1.15,2.43-.35,.45-.57,.97-.6,1.61-.03,.71,.5,1.21,1.1,1.45,1.27,.49,2.54-.24,3.66-.78,.97-.46,1.96-.9,2.9-1.42,.94-.52,1.77-1.18,2.41-2.04,1.39-.09,1.7-1.79,.91-2.58Z"/>
    <path class="cls-2" d="M1840.4,270.05c-1.93,0-1.93,3,0,3s1.93-3,0-3Z"/>
    <path class="cls-2" d="M1830.21,268.43c-.24,0-.44,.05-.62,.13-.25-.31-.53-.6-.85-.85-1.03-.81-2.22-1.33-3.48-1.67-.68-.18-1.48,.17-1.77,.82-1.49,.36-1.42,2.79,.23,2.94,.31,.6,.75,1.15,1.26,1.56,.91,.75,1.96,1.21,3.06,1.59,.22,.08,.44,.17,.66,.22,.76,.16,1.47-.11,1.9-.77,.09-.14,.15-.29,.19-.45,.28-.24,.42-.59,.47-.96,.77-.83,.42-2.57-1.05-2.57Z"/>
    <path class="cls-2" d="M1825.31,263.2c-.07-.25-.2-.47-.39-.66l-.5-.62c-.14-.15-.3-.25-.48-.31-.18-.09-.37-.14-.58-.13-.21,0-.4,.04-.58,.13-.19,.06-.35,.16-.48,.31-.08,.1-.16,.2-.23,.3-.14,.23-.2,.49-.2,.76,.02,.13,.04,.27,.05,.4,.07,.25,.2,.47,.39,.66,.17,.21,.33,.41,.5,.62,.14,.15,.3,.25,.48,.31,.18,.09,.37,.14,.58,.13,.21,0,.4-.04,.58-.13,.19-.06,.35-.16,.48-.31,.08-.1,.16-.2,.23-.3,.14-.23,.2-.49,.2-.76-.02-.13-.04-.27-.05-.4Z"/>
    <path class="cls-2" d="M1727.65,205.42s-.05-.03-.07-.05c-.19-.38-.51-.69-.93-.79-.8-.18-1.61,.24-1.85,1.05-.26,.91-.25,1.92,.02,2.83,.27,.89,.78,1.76,1.49,2.36,.42,.35,.91,.54,1.46,.39,.51-.14,.9-.54,1.05-1.05,.5-1.66,.01-3.5-1.17-4.74Z"/>
    <path class="cls-2" d="M1731.39,208.42c-1.93,0-1.93,3,0,3s1.93-3,0-3Z"/>
    <path class="cls-2" d="M2096.89,67.85c-.55-.56-1.58-.59-2.12,0-.02,.02-.04,.05-.06,.08-.16,.07-.3,.16-.43,.29-1.63,1.61-2.55,4.01-2.28,6.3,.05,.39,.13,.78,.44,1.06,.29,.27,.66,.44,1.06,.44,1.8-.02,3.6-1.1,4.34-2.77,.81-1.82,.46-3.97-.94-5.41Z"/>
    <path class="cls-2" d="M2098.89,65.07c-1.93,0-1.93,3,0,3s1.93-3,0-3Z"/>
    <path class="cls-2" d="M2096.04,108.01c-1.13-1.31-2.74-2.11-4.26-2.88-.82-.42-1.63-.84-2.45-1.26-.41-.21-.82-.42-1.23-.63-.48-.24-.97-.53-1.53-.53-.36,0-.68,.1-.95,.26-.04,0-.08,0-.12,.02-.83,.23-1.21,1.05-1.05,1.85,.58,2.87,2.19,5.57,4.42,7.48,2.05,1.76,7.37,4.97,8.59,.68,.51-1.78-.28-3.65-1.43-4.99Z"/>
    <path class="cls-2" d="M2099.13,107.3c-1.93,0-1.93,3,0,3s1.93-3,0-3Z"/>
    <path class="cls-2" d="M2085.14,84.75c-.05-.2-.14-.37-.27-.51-.11-.16-.25-.29-.42-.39-.12-.05-.24-.1-.36-.15-.27-.07-.53-.07-.8,0-.12,.05-.24,.1-.36,.15-.23,.13-.4,.31-.54,.54-.24,.32-.48,.64-.72,.97-.11,.17-.17,.36-.18,.56-.04,.2-.04,.4,.03,.6,.05,.2,.14,.37,.27,.51,.11,.16,.25,.29,.42,.39,.12,.05,.24,.1,.36,.15,.27,.07,.53,.07,.8,0,.12-.05,.24-.1,.36-.15,.23-.13,.4-.31,.54-.54,.24-.32,.48-.64,.72-.97,.11-.17,.17-.36,.18-.56,.04-.2,.04-.4-.03-.6Z"/>
    <path class="cls-2" d="M2157.61,107.22c-.95-2.91-4.29-4.76-7.25-3.8-.66,.21-1.17,.87-1.1,1.57-.22,.55-.18,1.24,.3,1.63,1.89,1.53,4.16,2.42,6.6,2.5,.94,.03,1.74-.99,1.45-1.9Z"/>
    <path class="cls-2" d="M2160.19,104.89c-1.93,0-1.93,3,0,3s1.93-3,0-3Z"/>
    <path class="cls-2" d="M2208.63,71.85c-.23-.5-.57-.96-.96-1.34-.5-.48-1.06-.8-1.71-1.05-.34-.13-.85-.03-1.16,.15-.08,.05-.16,.11-.24,.17-.58,.08-1.09,.46-1.24,1.07-.29,1.15-.54,2.38-.19,3.55,.34,1.14,1.23,2.05,2.37,2.38,1.21,.35,2.62-.14,3.2-1.31,.58-1.17,.45-2.46-.08-3.63Z"/>
    <path class="cls-2" d="M2207.25,77.38c-1.93,0-1.93,3,0,3s1.93-3,0-3Z"/>
    <path class="cls-2" d="M2237.41,109.95s-.05,0-.07,0c-.24-.6-.74-1.07-1.38-1.28-.67-.23-1.36-.15-2.04-.03-1.14,.2-2.24,.6-3.27,1.11-2.11,1.05-3.93,2.76-5.13,4.79-.06,0-.11-.02-.17-.02-1.93,0-1.93,3,0,3,.32,0,.58-.09,.8-.23,.06,.01,.13,.03,.19,.04,.08,.1,.16,.2,.26,.28,.74,.63,1.65,.81,2.6,.65,1.23-.2,2.44-.89,3.43-1.62,1.01-.75,1.92-1.61,2.76-2.54,.38-.42,.84-.88,1.24-1.38,.21,.13,.47,.22,.79,.22,1.93,0,1.93-3,0-3Z"/>
    <path class="cls-2" d="M2235.48,104.65c-1.93,0-1.93,3,0,3s1.93-3,0-3Z"/>
    <path class="cls-2" d="M2149.73,73.15c-.05-.71-.52-1.39-1.44-1.39-.24,0-.45,.05-.63,.13-2.06-1.15-4.25-2.14-5.48-2.69,0,0-8.94-4.03-12.26-2.42-.29,.14-1.49,.82-1.5,1.5,0,.48,.2,.84,.51,1.09,0,.02,.02,.03,.03,.05-.15,.84,.32,1.8,1.42,1.8,.29,0,.54-.08,.74-.19,5.48,3.17,11.45,5.5,17.65,6.81,.84,.18,2.47,.64,3.35-.2,0,0,.42-.4,.51-1.03,.16-1.05-1.14-2.29-2.9-3.47Z"/>
    <path class="cls-2" d="M2153.06,70.72c-1.93,0-1.93,3,0,3s1.93-3,0-3Z"/>
    <path class="cls-2" d="M2183.99,61.6c-.25-.48-.54-.93-.86-1.36-.09-.17-.22-.32-.39-.42-.14-.13-.31-.22-.51-.27-.2-.06-.4-.07-.6-.03-.2,0-.39,.07-.56,.18-.1,.08-.2,.16-.3,.23-.19,.19-.31,.41-.39,.66-.02,.13-.04,.27-.05,.4,0,.27,.07,.52,.2,.76,.33,.43,.62,.88,.86,1.36,.09,.17,.22,.32,.39,.42,.15,.13,.31,.22,.51,.27,.2,.06,.4,.07,.6,.03,.2,0,.39-.07,.56-.18l.3-.23c.19-.19,.31-.41,.39-.66,.02-.13,.04-.27,.05-.4,0-.27-.07-.52-.2-.76Z"/>
    <path class="cls-2" d="M2174.9,55.26c-.07,0-.12,.01-.19,.02-.16-.56-.62-1.02-1.38-1.02-1.79,0-1.92,2.56-.4,2.95-.59,.88-.2,2.4,1.18,2.4,.96,0,1.44-.74,1.45-1.49,1.23-.6,1.01-2.85-.67-2.85Z"/>
    <path class="cls-2" d="M2203.62,113.83c-.26-.79-1.03-1.25-1.85-1.05-.96,.24-1.91,.5-2.85,.8-.46,.15-.93,.3-1.38,.47-.72,.27-1.44,.69-1.65,1.49-.24,.91,.15,1.75,.91,2.25,.47,.31,1.05,.42,1.6,.45,.87,.05,1.84-.25,2.55-.75,.65-.47,1.22-1.07,1.55-1.8,.02,0,.04-.01,.06-.02,.76-.19,1.29-1.09,1.05-1.85Z"/>
    <path class="cls-2" d="M2194.34,115.79c-1.93,0-1.93,3,0,3s1.93-3,0-3Z"/>
    <path class="cls-2" d="M2126.11,66.98c-1.93,0-1.93,3,0,3s1.93-3,0-3Z"/>
    <path class="cls-2" d="M481.7,268.3c-.36-.8-.88-1.48-1.42-2.17-.06-.08-.12-.15-.18-.23-.01-.02-.04-.05-.06-.08-.11-.15-.22-.3-.32-.46-.11-.17-.2-.37-.31-.54,0-.01,0,0-.01-.01,0,0,0,0,0,0-.03-.11-.07-.22-.1-.33-.06-.21-.17-.4-.31-.56-.26-.45-.73-.77-1.27-.75-.45,.02-.88,.24-1.17,.57-.2-.11-.44-.19-.73-.19-1.93,0-1.93,3,0,3,.2,0,.38-.04,.54-.1,.16,1.37,.45,2.73,.91,4.03,.09,.25,.19,.49,.28,.73-.11,.06-.22,.13-.31,.23-.15,.14-.25,.3-.31,.48-.09,.18-.14,.37-.13,.58,.02,.13,.04,.27,.05,.4,.07,.25,.2,.47,.39,.66l.3,.23c.23,.14,.49,.2,.76,.2h.66c.61,.72,1.46,1.19,2.46,.9,.45-.13,.98-.54,1.05-1.05,.27-1.92,.04-3.77-.77-5.54Z"/>
    <path class="cls-2" d="M484.45,274.48c-1.93,0-1.93,3,0,3s1.93-3,0-3Z"/>
    <path class="cls-2" d="M524.54,299.95c-.07-.57-.22-1.08-.51-1.57-.24-.4-.54-.76-.86-1.1-.48-.53-1.39-.55-1.95-.12-.28-.39-.74-.65-1.21-.63-.84,.04-1.47,.66-1.5,1.5-.03,.85,.17,1.65,.51,2.43,.12,.27,.26,.53,.43,.77,.24,.33,.49,.67,.81,.94,.49,.42,1.03,.71,1.69,.73,.46,.02,.98-.13,1.36-.4,.39-.28,.75-.63,.95-1.08,.21-.46,.35-.94,.29-1.46Z"/>
    <path class="cls-2" d="M522.2,303.09c-1.93,0-1.93,3,0,3s1.93-3,0-3Z"/>
    <path class="cls-2" d="M516.24,312.03c-.32,0-.57,.09-.79,.22,0,0-.01,0-.02-.01-.21-.09-.42-.2-.65-.24-.24-.05-.48-.09-.73-.08-.32,0-.64,.14-.9,.33-.09,.02-.18,.05-.27,.1-.19,.06-.35,.16-.48,.31-.26,.29-.46,.66-.44,1.06,.02,.4,.15,.77,.44,1.06,.14,.15,.31,.27,.48,.38,.07,.05,.14,.09,.22,.13,.18,.08,.37,.17,.56,.23,.2,.06,.43,.08,.62,.1,.08,0,.16,.01,.24,0,.21,0,.42-.04,.63-.08,.08-.02,.16-.04,.23-.07,.19-.08,.4-.15,.57-.26,.09-.05,.16-.12,.24-.18,.01,0,.02,0,.03,0,1.93,0,1.93-3,0-3Z"/>
    <path class="cls-2" d="M461.45,256.88c-.67-1.73-1.28-3.54-2.2-5.14-.95-1.64-2.5-3.15-4.44-3.43-.49-.07-.9-.05-1.31,.27-.37,.29-.59,.7-.59,1.18,0,.04,0,.08,0,.13-1.59,.32-1.48,2.97,.33,2.97,.08,0,.14-.01,.21-.02,1.08,2.93,3.63,5.22,6.45,6.63,.7,.35,1.66,.21,2.05-.54,.36-.67,.21-1.65-.51-2.03Z"/>
    <path class="cls-2" d="M451.46,245.47c-1.93,0-1.93,3,0,3s1.93-3,0-3Z"/>
    <path class="cls-2" d="M450.07,269.9c-.91,0-1.38,.66-1.44,1.37-.67-.31-1.4-.49-2.14-.55-.28-.02-.61,.1-.86,.28-.06,0-.13,.01-.18,.03-.35,.1-.72,.36-.9,.69-.18,.35-.28,.77-.15,1.16,.12,.39,.35,.67,.69,.9,.28,.19,.57,.33,.88,.46,.31,.13,.61,.25,.94,.31,.37,.08,.76,.13,1.14,.14,.4,.01,.8-.04,1.2-.11,.12-.05,.24-.1,.36-.15l.3-.23c.23-.23,.37-.54,.41-.86,.02-.16,.01-.3-.01-.45,1.68-.24,1.61-2.98-.24-2.98Z"/>
    <path class="cls-2" d="M457.88,274.37c-.07-.25-.2-.47-.39-.66-.12-.11-.25-.2-.38-.3-.03-.02-.06-.04-.1-.06-.14-.07-.3-.13-.45-.19-.04-.01-.07-.02-.11-.03-.02,0-.04,0-.05-.01-.15-.02-.29-.04-.44-.06-.04,0-.07,0-.11,0-.16,0-.36,.04-.5,.06-.04,0-.08,.01-.11,.03-.2,.05-.37,.14-.51,.27-.16,.11-.29,.25-.39,.42-.11,.17-.17,.36-.18,.56-.04,.2-.04,.4,.03,.6,.05,.12,.1,.24,.15,.36,.13,.23,.31,.4,.54,.54,.12,.05,.24,.1,.36,.15,.16,.04,.32,.05,.48,.04,.04,.02,.09,.05,.13,.06,.18,.09,.37,.14,.58,.13,.21,0,.4-.04,.58-.13,.19-.06,.35-.16,.48-.31l.23-.3c.14-.23,.2-.49,.2-.76-.02-.13-.04-.27-.05-.4Z"/>
    <path class="cls-2" d="M487.16,292.79s0-.03,0-.04c.35-.28,.6-.71,.58-1.16-.04-.83-.66-1.48-1.5-1.5-2.05-.04-4.12,.41-5.98,1.29-.17-.55-.62-1-1.37-1-1.45,0-1.81,1.69-1.09,2.53-.26,.24-.44,.51-.49,.9-.06,.47,.07,.92,.41,1.26,1.42,1.44,3.5,1.38,5.34,.97,.84-.19,1.78-.47,2.55-.95,.23,.39,.64,.66,1.22,.66,1.81,0,1.93-2.65,.33-2.97Z"/>
    <path class="cls-2" d="M474.91,292.76c-1.93,0-1.93,3,0,3s1.93-3,0-3Z"/>
    <path class="cls-2" d="M424.05,240.57c-9.2,2.01-10.28,2.6-11.3,3.36-.49,.37-3.56,2.68-3.04,4.1,.7,1.88,3.23,1.33,4.74,1.17,3.9-.43,7.73-1.31,11.4-2.69,.85-.32,1.69-.67,2.52-1.03,.82-.36,1.7-.72,2.21-1.5,.33-.52,.43-1.12,.29-1.69-.02-.09-.11-.43-.35-.75-.56-.75-1.56-.92-2.27-1.01-2.61-.31-4.2,.04-4.2,.04Z"/>
    <path class="cls-2" d="M436.07,243.64c-.04-.13-.1-.24-.19-.33-.11-.16-.25-.29-.42-.39l-1.45-.92c-.17-.11-.36-.17-.56-.18-.2-.04-.4-.04-.6,.03-.2,.05-.37,.14-.51,.27-.16,.11-.29,.25-.39,.42-.13,.24-.2,.51-.2,.78-.11,.29-.14,.61-.05,.92,.05,.12,.1,.24,.15,.36,.13,.23,.31,.4,.54,.54,.11,.08,.23,.16,.36,.22,.24,.11,.49,.22,.75,.29,.07,.02,.13,.03,.2,.04,.2,.03,.39,.06,.59,.07,.27,.01,.54-.04,.81-.08,.12-.05,.24-.1,.36-.15l.3-.23c.08-.1,.16-.2,.23-.3,.11-.17,.17-.36,.18-.56,.04-.13,.04-.27,0-.4,0-.14-.03-.26-.1-.38Z"/>
    <path class="cls-2" d="M409.63,241.2c-.1-.36-.36-.71-.69-.9-.32-.19-.8-.27-1.16-.15-.48,.16-.86,.52-1.02,.97-.34,.48-.61,.99-.77,1.57-.22,.75-.22,1.5-.11,2.26,.07,.51,.35,.96,.76,1.27,.69,.53,1.72,.46,2.3-.2,.33-.37,.5-.83,.65-1.29,.12-.4,.18-.8,.23-1.21,.1-.77,.01-1.58-.19-2.33Z"/>
    <path class="cls-2" d="M413.91,259.18c-.24,0-.45,.05-.62,.13-.3-.36-.6-.72-.9-1.08-.14-.15-.3-.25-.48-.31-.18-.09-.37-.14-.58-.13-.03,0-.05,0-.07,0,0,0,0,0,0,0-.18-.09-.37-.14-.58-.13-.21,0-.4,.04-.58,.13-.19,.06-.35,.16-.48,.31-.26,.29-.46,.66-.44,1.06,.02,.38,.14,.81,.44,1.06,.61,.52,1.23,1.03,1.84,1.55,.14,.15,.3,.25,.48,.31,.18,.09,.37,.14,.58,.13,.21,0,.4-.04,.58-.13,.05-.02,.09-.04,.13-.06,.19,.1,.42,.16,.69,.16,1.93,0,1.93-3,0-3Z"/>
    <path class="cls-2" d="M351.86,253.84c-.28-.85-1.01-1.17-1.85-1.05-2.59,.37-5.23,1.44-7.06,3.36-.49,.51-1,1.1-1.29,1.75-.32,.72-.33,1.54,.24,2.15,.39,.42,.93,.62,1.5,.62,1.42,0,2.92-.55,4.17-1.17,1.37-.69,2.62-1.69,3.57-2.9,.26-.33,.44-.63,.44-1.06,0-.1-.01-.2-.04-.31,.31-.39,.45-.96,.31-1.39Z"/>
    <path class="cls-2" d="M353.84,253.61c-1.93,0-1.93,3,0,3s1.93-3,0-3Z"/>
    <path class="cls-2" d="M376.69,252.98c-.05-.22-.16-.41-.31-.57-.01-.22-.07-.44-.2-.63-.44-.69-1.33-.96-2.05-.54-1.05,.61-1.62,1.63-2.04,2.73-.18,.47-.32,.95-.47,1.43-.15,.46-.34,.93-.42,1.4-.12,.73-.07,1.45,.4,2.06,.63,.81,1.74,.94,2.62,.45,1.04-.58,1.76-1.69,2.2-2.77,.46-1.12,.53-2.38,.27-3.56Z"/>
    <path class="cls-2" d="M368.89,257.95c-1.93,0-1.93,3,0,3s1.93-3,0-3Z"/>
    <path class="cls-2" d="M349.02,267.92c-.18-.43-.48-.76-.86-1.02-.37-.25-.85-.35-1.3-.37-.37-.01-.75,.07-1.11,.14-.23,.05-.46,.2-.65,.38-.27-.08-.55-.1-.82-.02-.35,.1-.73,.36-.9,.69-.18,.35-.28,.77-.15,1.16,.12,.36,.34,.72,.69,.9,.51,.26,1.05,.49,1.6,.67,.22,.07,.45,.14,.67,.19,.29,.07,.6,.13,.9,.12,.93-.02,1.8-.56,2.05-1.49,.12-.46,.06-.92-.12-1.34Z"/>
    <path class="cls-2" d="M72.73,284.4c-.76-.72-1.79-1.03-2.78-1.28-1-.26-2.04-.41-3.08-.48-2.28-.14-4.62,.23-6.74,1.08-.53,.21-.95,.63-1.07,1.16-.7,.61-.9,1.84,.14,2.45,3.49,2.03,7.58,1.76,11.42,1.17,1.03-.16,2.09-.25,2.69-1.23,.59-.96,.16-2.16-.6-2.87Z"/>
    <path class="cls-2" d="M75,280.97c-1.93,0-1.93,3,0,3s1.93-3,0-3Z"/>
    <g>
      <path class="cls-2" d="M5.41,267.27s.01-.02,.02-.04c0-.01,0-.03,0-.04,0,.02-.01,.04-.02,.07,0,0,0-.01,0-.01,0,0,0,0,0,.01,0,0,0,.02,0,.03,0,0,0-.01,.01-.02,0,0,0,0,0,0,0,0,0,0,0,0,0,0,0,0,0,0Z"/>
      <path class="cls-2" d="M10.2,259.4s-.04-.06-.07-.08c-.64-.59-1.48-.54-2.12,0-1.09,.91-2.08,1.93-2.96,3.04-.49,.62-.97,1.26-1.39,1.93-.41,.64-.84,1.31-1.1,2.02-.29,.79-.2,1.82,.44,2.42,.47,.44,1.14,.61,1.77,.46,.45-.11,.85-.39,1.25-.63,1.29-.77,2.6-1.63,3.6-2.77,1.18-1.35,2.02-3.07,1.93-4.9-.04-.73-.59-1.44-1.35-1.49Z"/>
    </g>
    <path class="cls-2" d="M5.76,272.69c0-.21-.04-.4-.13-.58-.06-.19-.16-.35-.31-.48-.14-.15-.3-.25-.48-.31-.15-.08-.31-.11-.48-.12,0,0,0,0,0,0-.14-.13-.31-.22-.51-.27-.2-.06-.4-.07-.6-.03-.2,0-.39,.07-.56,.18l-.3,.23c-.19,.19-.31,.41-.39,.66-.02,.13-.04,.27-.05,.4,0,.27,.07,.52,.2,.76,.31,.47,.63,.93,.94,1.4l.23,.3c.14,.15,.3,.25,.48,.31,.12,.07,.24,.1,.38,.1,.2,.04,.4,.04,.6-.03l.36-.15,.3-.23c.15-.14,.25-.3,.31-.48,.09-.18,.14-.37,.13-.58-.04-.36-.08-.71-.12-1.07Z"/>
    <path class="cls-2" d="M60.41,262.42c-.71-1.17-2.14-1.98-3.53-1.84-.41,.04-.76,.14-1.06,.44-.18,.18-.32,.44-.39,.7-.14,.11-.27,.24-.35,.4-.18,.34-.29,.78-.15,1.16,.33,.87,.77,1.63,1.4,2.33,.53,.59,1.19,1.09,1.91,1.43,.35,.17,.77,.28,1.16,.15,.12-.05,.24-.1,.36-.15,.23-.13,.4-.31,.54-.54,.84-1.15,.87-2.88,.13-4.09Z"/>
    <path class="cls-2" d="M52.27,260.55c-1.93,0-1.93,3,0,3s1.93-3,0-3Z"/>
    <path class="cls-2" d="M34.19,259.59c-1.45-2.03-3.81-3.05-6.26-2.76-.07-.04-.14-.07-.2-.11-.68-.39-1.67-.18-2.05,.54-.04,.07-.04,.14-.07,.21-1.41,.47-1.26,2.92,.49,2.92,.52,0,.89-.22,1.13-.54,1.67,.85,3.44,1.52,5.26,1.94,.6,.14,1.2-.05,1.58-.54,.34-.44,.46-1.18,.12-1.67Z"/>
    <path class="cls-2" d="M35.88,261.13c-1.93,0-1.93,3,0,3s1.93-3,0-3Z"/>
  </g>
</svg>