<?xml version="1.0" encoding="UTF-8"?>
<svg id="Livello_2" data-name="Livello 2" xmlns="http://www.w3.org/2000/svg" viewBox="0 0 2500 1249">
  <defs>
    <style>
      .cls-1 {
        fill: #8ada51;
      }

      .cls-2 {
        fill: #caea60;
      }

      .cls-3 {
        fill: none;
        stroke: #f4f4f4;
        stroke-miterlimit: 10;
      }
    </style>
  </defs>
  <g id="Frame">
    <rect class="cls-3" x=".5" y=".5" width="2499" height="1248"/>
  </g>
  <g id="Livello_4" data-name="Livello 4">
    <path class="cls-1" d="M66.61,50.82c-1.23-2.5-2.5-5-3.89-7.43-2.76-4.84-6.02-9.57-10.27-13.46-1.34-1.23-2.77-2.33-4.25-3.37,.82-.81,.49-2.61-1-2.61-.19,0-.35,.03-.5,.09,0-.17,0-.35,0-.52,0-.34-.12-.65-.32-.91-.18-.23-.47-.49-.78-.54-.57-.09-1.15-.16-1.73-.12-.57,.04-1.15,.13-1.71,.3-.07,.02-.12,.07-.19,.1-1.22-.9-2.36-1.88-3.26-3.04-.77-1-1.27-2.11-1.44-3.31-.2-1.47-.27-2.73-1.62-3.76-.92-.7-2.65-.95-3.15-2.02-.53-1.12,0-2.65,.35-3.73,.26-.82-.13-1.91-1.14-2.17-2.98-.76-6-1.17-9.09-1.16-.74,0-1.28,.34-1.59,.79-2.31-.35-4.16,1.54-4.18,3.66-.03,2.73,3.12,4.03,4.05,6.39,.69,1.75,.55,3.7,.35,5.56-.11-.03-.23-.04-.37-.04-1.51,0-1.84,1.84-.97,2.64-.26,.18-.52,.37-.76,.57-.74,.62-1.16,1.52-1.18,2.47-.01,.44,.07,.86,.22,1.25-.64,.86-.27,2.45,1.14,2.45,.38,0,.68-.12,.91-.31,.3,.12,.62,.21,.94,.25,.23,.03,.47,.04,.71,.03,1.93,4.47,6.78,6.95,11.31,8.93,3.35,1.46,6.65,2.93,9.73,4.74-.02,.07-.04,.13-.06,.2,0,.01-.02,.04-.04,.08-.03,.07-.06,.13-.09,.2-.06,.13-.12,.26-.18,.39-.3,.69-.48,1.4-.45,2.16,.05,1.34,.62,2.66,1.67,3.52,1.11,.91,2.5,1.34,3.93,1.1,.37-.07,.72-.21,1.03-.39,.24,.23,.57,.38,.99,.38,.77,0,1.23-.48,1.39-1.06,.87,.96,1.67,1.97,2.35,3.04,1.29,1.99,2.09,4.21,3.39,6.18-.43,.89,0,2.22,1.28,2.22,.21,0,.39-.04,.55-.1,.33,.28,.68,.54,1.04,.77-.55,1.35-.09,3.06,1.23,3.79,.19,.1,.4,.19,.6,.26,.22,.07,.46,.09,.69,.12,.11,.01,.21,.02,.32,0,.22-.02,.47-.04,.68-.11,.42-.14,.81-.35,1.12-.67,.32-.33,.52-.69,.67-1.12,.14-.39,.14-.81,.09-1.21,0,0,0-.02,0-.03,1.84-.37,3.37-1.48,3.88-3.26,.79-2.76-1.2-5.71-2.41-8.17Z"/>
    <path class="cls-1" d="M31.73,154.35c-.58-2.25-2.58-3.25-4.31-4.5-.71-.52-1.17-1.1-1.36-1.97-.23-1.04-.19-2.13-.37-3.19-.36-2.16-1.84-3.8-3.93-4.44-.32-.1-.64-.15-.96-.19-.17-.55-.62-1-1.37-1-.47,0-.83,.18-1.07,.45-.23-.17-.52-.28-.88-.28-.99,0-1.47,.79-1.44,1.56-.37,.3-.55,.77-.54,1.23-2.27,2.07-2.65,5.83-.81,8.36,.5,.69,1.12,1.29,1.89,1.68,.29,.15,.75,.22,.98,.44,.27,.26,.35,.9,.49,1.24,.03,.07,.06,.14,.09,.21-.02,.02-.05,.04-.07,.06-.14,.14-.26,.31-.37,.47-.16,.22-.26,.5-.35,.75-.02,.07-.04,.15-.05,.22-.03,.2-.07,.41-.07,.61,0,.28,.03,.58,.12,.85,.2,.67,.62,1.21,1.2,1.58,.06,.04,.13,.08,.2,.11,.18,.08,.37,.17,.56,.22,.28,.07,.57,.11,.86,.1,.37-.02,.71-.12,1.04-.25,.19,.1,.42,.16,.68,.16,.17,0,.32-.03,.46-.07,1.78,.94,3.98,1.22,5.9,.6,2.2-.71,4.1-2.55,3.46-5.03Z"/>
    <path class="cls-2" d="M48.2,33.01s.03,.05,.03,.06c1.3,2.61,5.43,7.46,5.43,7.46s2.5,3.61,5.07,4.34c.26,.07,.5,.11,.72,.13,.49,.06,1.15-.3,1.04-.9-.47-2.69-3.24-7.07-5.42-9.33-.75-.77-1.95-2.42-4.11-3.69-.59-.35-2.46-1.45-3.05-.89-.45,.43-.16,1.85,.29,2.8Z"/>
    <path class="cls-2" d="M47,47.61s0-.01,0-.01c.21-.6-.38-1.87-.38-1.87s-.11-.89-1.33-1.25c-.13-.04-.25-.06-.37-.09-.26-.05-.78-.04-.94,.08-.72,.55-.74,1.61-.31,2.22,.15,.21,.24,.62,1.02,1.04,.22,.12,.89,.48,1.44,.42,.42-.04,.78-.34,.87-.55Z"/>
    <path class="cls-2" d="M16.76,148.25s.02,.04,.02,.04c.88,1.8,3.7,5.15,3.7,5.15s1.71,2.49,3.47,3c.18,.05,.34,.08,.49,.09,.34,.04,.79-.2,.72-.61-.31-1.85-2.2-4.88-3.69-6.43-.51-.53-1.33-1.67-2.81-2.55-.41-.24-1.69-1.01-2.09-.62-.31,.29-.12,1.27,.19,1.93Z"/>
    <path class="cls-2" d="M62.88,63.6s0,0,0,0c.08-.39-.41-1.13-.41-1.13s-.15-.55-.95-.65c-.08-.01-.16-.02-.24-.02-.17,0-.49,.05-.58,.14-.4,.41-.31,1.07,.01,1.41,.11,.12,.21,.37,.73,.55,.14,.05,.6,.22,.94,.13,.26-.07,.46-.28,.49-.43Z"/>
    <path class="cls-2" d="M63.18,47.75s0,0,0,0c.08-.39-.41-1.13-.41-1.13s-.15-.55-.95-.65c-.08-.01-.16-.02-.24-.02-.17,0-.49,.05-.58,.14-.4,.41-.31,1.07,.01,1.41,.11,.12,.21,.37,.73,.55,.14,.05,.6,.22,.94,.13,.26-.07,.46-.28,.49-.43Z"/>
  </g>
</svg>