<?xml version="1.0" encoding="UTF-8"?>
<svg id="Livello_2" data-name="Livello 2" xmlns="http://www.w3.org/2000/svg" viewBox="0 0 2500 1249">
  <defs>
    <style>
      .cls-1 {
        fill: #9091e3;
      }

      .cls-2 {
        fill: none;
        stroke: #f4f4f4;
        stroke-miterlimit: 10;
      }
    </style>
  </defs>
  <g id="Frame">
    <rect class="cls-2" x=".5" y=".5" width="2499" height="1248"/>
  </g>
  <g id="Livello_3" data-name="Livello 3">
    <path class="cls-1" d="M65.04,127.2c.4-2.19,.13-2.38-.42-15.73-.75-18.31-.6-22.51-.77-29.2-.44-16.48,.42-33.27-11.3-46.3-9.04-10.05-22.58-16.18-28.33-28.96-1.95-4.32-7.8-2.38-9.14,1.19-4.34,11.57-5.65,23.87-6.78,36.09-.61,6.59-1.21,13.21-.74,19.83,.61,8.5,2,13.18,3.06,18.69,.92,4.77,1.25,8.59,1.26,11.92,.04,13.02-1.23,20.37-1.21,28.5,.02,8.77,2.46,28.71,13.49,33.57,13.52,5.96,37.6-11.76,40.89-29.62Z"/>
  </g>
</svg>