<?xml version="1.0" encoding="UTF-8"?>
<svg id="Livello_2" data-name="Livello 2" xmlns="http://www.w3.org/2000/svg" viewBox="0 0 2134.94 255.95">
  <defs>
    <style>
      .cls-1 {
        fill: #8ada51;
      }

      .cls-2 {
        fill: #caea60;
      }

      .cls-3 {
        fill: lime;
        stroke: #000;
        stroke-miterlimit: 10;
      }
    </style>
  </defs>
  <g id="Livello_1-2" data-name="Livello 1">
    <line class="cls-3" x1="603.46" y1="179.58" x2="603.85" y2="179.41"/>
  </g>
  <g id="Livello_5" data-name="Livello 5">
    <path class="cls-1" d="M1814.01,62.49c-.15,0-.27,.02-.4,.06-.09-.25-.24-.47-.45-.63-1.67-4.66-4.41-8.95-3.91-15.1,.22-2.69,.97-4.79,1.43-5.91l-6.23,4.36c1.91,.49-1.71,17.47,1.77,26.63-1.41,.47-1.25,2.91,.5,2.91,.35,0,.64-.1,.87-.27,.91,1.28,2.21,2.35,3.85,1.58,1.71-.81,2.42-3.68,2.69-5.11,.38-2.01,.31-3.82,0-5.53,1.79-.14,1.75-2.99-.14-2.99Z"/>
    <path class="cls-2" d="M1806.39,55.2s0,0,0,0c.35,.06,.79,.63,.79,.63s.4,.27,.22,.89c-.02,.06-.04,.12-.06,.18-.05,.13-.2,.35-.3,.39-.46,.18-.98-.08-1.15-.42-.06-.12-.23-.26-.21-.7,0-.12,.02-.51,.2-.73,.14-.17,.38-.25,.51-.24Z"/>
  </g>
  <g id="Livello_4" data-name="Livello 4">
    <path class="cls-1" d="M512.6,153.47c-1.01-1.02-2.03-2.03-3.04-3.05,1.06-.61,.92-2.52-.43-2.78,.57-2.09,.18-4.56-1.24-6.21-.4-.47-1-.84-1.6-.98-.7-.16-1.37-.1-2.07,.02-.57,.09-1.12,.24-1.67,.42,0-.02,0-.05-.01-.07-.02-.11-.04-.21-.07-.32-.05-.12-.1-.24-.15-.36-.09-.17-.22-.32-.39-.42-.09-.09-.2-.16-.33-.19-.18-.09-.37-.14-.58-.13-.31,0-.62-.02-.93-.03-.38-.01-.8,.18-1.06,.44,0,0-.01,.02-.02,.03-.04-.04-.08-.08-.12-.12-7.18-7.2-14.3-14.49-21.45-21.75,.05-.08,.11-.16,.15-.24,.23-.51,.37-1,.38-1.56,0-.26-.03-.52-.09-.77-.03-.77-.33-1.54-.9-2.07-.1-.09-.2-.16-.32-.23,.62-1.35,.87-2.89,.71-4.34-.2-1.8-.88-3.51-2.34-4.65-1.28-1-2.95-1.49-4.57-1.29-1.7,.2-3.28,1.01-4.46,2.25-.14-.6-.6-1.11-1.4-1.11-.35,0-.63,.1-.86,.26-5.65-5.59-11.36-11.11-17.2-16.48-15.55-14.33-32.74-26.65-53.07-32.86,.38-1.15,.32-2.46-.32-3.5-.18-.29-.41-.59-.67-.81-.37-.31-.7-.5-1.15-.68-.35-.14-.72-.2-1.1-.21-.07-1.72-.43-3.44-1.53-4.81-1.19-1.48-3.15-2.12-4.99-2.13-1.91-.02-4.18,.55-5.47,2.05-.63,.73-1.02,1.55-1.26,2.41-.22-.15-.46-.26-.72-.35-.18-.1-.36-.17-.56-.24-.44-.15-.9-.22-1.37-.26-1-.09-2.01,.23-2.76,.89-.36,.32-.59,.76-.74,1.21-.03,.09-.05,.18-.06,.28-.1-.02-.21-.03-.32-.03-.87,0-1.34,.61-1.43,1.27-16.37-1.93-33.07-1.71-49.47-1.72-12.74,0-25.5,.14-38.2,1.18-8.66,.71-17.29,1.8-25.88,3.12-.08-.68-.55-1.3-1.43-1.3-.35,0-.64,.1-.87,.27-.21-.34-.47-.65-.78-.88-.91-.7-2.05-.87-3.16-.95-.09,0-.18,0-.26,0-.1-.01-.2-.02-.3-.03-.13-.09-.27-.16-.43-.21-1.69-.53-3.69,.26-4.56,1.8-.4,.7-.54,1.52-.46,2.32-.61,.16-.95,.66-1.03,1.22-23.65,4.22-47.07,9.68-70.82,13.4-4.27,.67-7.79,1.15-10.91,1.52-.09-.67-.56-1.27-1.43-1.27-.38,0-.68,.12-.91,.3-.1-.2-.23-.39-.38-.58-.17-.21-.4-.38-.62-.53-.23-.15-.51-.26-.77-.34-.2-.05-.4-.07-.6-.09-.08,0-.16-.01-.24,0-.45,.03-.76,.13-1.17,.32-.28,.13-.53,.33-.75,.53-.22,.2-.41,.45-.58,.7-.12,.18-.22,.37-.31,.57-.14,.31-.26,.62-.35,.95-.02,.07-.03,.15-.04,.23-11.87,.87-21.22,.42-57.69,4.29-5.89,.63-11.14,1.27-15.86,1.93-.22-.42-.64-.73-1.26-.73-.29,0-.53,.07-.73,.19-.25-.42-.62-.79-1.02-1.02-.69-.39-1.47-.49-2.24-.33-.67,.14-1.33,.58-1.76,1.1-.09,.11-.16,.23-.23,.34-.15-.87-.49-1.69-1.08-2.43-.92-1.15-2.35-1.74-3.79-1.86-2.72-.22-5.05,1.62-6,4.07-.3,.76-.41,1.6-.37,2.43-.96,.09-1.39,.97-1.27,1.75-13.44,3.05-20.64,6.46-28.9,10.28-8.74,4.04-15.8,9.54-20.88,15.19-.06-.09-.13-.17-.2-.25-.08-.1-.19-.17-.29-.25-.25-.2-.51-.34-.83-.43-.18-.05-.38-.07-.57-.09-.19-.01-.39,.03-.58,.06-.07,.01-.14,.03-.2,.05-.18,.06-.37,.14-.53,.24-.16,.1-.32,.22-.46,.35-.06,.05-.11,.11-.16,.17-.36,.43-.65,.91-.75,1.47-.06,.33-.1,.66-.09,1,0,.23,.03,.46,.05,.7,0,.17,.03,.33,.09,.48-.84,.53-.88,1.91-.1,2.5-4.94,7.61-6.02,14.68-2.45,17.94,1.49,1.36,5.57,1.88,14.29,1.48,1.06-.05,2.12-.11,3.18-.17-.32,.88,.13,2.07,1.35,2.07,.53,0,.91-.23,1.15-.56,.17,.82,.49,1.6,1.27,2.02,.91,.49,1.91,.33,2.88,.11,.69-.16,1.36-.36,2.03-.6,.04,.05,.07,.1,.11,.15,.98,1.22,2.52,1.9,4.02,2.21,1.4,.29,2.92,.41,4.31,0,1.56-.46,2.7-1.55,3.33-3.04,.31-.73,.61-1.59,.71-2.44,1.38-.01,1.76-1.57,1.14-2.43,7.14-1.4,14.13-3.53,20.6-6.92,2.36-1.24,4.62-2.64,6.78-4.2,2.25-1.63,4.47-3.52,7.09-4.53,5.41-2.07,12.12,.77,17.6,1.61,14.91,2.3,30.22,1.77,44.95-1.43,.12,.63,.59,1.19,1.42,1.19,.24,0,.46-.05,.64-.13,.06,.19,.13,.38,.24,.56,.27,.48,.65,.85,1.09,1.18,.77,.57,1.89,.79,2.81,.49,.49-.17,.93-.42,1.3-.79,.38-.38,.62-.81,.81-1.3,.11-.29,.16-.6,.18-.91,.02,0,.04,0,.06,0,1.56,0,1.86-1.96,.9-2.71,3.01-.91,5.99-1.91,8.93-3.05,5.06-1.96,10-4.25,14.76-6.87,4.8-2.64,9.24-6.34,14.3-8.44,5.85-2.43,12.21-.95,18.2,.12,1.7,.3,3.4,.59,5.11,.86-.02,.06-.04,.13-.06,.19-.47,1.8,.29,3.75,1.93,4.67,.44,.25,.91,.41,1.4,.48-.78,.83-.43,2.57,1.04,2.57,.28,0,.51-.07,.7-.17,.57,2.59,1.7,4.97,3.84,6.76,2.12,1.78,4.92,2.84,7.7,2.58,3.01-.28,5.49-2.01,7.2-4.45,1.02-1.46,1.68-3.13,2-4.86,1.18-.1,2.26-.99,2.75-2.04,.27-.59,.43-1.18,.55-1.81,0-.05,.02-.1,.03-.15,.09,.02,.19,.03,.3,.03,.85,0,1.33-.59,1.43-1.24,1.15-.02,2.29-.06,3.44-.11,.02,.21,.07,.43,.19,.63,.4,.73,.95,1.36,1.65,1.83,.79,.54,1.75,.67,2.67,.52,.85-.14,1.68-.74,2.05-1.52,.08-.17,.14-.35,.19-.53,.23,.17,.52,.27,.88,.27,1.17,0,1.63-1.1,1.38-1.96,6.19-.8,12.27-2.19,18.11-4.34,.07,.17,.17,.33,.31,.44,.66,.55,1.34,1.06,2.18,1.33,.84,.27,1.86,.16,2.59-.34,.7-.48,1.11-1.13,1.41-1.91,.11-.28,.18-.58,.23-.87,.1,.02,.2,.03,.32,.03,1.35,0,1.75-1.46,1.22-2.34,.93-.48,1.85-.98,2.76-1.51,4.5-2.65,9.71-6.98,15.26-6.41,5.51,.57,7.57,6.38,9.72,10.66,.68,1.35,1.45,2.64,2.28,3.9-.02,.03-.04,.06-.06,.09-1.56,3.24-2.07,7.28,.05,10.41,1.92,2.84,5.35,4.23,8.58,2.8,.1-.05,.2-.11,.3-.16,.03,.05,.06,.09,.1,.13,.93,1.12,2.6,1.48,3.92,.92,.39-.16,.74-.41,1.04-.71,.38,.24,.76,.49,1.14,.71,7.35,4.26,15.86,6.6,24.36,6.58,4.22-.01,8.48-.61,12.52-1.86,7-2.16,8.73-4.97,14.05-6.03,5.83-1.16,11.63,.55,14.55,2.24,5.53,3.2,8.32,10.74,9.85,20.32-.18-.08-.39-.13-.63-.13-1.47,0-1.82,1.73-1.05,2.57-.06,.05-.12,.08-.18,.13-.19,.15-.32,.35-.47,.54-.08,.1-.15,.21-.2,.33-.22,.47-.34,.88-.37,1.4-.02,.5,.11,.98,.33,1.43,.34,.7,1.1,1.26,1.87,1.38,.06,0,.11,.01,.17,.02,.08,.68,.55,1.3,1.43,1.3,.05,0,.1-.01,.15-.02,1.48,17.46,.65,38.7,3.92,53.76,1.21,5.58,2.72,8.71,6.07,14.8,2.11,3.83,5.32,8.53,9.57,10.19,1.09,.43,2.87,.84,4.38,.2,2.46-1.05,3.76-4.94,3.81-10.53,.93-.56,.91-2.12-.06-2.63-.16-2.95-.61-6.24-1.37-9.78-2.5-5.74-5.99-14.9-8.66-24.49,1.31-.17,1.57-1.84,.77-2.6,.07-.07,.14-.14,.21-.24,.19-.25,.31-.48,.42-.79,.04-.12,.07-.23,.09-.36,.04-.24,.08-.48,.07-.72,0-.33-.06-.69-.17-1-.11-.31-.24-.62-.44-.88-.2-.27-.4-.54-.66-.75-.16-.13-.33-.27-.51-.38-.19-.12-.41-.2-.61-.29-.19-.08-.4-.12-.61-.15,.44-.83,.09-2.1-1.04-2.25-2.7-13.94-2.26-26.51,6.96-28.37,1.06-.21,2.58-.92,4.24-.75,7.55,.76,11.58,6.72,15.22,12.71-1.01,1.31-1.51,3.02-.84,4.6,.33,.78,.88,1.49,1.64,1.89,.66,.35,1.41,.47,2.14,.35,.15,.58,.61,1.08,1.39,1.08,.28,0,.51-.07,.71-.17,2.19,2.81,4.81,5.28,8.16,6.66,5.01,2.05,10.42,1.08,15.67,1.54,6.29,.55,9.76,5.24,14.96,8.11,.04,.02,.08,.04,.12,.06-.21,1.68,.27,3.39,1.66,4.46,1.42,1.1,3.6,1.16,4.87-.22,.22,.42,.64,.73,1.26,.73,.96,0,1.45-.75,1.45-1.5,1.78,.45,3.59,.8,5.4,1.1,5.55,.9,20.71,4.04,20.41-5.83-.15-4.94-5.55-8.84-8.69-12Z"/>
    <path class="cls-2" d="M406.87,190.57c.01,.06,.02,.1,.03,.12,1.14,4.9,6.12,14.73,6.12,14.73s2.75,7.08,6.78,9.34c.41,.23,.79,.38,1.15,.51,.8,.29,2.05-.04,2.11-1.09,.29-4.71-2.6-13.19-5.36-17.87-.94-1.6-2.31-4.85-5.42-7.85-.86-.83-3.55-3.43-4.77-2.72-.93,.54-1.02,3.05-.64,4.82Z"/>
    <path class="cls-2" d="M13.55,117.88c.09-.03,.16-.05,.2-.06,8.1-2.5,24.02-12.05,24.02-12.05s11.57-5.47,14.88-12.51c.34-.72,.55-1.38,.73-2,.39-1.38-.32-3.44-2.08-3.42-7.94,.08-21.86,5.96-29.38,11.16-2.57,1.78-7.87,4.47-12.54,10.05-1.29,1.54-5.33,6.38-4,8.34,1.02,1.5,5.25,1.35,8.18,.49Z"/>
    <path class="cls-1" d="M674.91,113.22c-.9-2.72-2.45-5.13-4.19-7.35,.48-.68,.35-1.77-.4-2.21,.02-.12,.04-.24,.05-.36,.01-.4-.11-.75-.27-1.09-.03-.06-.06-.11-.1-.17-.11-.15-.22-.31-.36-.44-.31-.28-.58-.43-.96-.58-.06-.02-.13-.05-.19-.06-.2-.04-.4-.07-.6-.08-.22,0-.44,.04-.65,.07-.09,.01-.18,.04-.27,.07-.1,.03-.19,.09-.29,.13-3.24-3.62-5.96-6.82-5.31-10.25,.27-1.44,1.1-2.62,2.64-4.43,.53,0,.91-.24,1.15-.57,.02,0,.03,.02,.05,.02,.06,.02,.12,.04,.18,.05,.42,.07,.69,.07,1.11,0,.24-.04,.48-.15,.7-.26,.23-.11,.42-.27,.61-.43,.05-.04,.09-.09,.13-.13,.12-.14,.24-.29,.34-.44,.1-.16,.16-.35,.23-.52,.04-.09,.07-.19,.09-.28,.06-.3,.11-.62,.09-.93-.02-.38-.09-.76-.18-1.13,2.08-1.75,3.48-2.56,3.59-4.31,.07-1.05-.36-2.02-.95-2.84,.29-.88-.17-2.03-1.36-2.03-.19,0-.36,.04-.52,.09-.55-.43-.98-.7-1.06-.75-1.76-1.06-3.41-1.11-6.07-1.18-.08-.67-.56-1.29-1.43-1.29-.11,0-.21,.01-.3,.03-.06-.15-.12-.3-.19-.44-.13-.26-.32-.51-.55-.7-.32-.27-.68-.51-1.1-.6-.46-.1-.87-.09-1.33,0-.1,.02-.19,.05-.28,.09-.2,.08-.42,.16-.6,.28-.28,.18-.55,.39-.76,.65-.23,.28-.44,.57-.6,.9-.13,.27-.24,.56-.34,.84-1.42-.04-2.84-.09-4.26-.13-4.83-.15-9.66-.3-14.49-.46,.06-.65-.07-1.33-.42-1.88-.25-.4-.55-.7-.94-.97-.18-.13-.4-.21-.61-.29-.12-.05-.24-.08-.36-.1-.48-.07-.91-.09-1.38,.05-.46,.13-.82,.35-1.19,.64-.38,.3-.63,.71-.79,1.14-.72,.08-1.14,.59-1.24,1.18-6.64-.18-13.52-.07-19.49,3.18-1.29,.7-2.5,1.55-3.59,2.52,0,0,0-.02-.01-.02,0-.01,0-.02-.02-.03-.03-.05-.13-.17-.13-.17-.02-.02-.09-.12-.13-.17-.09-.09-.23-.2-.34-.26-.02,0-.03-.02-.05-.03-.12-.06-.28-.13-.4-.17-.03,0-.05-.01-.08-.02-.17-.03-.35-.07-.52-.06-.18,0-.36,.03-.53,.07-.16,.04-.33,.12-.48,.19-.1,.05-.18,.12-.27,.19-.15,.12-.29,.23-.41,.38-.16,.2-.32,.39-.42,.62-.1,.22-.21,.45-.26,.69-.06,.24-.09,.5-.1,.75,0,.38,.07,.75,.2,1.1-.76,.45-.89,1.57-.39,2.25-1.12,1.93-1.96,4.03-2.44,6.21-.05,.22-.05,.41-.01,.59-.15,.17-2.41,2.85-1.4,6.24,.72,2.43,2.84,4.24,5.42,4.63,.41,4.68,.49,8.54,.39,11.73-.21-.03-.41-.03-.62,.02-.12,.05-.24,.1-.36,.15-.23,.13-.4,.31-.54,.54-.15,.29-.28,.6-.36,.92-.03,.1-.05,.19-.06,.29-.04,.23-.07,.46-.09,.7,0,.21,.04,.4,.13,.58,.06,.19,.16,.35,.31,.48l.28,.22c-.23,.74,.07,1.65,.88,1.92-.02,.16-.04,.32-.06,.47-.16,1.26-.52,3.64,.89,5.22,1.69,1.89,5.54,2.17,7.16,.47,1.12-1.17,.93-3.02,.8-4.08-1.33-10.8-6.4-15.77-4.5-19.23,1.94-3.54,8.76-1.08,13.79-6.92,.87-1.01,1.42-1.96,1.73-2.55,2.08,.79,4.25,1.29,6.45,1.51,.04,.09,.08,.18,.12,.28,.13,.23,.31,.4,.54,.54,.36,.23,.76,.31,1.17,.34,.2,.01,.44-.03,.62-.06,.08-.01,.16-.03,.23-.06,.18-.07,.38-.14,.55-.25,.09-.06,.17-.14,.26-.21,.2,.11,.43,.17,.71,.17,.66,0,1.08-.35,1.29-.81,3.03-.35,6-1.25,8.73-2.68,1.66-.87,3.09-2,4.62-3.06,1.21-.84,3.4-1.8,3.95,.22,.5,1.87,.93,2.31,1.55,2.87,.54,.5,1.13,.61,1.33,.68,3.15,1.05,.24,21.61,7.63,31.71,.87,1.18,3.13,4.19,6.41,4.4,.6,.04,2.99,.11,4.67-1.57,.61-.61,1-1.3,1.3-2.09,1.34-3.62,.08-7.58-.1-8.15Z"/>
    <path class="cls-2" d="M660.21,110.4s0,.05,.01,.06c.49,2.42,2.81,7.31,2.81,7.31s1.26,3.51,3.2,4.67c.2,.12,.38,.2,.56,.27,.39,.15,1.01,0,1.05-.51,.2-2.31-1.1-6.51-2.4-8.84-.44-.8-1.07-2.41-2.56-3.93-.41-.42-1.7-1.73-2.3-1.4-.47,.25-.54,1.48-.38,2.36Z"/>
    <path class="cls-2" d="M608.74,77.31s.03,0,.03,0c1.4-.37,4.18-1.9,4.18-1.9s2.01-.86,2.62-2.04c.06-.12,.1-.23,.14-.34,.08-.23-.03-.59-.33-.6-1.36-.04-3.77,.87-5.08,1.71-.45,.29-1.37,.71-2.2,1.63-.23,.25-.95,1.05-.74,1.4,.16,.26,.89,.26,1.39,.14Z"/>
    <path class="cls-2" d="M617.12,74.91s.02,0,.02,0c.91-.01,2.84-.52,2.84-.52s1.36-.22,1.91-.84c.06-.06,.1-.13,.13-.18,.08-.13,.07-.36-.11-.42-.82-.23-2.43-.04-3.37,.27-.32,.11-.95,.22-1.6,.66-.18,.12-.74,.5-.66,.74,.06,.19,.5,.3,.83,.3Z"/>
    <path class="cls-2" d="M349.99,64.37c.09,.03,.15,.05,.18,.06,7.64,2.36,25.11,3.38,25.11,3.38s11.92,1.89,18.24-1.83c.65-.38,1.16-.78,1.63-1.17,1.04-.86,1.58-2.84,.19-3.77-6.23-4.16-20.19-6.98-28.81-6.93-2.95,.02-8.5-.71-15.11,1.16-1.82,.51-7.55,2.13-7.55,4.37,0,1.72,3.37,3.84,6.11,4.73Z"/>
    <path class="cls-2" d="M397.66,67.05s0,.03,0,.03c.18,1.41,2.5,3.47,2.5,3.47s1.07,1.72,3.67,1.4c.27-.03,.52-.09,.76-.14,.54-.12,1.48-.58,1.66-.97,.82-1.73-.17-3.91-1.55-4.78-.47-.3-1.04-1.06-2.89-1.25-.51-.05-2.12-.22-3.08,.37-.74,.45-1.13,1.35-1.08,1.87Z"/>
    <path class="cls-2" d="M405.85,180.08s0,.02,0,.02c-.2,.84,.68,2.51,.68,2.51s.24,1.21,1.79,1.58c.16,.04,.46,.08,.46,.08,0,0,.97-.01,1.15-.19,.84-.81,1.68-1.9,1.08-2.7-.21-.27-1.3-1.18-2.31-1.68-.28-.14-1.16-.58-1.83-.45-.52,.1-.93,.53-1.02,.83Z"/>
    <path class="cls-2" d="M155.98,93.23c-.09,0-.16,0-.19,0-7.98,.39-24.75,5.4-24.75,5.4s-11.84,2.3-16.51,7.95c-.48,.58-.82,1.13-1.13,1.66-.68,1.17-.51,3.21,1.11,3.61,7.28,1.78,21.36-.34,29.44-3.33,2.77-1.03,8.23-2.24,13.8-6.25,1.54-1.11,6.36-4.58,5.6-6.68-.58-1.61-4.48-2.45-7.36-2.36Z"/>
    <path class="cls-2" d="M110.13,110.07s0-.02,0-.02c-.43-.9-2.43-1.79-2.43-1.79s-1.09-.92-2.77-.14c-.17,.08-.33,.17-.48,.26-.34,.2-.87,.71-.91,1.01-.17,1.34,.96,2.59,2.08,2.87,.38,.1,.93,.49,2.21,.21,.35-.08,1.47-.31,1.99-.92,.4-.46,.46-1.15,.32-1.49Z"/>
    <path class="cls-2" d="M61.53,86.91s0-.02-.01-.02c-.45-.8-2.38-1.36-2.38-1.36s-1.07-.73-2.62,.26c-.16,.1-.3,.21-.44,.32-.31,.24-.78,.8-.8,1.09-.1,1.3,1.03,2.34,2.1,2.45,.37,.04,.9,.33,2.09-.11,.33-.12,1.37-.51,1.83-1.15,.36-.5,.38-1.17,.23-1.47Z"/>
    <g>
      <path class="cls-1" d="M819.83,171.42c0-.11,0-.08,0,0h0Z"/>
      <path class="cls-1" d="M874.53,181.15c-3.08-1.65-6.09-3.42-9.06-5.26,.49-.89,.07-2.29-1.25-2.29-.03,0-.05,0-.07,0,0,0,0,0,0,0-.03-.57-.17-1.1-.44-1.6-.13-.24-.31-.46-.49-.66-.19-.2-.42-.38-.65-.52-.23-.15-.49-.25-.75-.34-.27-.09-.56-.12-.84-.15-.3-.03-.59,.02-.89,.06-.3,.05-.58,.17-.86,.3-.27,.12-.5,.44-.63,.73-8.9-6.07-17.34-12.79-25.68-19.6,.27-.84-.14-1.93-1.24-2.01,0-.05,0-.09-.02-.14,0-.03-.02-.07-.03-.1-.05-.13-.11-.27-.17-.39,0-.01-.01-.03-.02-.04-.02-.03-.03-.06-.06-.09-.08-.11-.17-.22-.25-.33-.01-.01-.02-.03-.03-.04-.02-.03-.05-.05-.07-.07-.12-.1-.24-.2-.37-.28-.08-.05-.18-.08-.27-.12-.09-.04-.18-.08-.27-.11-.09-.02-.2-.03-.29-.04-.14-.02-.27-.04-.4-.02-.16,.02-.34,.03-.5,.08-.13,.04-.25,.09-.36,.15-8.24-6.76-16.53-13.57-25.16-19.86,.59-.79,.33-2.18-.79-2.42,.75-1.59,.6-3.56-.84-4.88-1.04-.95-2.53-1.33-3.86-.8-.27,.11-.52,.25-.75,.41-.09-.07-.18-.13-.27-.19-.63-.38-1.28-.46-1.92-.36-.16-.2-.34-.4-.56-.56-1.08-.82-2.45-.65-3.68-.32-.17,.04-.31,.12-.45,.22-5.14-3.2-10.44-6.14-15.96-8.7-3.09-1.44-6.28-2.74-9.52-3.92,.07-.33,.14-.65,.17-.99,.02-.18,.01-.36,0-.54-.02-.19-.04-.41-.1-.61-.05-.18-.14-.36-.21-.53-.21-.47-.58-.83-.99-1.13-.21-.15-.46-.25-.7-.33-.14-.04-.29-.06-.44-.07,0,0,0,0,0,0-.25-1.21-1.21-2.16-2.44-2.35-1.18-.18-2.32-.01-3.4,.48-1.04,.48-1.8,1.36-2.23,2.4-.06,.15-.09,.31-.13,.47-13.25-3.32-27.17-4-40.32-.53-.24-.32-.61-.54-1.13-.54-.25,0-.46,.05-.65,.14l-.11-.09c-.23-.14-.49-.2-.76-.2-.43-.04-.87-.09-1.31-.05-.62,.06-1.27,.18-1.8,.54-.46,.31-.89,.72-1.13,1.24-.19,.4-.28,.7-.31,1.15,0,.08,0,.16,.02,.24-3.16,1.7-6.8,5.43-3.57,8.61,.01,.01,.03,.02,.04,.03-.45,1.96-.02,4.16,1.23,5.84,.76,1.02,1.77,1.75,2.92,2.11-.08,.8,.39,1.68,1.43,1.68,.52,0,.9-.23,1.14-.55,.11,.22,.23,.44,.38,.63,.31,.4,.69,.76,1.16,.98,.25,.11,.5,.23,.77,.28,.45,.08,.79,.08,1.24,0,.98-.16,1.91-.94,2.31-1.83,.11-.26,.22-.5,.27-.78,.08-.45,.08-.78,0-1.23-.04-.24-.13-.47-.25-.69,.29-.05,.58-.08,.88-.1,2.47-.1,4.26,2.42,6.08,3.75,.35,.26,.72,.49,1.09,.72-.13,.15-.23,.34-.28,.55-.26,1.1-.5,2.38-.1,3.48,.27,.77,.73,1.39,1.42,1.85,.6,.4,1.37,.57,2.08,.58,1.43,.02,2.95-.78,3.3-2.26,.23,.18,.53,.29,.9,.29,.96,0,1.44-.74,1.45-1.48,1.58,.17,3.19,.19,4.77-.02,2.79-.36,5.37-1.43,8.04-2.25,2.58-.79,5.31-1.26,7.81,.06,1.53,.81,2.8,2.02,3.99,3.29-.04,.13-.07,.27-.07,.42,0,.3,.05,.61,.11,.9,.06,.28,.18,.54,.29,.81,.07,.16,.15,.31,.24,.45,.16,.24,.33,.47,.53,.67,.31,.32,.72,.58,1.18,.56,.2,0,.4-.05,.58-.12,.01,0,.03-.01,.04-.02,.14,.59,.6,1.1,1.4,1.1,.14,0,.26-.02,.38-.05,.78,.64,1.62,1.21,2.48,1.7-.37,.89,.06,2.15,1.32,2.15,.69,0,1.11-.39,1.31-.87,.17,.07,.37,.11,.59,.11s.42-.04,.59-.11c1.07,.11,2.18,0,3.29-.39,1.12-.4,2.03-1.11,3.02-1.73,1.14-.7,1.89-.84,2.24,.65,.7,2.98,.38,6.41,.16,9.43-.29,3.97-.7,7.93-1.06,11.89-.1,0-.19,.03-.28,.06-.76,.32-1.44,.73-1.96,1.38-.5,.63-.9,1.35-1.03,2.16-.14,.9-.08,1.78,.38,2.59,.28,.49,.73,.92,1.25,1.16-.73,.8-.43,2.43,.91,2.54-1.3,24.34,.19,48.81,4.4,72.82,.87,4.96,1.85,11.04,5.98,14.44,1.76,1.45,4.07,2.46,6.38,2.09,2.36-.38,3.91-2.26,4.5-4.49,1.47-5.55,.15-11.91-1.33-17.31-1.61-5.86-3.72-11.57-5.19-17.47-1.01-4.07-1.82-8.19-2.48-12.32,1.08-.23,1.36-1.52,.86-2.32,.05-.04,.11-.06,.17-.11,.3-.23,.57-.52,.74-.87,.36-.72,.46-1.55,.19-2.32-.25-.72-.68-1.31-1.19-1.87-.25-.27-.51-.51-.81-.72-.34-.24-.73-.37-1.14-.42-.57-5.2-.95-10.43-1.17-15.66-.26-6.14-.33-12.28-.3-18.42,.01-2.76-.05-5.53,.14-8.28,.15-2.17,.51-4.47,1.68-6.34,1.16-1.87,3.21-2.79,5.39-2.46,2.66,.4,4.73,2.28,6.06,4.53,2.33,3.9,2.51,8.9,5.76,12.29,1.34,1.4,3.16,2.15,5.1,1.82,1.2-.21,2.2-.86,3.31-1.31,1.41-.58,1.92,.21,2.65,1.36,.51,.81,1.02,1.62,1.53,2.43-.14,.05-.29,.11-.42,.17-.08,.04-.15,.08-.22,.13-.36,.26-.6,.5-.85,.86-.05,.07-.09,.14-.12,.21-.09,.18-.18,.37-.23,.57-.18,.69-.08,1.41,.27,2.03,.1,.17,.23,.32,.35,.48,.05,.07,.11,.13,.18,.19,.21,.19,.45,.38,.71,.51,.22,.11,.46,.21,.7,.27-.03,.34-.02,.69,.04,1.04,.18,1.06,.91,2.06,1.69,2.77,.78,.71,1.75,1.31,2.79,1.56,.75,.18,1.51,.16,2.2-.19,.12-.06,.23-.14,.35-.23,.19,.21,.37,.42,.57,.62,2.71,2.8,5.87,4.96,9.28,6.71-.39,.89,.05,2.16,1.31,2.16,.37,0,.66-.11,.88-.29,.18,.08,.4,.13,.64,.13,.38,0,.68-.12,.91-.3,5.03,2.07,10.4,3.44,15.6,4.66,2.82,.67,5.44,.87,8.04-.58,1.42-.79,2.31-.48,3.67,.31,.62,.36,1.24,.71,1.87,1.04-.11,.14-.19,.3-.22,.46-.03,.2-.07,.4-.07,.6,0,.21,.04,.43,.07,.63,.05,.27,.17,.54,.29,.79,.13,.25,.31,.48,.5,.68,.19,.21,.43,.39,.67,.53,.24,.13,.51,.26,.78,.31,.46,.08,.78,.08,1.24,0,.28-.05,.56-.17,.8-.3,.25-.13,.49-.32,.7-.52,.16,.06,.34,.1,.54,.1,.75,0,1.2-.45,1.37-1,1.23,.23,2.47,.36,3.71,.39,2.17,.04,4.98-.06,6.25-2.14,3.04-5-5.78-8.17-8.8-9.78Z"/>
    </g>
    <path class="cls-2" d="M790.85,248.64s0-.08,0-.1c-.27-3.96-2.91-12.22-2.91-12.22s-1.25-5.85-4.1-8.11c-.29-.23-.57-.4-.83-.54-.59-.33-1.6-.22-1.78,.58-.81,3.62,.37,10.59,1.93,14.57,.53,1.36,1.19,4.06,3.23,6.79,.56,.75,2.33,3.11,3.37,2.72,.79-.3,1.17-2.24,1.1-3.67Z"/>
    <path class="cls-2" d="M781.33,223.8s.01,0,.02,0c.65-.27,1.33-1.65,1.33-1.65s.68-.74,.18-1.94c-.05-.12-.11-.24-.17-.35-.13-.24-.47-.63-.68-.67-.94-.16-1.85,.6-2.08,1.37-.08,.27-.37,.64-.22,1.55,.04,.25,.18,1.04,.58,1.43,.31,.3,.8,.36,1.04,.27Z"/>
    <path class="cls-2" d="M718.39,108.59s.08,.02,.09,.02c3.9,.73,12.56,.24,12.56,.24s5.98,.25,8.88-1.94c.3-.23,.53-.45,.74-.67,.46-.49,.62-1.49-.12-1.87-3.31-1.69-10.34-2.29-14.59-1.77-1.45,.18-4.23,.14-7.38,1.43-.87,.36-3.6,1.48-3.47,2.58,.1,.85,1.88,1.7,3.28,1.98Z"/>
    <path class="cls-2" d="M742.71,106.87s0,.01,.01,.01c.5,.5,2.03,.61,2.03,.61s.94,.35,1.87-.56c.1-.09,.18-.19,.26-.29,.18-.21,.4-.68,.36-.88-.2-.93-1.25-1.48-2.06-1.41-.28,.03-.73-.1-1.51,.38-.22,.13-.9,.56-1.1,1.08-.16,.4-.03,.87,.14,1.06Z"/>
    <path class="cls-2" d="M840.51,167.58s.05,.05,.06,.06c2.52,2.52,9.19,6.55,9.19,6.55s4.3,3.22,7.57,3.07c.33-.02,.62-.07,.89-.12,.59-.12,1.21-.79,.86-1.44-1.59-2.93-6.5-6.95-9.91-8.72-1.17-.61-3.2-2.05-6.19-2.68-.82-.18-3.42-.73-3.88,.15-.36,.68,.53,2.21,1.42,3.14Z"/>
    <path class="cls-2" d="M859.93,177.64s0,.01,0,.01c.14,.61,1.26,1.43,1.26,1.43s.55,.72,1.69,.46c.12-.03,.23-.06,.33-.1,.23-.08,.63-.32,.69-.5,.28-.8-.25-1.73-.9-2.05-.22-.11-.51-.42-1.34-.43-.23,0-.95,0-1.35,.3-.31,.23-.44,.65-.4,.88Z"/>
    <path class="cls-2" d="M661.31,106.48s0,0,0,0c.15-.41-.18-1.3-.18-1.3,0,0-.04-.62-.8-.9-.08-.03-.15-.05-.23-.07-.16-.04-.48-.05-.59,.02-.47,.35-.51,1.08-.26,1.52,.09,.15,.13,.44,.6,.75,.13,.09,.54,.36,.89,.34,.27-.02,.5-.21,.56-.35Z"/>
    <path class="cls-1" d="M1000.35,105.91s-.03,0-.05,0c.04-.15,.06-.31,.08-.51,0-.04,0-.08,0-.12-.01-.17-.04-.35-.07-.52-.02-.09-.04-.18-.07-.26-.07-.25-.2-.47-.39-.66-.19-.19-.41-.31-.66-.39-.17-.03-.35-.07-.52-.06-.15,.01-.31,.03-.45,.06-.02,0-.04,.01-.06,.02-.15,.06-.33,.11-.47,.21-.14,.09-.28,.19-.4,.32-.12,.12-.22,.26-.31,.4-.01,.02-.02,.04-.03,.06,0,.01-.01,.03-.02,.04,0,0,0,.01-.01,.02-.07,.12-.12,.25-.15,.38-.05,0-.09-.01-.14-.01-.94,0-1.42,.72-1.44,1.45-2,.64-4.39,1.55-9.09,1.58-.18-.54-.63-.97-1.36-.97-.16,0-.3,.03-.43,.06-.06-.09-.12-.18-.2-.26-.22-.21-.48-.37-.78-.45-.3-.08-.64-.09-.94,0-.15,.04-.29,.1-.42,.18-.01,0-.02,.01-.03,.02-.09,.07-.22,.17-.31,.24,0,0-.01,.01-.02,.02,0,0-.02,.02-.03,.03-.09,.1-.17,.22-.26,.33-.02,.02-.03,.05-.04,.07-.06,.13-.12,.26-.17,.4,0,0,0,.02,0,.02-1.58-.19-3.4-.4-6.98-.47-.96-.02-1.84-.02-2.67-.02-.15-.59-.61-1.08-1.39-1.08-.12,0-.23,.01-.33,.03-.2-.48-.63-.85-1.31-.85-.86,0-1.32,.59-1.42,1.25-.6,.07-.99,.44-1.15,.91-.43,.04-.84,.08-1.22,.12-2.31,.26-4.27,.63-6.41,1.03-4.32,.82-8.56,2.43-11.82,5.42-.42-.3-.84-.6-1.26-.9-.53-.38-1.36-.3-1.83,.14-1.02,.97-1.91,2.06-2.65,3.23-.23-.18-.53-.3-.91-.3-1.39,0-1.77,1.54-1.17,2.41-.42,.6-.36,1.52,.17,2.03-.02,.07-.05,.14-.07,.21-.25-.14-1.06-.55-2.01-.31,0,0-.92,.23-1.5,1.03-1.2,1.66,.26,6.52,3.64,8.21,.52,.26,1.06,.43,1.62,.53,.18,.52,.63,.93,1.35,.93,.67,0,1.1-.37,1.3-.84,.07,0,.13,.02,.2,.02,.43,0,.75-.15,.99-.38,2.19-.65,4.1-2.06,4.82-3.65,1.4-3.08,2.01-5.8,2.01-5.8,.4-2.12,2.44-2.26,4.23-1.85,.35,.08,.68,.19,1.02,.3-.03,.77,.45,1.56,1.44,1.56,.11,0,.22-.01,.32-.03,.06,.1,.14,.2,.25,.33,.02,.02,.04,.04,.06,.06,.11,.09,.23,.2,.36,.27,.32,.18,.53,.22,.9,.25,.03,0,.05,0,.08,0,.05,0,.33-.03,.47-.07,.15-.05,.29-.11,.42-.18,.08-.04,.15-.11,.22-.16,.06-.05,.15-.1,.21-.17,.04-.04,.06-.09,.1-.13,.42,.1,.85,.18,1.3,.21,2.29,.15,4.11-.94,5.83-2.31,.73-.58,1.45-1.23,2.3-1.63,1.08-.51,2.19-.35,3.32-.08,2.23,.55,4.4,1.17,6.6,.16,1.57-.72,1.51-1.41,2.83-1.61,2.28-.34,4.39,1.81,4.99,2.47,.22,.25,.4,.49,.56,.72-.39,.47-.46,1.18-.2,1.73-.82,.81-.49,2.6,1.01,2.6,.3,0,.55-.08,.76-.2,.19,.38,.46,.76,.87,1.16,1.82,1.74,4.95,2.33,7.32,1.67,1.79-.49,2.15-.99,3.43-1.27,.25-.06,3.57,1.72,3.83,4.36,.16,1.66-.92,2.77-3.59,6.18-1.45,1.84-2.77,3.77-3.98,5.78-2.44,4.06-4.4,8.43-5.83,12.95-.29,.92-.55,1.85-.8,2.79-.13-.03-.26-.06-.42-.06-1.4,0-1.78,1.57-1.15,2.44-.52,.72-.35,1.93,.53,2.32-1.46,8-1.37,16.28,.44,24.22,.15,.66,.73,1.12,1.39,1.17,1.84,.13,4.07-1.2,5.24-2.87,1.91-2.74,1.43-6.15,1.31-7.11-.96-7.65-.34-29.81,8.64-43.32,.1,.02,.21,.03,.33,.03,1,0,1.48-.8,1.44-1.58,.04,0,.08,.01,.12,.01,1.46,0,1.82-1.72,1.06-2.56,1.6-2.15,2.5-3.54,2.68-6.17,.5-7.09-5.77-15.48-13-17Z"/>
    <path class="cls-2" d="M953.27,112.64s.03,0,.03,0c1.42-.04,4.43-.86,4.43-.86s2.12-.36,2.97-1.35c.09-.1,.15-.2,.21-.29,.13-.21,.1-.57-.18-.65-1.29-.35-3.8-.03-5.26,.47-.5,.17-1.48,.37-2.48,1.06-.28,.19-1.15,.79-1.03,1.17,.1,.29,.79,.46,1.3,.45Z"/>
    <path class="cls-2" d="M961.94,109.59s0,0,0,0c.16,.09,.54,.02,.54,.02,0,0,.26,.03,.43-.25,.02-.03,.03-.06,.05-.09,.03-.06,.06-.19,.03-.24-.11-.21-.41-.28-.6-.21-.07,.02-.19,.02-.35,.19-.04,.05-.19,.19-.2,.33-.01,.11,.05,.21,.1,.25Z"/>
    <path class="cls-2" d="M995.33,182.55s0-.05,.01-.06c.43-2.59,0-8.32,0-8.32s.09-3.96-1.4-5.86c-.15-.19-.31-.34-.45-.48-.33-.3-.99-.39-1.23,.1-1.08,2.21-1.39,6.88-.99,9.68,.14,.96,.14,2.8,1.04,4.87,.25,.57,1.03,2.36,1.75,2.27,.56-.07,1.1-1.27,1.27-2.2Z"/>
    <path class="cls-2" d="M993.05,166.59s0,0,0,0c.31-.35,.32-1.37,.32-1.37s.2-.64-.45-1.21c-.07-.06-.13-.11-.2-.16-.15-.11-.46-.24-.6-.2-.6,.17-.93,.89-.85,1.42,.03,.18-.04,.49,.32,.98,.1,.14,.4,.57,.76,.68,.27,.09,.58-.01,.7-.14Z"/>
    <path class="cls-2" d="M1000.88,110.14s.02,.03,.03,.04c1.2,1.56,4.5,4.17,4.5,4.17s2.1,2.04,3.81,2.09c.18,0,.33-.01,.47-.03,.31-.05,.67-.41,.52-.8-.7-1.76-3.08-4.29-4.78-5.45-.58-.4-1.58-1.32-3.11-1.81-.42-.14-1.75-.57-2.04-.08-.22,.37,.18,1.3,.6,1.87Z"/>
    <path class="cls-2" d="M997.41,109.68s0,0,0,0c.05,.36,.59,.88,.59,.88,0,0,.25,.44,.86,.34,.06-.01,.12-.03,.18-.04,.13-.03,.34-.16,.39-.26,.19-.45-.05-1.01-.38-1.22-.11-.07-.25-.27-.68-.3-.12-.01-.5-.04-.72,.12-.17,.12-.26,.36-.25,.49Z"/>
    <path class="cls-2" d="M936.47,122.98s0,0,0,0c.27,.08,.85-.17,.85-.17,0,0,.4-.05,.56-.55,.02-.05,.03-.1,.04-.15,.02-.11,.02-.32-.04-.39-.25-.29-.73-.3-1.01-.12-.09,.06-.28,.1-.47,.42-.05,.09-.22,.37-.19,.6,.02,.17,.15,.32,.25,.36Z"/>
    <path class="cls-2" d="M953.13,112.93s0,0,0,0c.22,.13,.78,.03,.78,.03,0,0,.37,.04,.61-.37,.03-.04,.05-.09,.07-.13,.04-.09,.08-.28,.05-.35-.16-.31-.58-.41-.87-.31-.1,.04-.27,.03-.51,.28-.06,.07-.27,.28-.29,.49-.02,.16,.07,.32,.15,.37Z"/>
    <path class="cls-2" d="M955.14,113.64s0,0,0,0c.18,.1,.61,.02,.61,.02,0,0,.29,.03,.48-.29,.02-.03,.04-.07,.05-.1,.03-.07,.06-.22,.04-.27-.12-.24-.46-.33-.68-.24-.08,.03-.21,.02-.4,.22-.05,.05-.21,.22-.23,.38-.01,.12,.05,.25,.12,.29Z"/>
    <path class="cls-2" d="M937.18,123.12s0,0,0,0c.22,.07,.67-.13,.67-.13,0,0,.32-.04,.45-.44,.01-.04,.02-.08,.03-.12,.02-.09,.01-.25-.03-.31-.2-.23-.58-.24-.8-.09-.08,.05-.22,.08-.37,.34-.04,.07-.17,.29-.15,.47,.02,.14,.12,.25,.2,.28Z"/>
    <path class="cls-2" d="M944.02,115.05s0,0,0,0c.27,.08,.85-.17,.85-.17s.4-.05,.56-.55c.02-.05,.03-.1,.04-.15,.02-.11,.02-.32-.04-.39-.25-.29-.73-.3-1.01-.12-.09,.06-.28,.1-.47,.42-.05,.09-.22,.37-.19,.6,.02,.17,.15,.32,.25,.36Z"/>
    <path class="cls-2" d="M944.73,115.2s0,0,0,0c.22,.07,.67-.13,.67-.13,0,0,.32-.04,.45-.44,.01-.04,.02-.08,.03-.12,.02-.09,.01-.25-.03-.31-.2-.23-.58-.24-.8-.09-.08,.05-.22,.08-.37,.34-.04,.07-.17,.29-.15,.47,.02,.14,.12,.25,.2,.28Z"/>
    <path class="cls-2" d="M942.28,115.81s0,0,0,0c.18,.1,.61,.02,.61,.02,0,0,.29,.03,.48-.29,.02-.03,.04-.07,.05-.1,.03-.07,.06-.22,.04-.27-.12-.24-.46-.33-.68-.24-.08,.03-.21,.02-.4,.22-.05,.05-.21,.22-.23,.38-.01,.12,.05,.25,.12,.29Z"/>
    <path class="cls-1" d="M1073.7,147.05c-.88-.61-2.33-.49-3.02-1.31-.14-.17-.25-.37-.35-.59,.47-.56,.47-1.49-.01-2.04,.71-.85,.36-2.51-1.09-2.51-.07,0-.13,.01-.2,.02-.12-.27-.25-.52-.4-.77-1.41-2.28-4.01-2.81-6.5-2.38-2.7,.46-5.47,2.8-8.28,2.03-1.81-.5-3.26-1.84-4.75-3.02,.11-.75-.28-1.58-1.17-1.72-.12-.63-.58-1.17-1.41-1.17-.64,0-1.07,.33-1.28,.78-.41-.11-.83-.2-1.26-.24-2.81-.26-3.61,.94-5.23,.42-2.61-.84-2-4.72-4.41-5.63-2.14-.81-5.5,1.16-6.82,3.66-1.26,2.37-.91,5.63-.5,7.79-.08,.03-.15,.06-.23,.1-.02,.01-.04,.02-.05,.03-.12,.08-.23,.17-.34,.26-.03,.03-.06,.06-.09,.09-.11,.13-.21,.25-.3,.4,0,.02-.02,.03-.03,.05-.07,.13-.12,.27-.18,.41-.02,.04-.03,.08-.04,.12-.04,.17-.06,.34-.07,.51,0,.02,0,.04,0,.06,.01,.15,.03,.3,.06,.45,0,.04,.02,.08,.03,.12,.04,.1,.12,.32,.2,.45,.08,.12,.17,.23,.26,.34,.01,.02,.03,.03,.04,.05,.11,.12,.25,.21,.39,.3,.03,.02,.07,.04,.1,.06,.07,.03,.15,.06,.22,.09-.15,.63,.07,1.36,.65,1.7-.07,.54-.2,1.07-.31,1.96-.43,3.34-1.86,5.01-3.28,6.92-.22-.17-.51-.27-.87-.27-1.3,0-1.71,1.36-1.25,2.24-.44,.52-.47,1.35-.1,1.92-.22,.57-.41,1.2-.57,1.9-.31,1.37-1.18,5.51,1.04,9.06,1.01,1.61,3.21,4,5.24,3.57,1.4-.29,2.46-1.87,3.52-5.42,3.63-12.23-1.67-20.67,1.32-22.93,.83-.63,2.15-.67,3.78-.34-.03,.2-.03,.41,.02,.61,.12,.58,.42,1.1,.81,1.54,.36,.4,.91,.74,1.44,.83,.44,.08,.76,.08,1.2-.02,.26-.06,.51-.16,.74-.3,.36-.22,.7-.56,.92-.95,5.15,2.17,11.31,5.62,15.88,7.4,0,.76,.47,1.52,1.45,1.52,.19,0,.36-.04,.52-.09,0,.26,.04,.51,.08,.76,.02,.16,.06,.31,.11,.46,.08,.26,.19,.51,.32,.75,.02,.03,.03,.06,.05,.09,.08,.12,.18,.25,.28,.36,.06,.06,.14,.12,.2,.16,.08,.06,.11,.1,.19,.14,.07,.04,.3,.14,.38,.16,.08,.02,.16,.02,.24,.03,.09,.01,.15,.03,.23,.03,.08,0,.34-.04,.41-.06,.08-.02,.13-.05,.22-.09,.24-.1,.42-.21,.61-.4,.13-.13,.23-.29,.34-.43,.05-.06,.09-.13,.12-.19,.03-.06,.06-.11,.08-.17,.07,0,.14,.02,.22,.02,.99,0,1.47-.78,1.44-1.55,1.2,.04,2.01,0,2.01,0,1.07-.06,1.79-.2,2.79-.38,2.53-.47,5.57-1.76,5.64-4.77,.03-1.16-.45-2.31-1.42-2.98Z"/>
    <path class="cls-1" d="M1275.03,68.29c-1.02-3.41-3.07-6.17-5.4-8.72,.63-.77,.4-2.19-.71-2.46,.03-.19,.05-.38,.04-.56-.02-.2-.04-.41-.09-.6-.05-.2-.14-.4-.22-.57-.11-.24-.29-.47-.49-.65-.32-.28-.61-.45-1.01-.59-.07-.02-.15-.04-.22-.05-.2-.03-.42-.07-.63-.06-.19,.01-.39,.04-.58,.08-.08,.02-.16,.04-.24,.07-.28,.11-.51,.24-.74,.4-1.13-1.18-2.22-2.4-3.14-3.76-1.12-1.66-1.97-3.48-2.8-5.28-1.55-3.35-3.08-7.09-6.06-9.44-.66-.52-1.34-.91-2.03-1.2-.05-.7-.53-1.37-1.44-1.37-.49,0-.86,.2-1.1,.49-.05-.36-.21-.71-.48-.96-.38-.37-.89-.5-1.41-.47-.18,0-.37,.02-.55,.05-.3,.04-.6,.07-.89,.16-.61,.2-1.14,.53-1.54,1.04-.22,.28-.38,.57-.48,.92,0,0,0,0,0,0-.58,.13-1.16,.28-1.75,.43-1.91,.5-4.15,1.11-5.93-.07-.9-.6-1.62-1.43-2.68-1.77-1.09-.35-2.23-.21-3.26,.28-1.06,.5-1.91,1.32-2.81,2.05-.92,.75-1.92,1.37-2.97,1.92-2.12,1.1-4.42,1.79-6.71,2.42-4.82,1.32-9.54,2.59-14.05,4.8-1.51,.74-2.96,1.57-4.39,2.46-.24-.28-.6-.47-1.09-.47-.32,0-.59,.09-.81,.23-.13-.1-.26-.2-.41-.28-.44-.23-.88-.35-1.38-.37-.83-.03-1.66,.33-2.25,.9-.59,.56-.95,1.44-.88,2.26,.03,.41,.14,.78,.29,1.14-.65,.36-.87,1.2-.64,1.87-.28,.25-.58,.49-.85,.74-6.46,5.94-11.13,13.44-15.58,20.97-.04-.02-.08-.04-.12-.05-.04-.01-.08-.02-.12-.03-.1-.02-.34-.07-.5-.06-.17,.01-.35,.02-.51,.07-.02,0-.03,.01-.05,.02-.13,.05-.27,.1-.39,.17-.14,.07-.29,.21-.39,.29-.03,.02-.05,.05-.08,.07-.05,.06-.1,.13-.15,.19-.05,.06-.1,.13-.15,.19-.02,.03-.04,.06-.05,.09-.04,.1-.09,.2-.13,.3-.58-.07-1.11-.04-1.7,.04-.42,.06-.84,.18-1.21,.4-.41,.24-.72,.59-.94,1.01-.12,.11-.22,.23-.29,.37-.13,.17-.26,.35-.36,.54-.44,.87-.56,1.78-.39,2.73,.13,.71,.52,1.41,1.03,1.94-1.3,1.86-1.91,4.12-1.68,6.35-1.66,.22-2.99,1.04-4.14,2.15-.02,0-.04,0-.07,0-.72,0-1.18,.42-1.36,.95-.11,0-.23,0-.34,.04-.51,.13-.91,.39-1.31,.71-.1,.08-.2,.17-.28,.27-.16,.19-.33,.39-.45,.61-.46,.78-.6,1.72-.37,2.6,.03,.13,.1,.25,.17,.37-.35,.55-.69,1.08-1.04,1.58-2.59,3.67-6.7,5.99-10.14,8.76-1.76,1.41-3.38,2.96-4.68,4.81-.62,.87-1.02,1.88-1.66,2.72-.63,.82-1.55,1.06-2.52,1.24-.3,.06-.6,.1-.91,.15-.24-.29-.61-.49-1.1-.49-.4,0-.72,.14-.95,.34-.23-.37-.62-.63-1.19-.63-1.32,0-1.74,1.41-1.25,2.29-.07,.06-.15,.11-.22,.17-1.49,1.39-1.6,3.37-2.06,5.22-.05,.19-.08,.79-.51,1.12-.36,.27-.8,.24-.93,.24-1.29-.05-3.74,1.47-4.77,2.99-1.17,1.72-1.48,4.86-.17,5.99,.45,.39,1.1,.53,1.89,.47,0,.11,.02,.22,.05,.33,.12,.37,.35,.69,.69,.9,.44,.26,.99,.41,1.5,.39,.5-.03,1.05-.15,1.46-.45,.14-.1,.3-.21,.42-.34,.13-.13,.25-.29,.35-.43,.15-.21,.24-.44,.34-.68,.04-.1,.07-.2,.09-.3,.16,.06,.34,.1,.55,.1,1.26,0,1.7-1.28,1.3-2.17,5.13-2.92,11.2-7.63,15.01-10.92,1.31-1.13,3.37-3.08,7.1-6.64,.24,.34,.62,.58,1.17,.58,1.2,0,1.64-1.15,1.35-2.02,1.06-.13,1.44-1.23,1.14-2.06,4.76-4.59,6.13-6.18,7.6-7.86,2.74-3.11,5.15-6.5,6.66-10.35,.55-.2,1.08-.44,1.6-.71,.1,.22,.22,.41,.4,.62,.31,.36,.73,.58,1.16,.74,.11,.04,.22,.07,.33,.09,.25,.04,.49,.08,.75,.05,.52-.06,.98-.18,1.44-.45,.7-.4,1.28-1.02,1.73-1.68,.49-.72,.75-1.71,.47-2.56-.11-.33-.27-.62-.47-.88,1.2-.35,1.33-2.09,.36-2.71,.21-.32,.44-.63,.73-.87,.92-.74,2.27-.82,3.38-1.06,2.22-.47,4.38-1.29,6.37-2.37,.38-.21,.76-.44,1.13-.66,.2,.25,.45,.45,.77,.55,.17,.05,.33,.09,.51,.12,.29,.05,.59,.1,.89,.08,.29-.01,.59-.04,.87-.13,.27-.08,.55-.19,.78-.36,.33-.24,.55-.43,.77-.78,.07-.1,.11-.22,.15-.33,.05-.12,.1-.23,.13-.36,.07-.31,.1-.66,.06-.99,1.05-.32,1.27-1.71,.63-2.46,1.16-1.31,2.17-2.74,3.01-4.27,1.11-2.02,1.92-4.48,3.83-5.92,1.55-1.17,3.53-1.4,5.41-1.39,1.58,0,3.18,.17,4.79,.31,.55,2.32,3.44,3.67,5.67,3.37,1.21-.16,2.28-.77,3.03-1.74,.2-.26,.36-.54,.49-.82,.45-.06,.89-.18,1.28-.43,.87-.53,1.38-1.37,1.75-2.29,.22-.55,.39-1.15,.42-1.75,.08-.08,.16-.15,.23-.23,2.6-2.72,3.1-3.7,4.59-4.67,1.69-1.1,4.04-1.18,6.39-.68-.72,.84-.36,2.53,1.09,2.53,.03,0,.05,0,.07,0,0,.09-.03,.18-.03,.27,.01,1.02,.35,1.95,.98,2.74,.58,.72,1.56,1.17,2.48,1.1,.53-.04,1.07-.16,1.52-.45,.03-.02,.05-.04,.08-.06,.03,0,.05-.02,.07-.03,.18,.53,.63,.95,1.36,.95,.93,0,1.41-.7,1.44-1.42,5.73,7.6,5.02,21.17,4.59,29.18-.04,.71-.26,4.57-.5,10.07-.22-.15-.5-.25-.84-.25-1.73,0-1.91,2.4-.53,2.9-1.41,1.16-2.6,2.79-2.5,4.68,.11,2.03,1.63,3.98,3.75,4.07,.08,1.44,.22,2.98,.44,4.65,.45,3.46,1.48,7.01,4,9.56,1.25,1.26,2.98,2.02,4.55,.81,1.5-1.16,1.8-3.32,1.87-5.09,.18-4.41-.42-8.91-1.02-13.26-.61-4.46-1.27-8.92-2.01-13.36-2.46-14.73-4.14-25.04-2.25-25.68,1.12-.38,3.43,2.63,6.24,5.47-1.59,.32-1.49,2.97,.33,2.97,.29,0,.52-.07,.73-.18,.01,.07,.02,.13,.04,.19,.24,.64,.52,1.26,.9,1.83,.36,.55,.79,1.13,1.3,1.55,.25,.2,.44,.33,.73,.45,.41,.17,.81,.19,1.25,.12,.45-.08,.88-.38,1.18-.71,.43-.47,.76-1,1.03-1.57,.63,.03,1.39-.02,2.17-.28,1.24-.41,1.63-1.45,1.97-2.63,.64-2.22,.47-4.64-.19-6.83Z"/>
    <path class="cls-2" d="M1028.1,170.15s.02-.04,.03-.05c1.11-2.07,2.4-7.05,2.4-7.05s1.22-3.33,.51-5.36c-.07-.21-.16-.38-.25-.54-.19-.35-.73-.62-1.08-.27-1.55,1.56-3.16,5.42-3.63,7.91-.16,.85-.69,2.41-.52,4.42,.05,.55,.19,2.3,.83,2.42,.49,.1,1.3-.75,1.71-1.49Z"/>
    <path class="cls-2" d="M1030.78,155.98s0,0,0,0c.36-.21,.66-1.07,.66-1.07s.35-.48-.03-1.15c-.04-.07-.08-.13-.12-.19-.09-.13-.32-.34-.45-.34-.56-.03-1.04,.48-1.13,.96-.03,.16-.17,.4-.02,.92,.04,.14,.18,.6,.45,.8,.21,.15,.49,.16,.63,.08Z"/>
    <path class="cls-2" d="M1057.53,142.01s.03,0,.03,0c1.31-.09,4.02-1.03,4.02-1.03s1.93-.44,2.64-1.48c.07-.11,.13-.21,.17-.3,.1-.21,.06-.59-.21-.66-1.21-.31-3.51,.1-4.81,.67-.45,.19-1.33,.43-2.21,1.17-.24,.2-1.01,.85-.86,1.23,.11,.29,.76,.44,1.23,.42Z"/>
    <path class="cls-2" d="M1064.87,139.57s0,0,0,0c.19,.09,.63-.04,.63-.04,0,0,.3,0,.46-.35,.02-.04,.03-.07,.04-.11,.03-.08,.04-.23,0-.28-.15-.24-.5-.28-.72-.18-.07,.04-.21,.05-.38,.26-.05,.06-.19,.25-.19,.41,0,.13,.08,.25,.15,.28Z"/>
    <path class="cls-2" d="M1032.83,132s0,0,0,0c.41,.06,1.18-.44,1.18-.44s.57-.17,.68-.93c.01-.08,.02-.15,.02-.23,0-.16-.05-.46-.15-.55-.43-.36-1.12-.25-1.48,.07-.12,.11-.38,.21-.58,.72-.05,.14-.22,.58-.13,.9,.07,.25,.3,.42,.45,.45Z"/>
    <path class="cls-2" d="M1034.13,132.94s0,0,0,0c.18,.1,.59-.13,.59-.13,0,0,.28-.03,.41-.55,.01-.05,.02-.11,.03-.16,.02-.11,.02-.33-.01-.41-.16-.32-.49-.35-.69-.18-.07,.06-.2,.09-.34,.42-.04,.09-.16,.37-.15,.61,0,.18,.09,.34,.16,.39Z"/>
    <path class="cls-1" d="M1434.65,179.51s-.21-.08-.28-.1c-.04-.03-.09-.06-.11-.07-.05-.05-.1-.09-.15-.14-.01-.01-.02-.02-.03-.03,0-.01-.01-.03-.02-.05-.02-.04-.09-.2-.1-.21-.02-.07-.04-.13-.06-.2,0,0,0,0,0,0,0-.04,0-.08,0-.12,0-.02,0-.05,0-.07,.29-.59,.53-1.38,.53-2.03,0-.84-.45-1.58-.85-2.28-.7-1.21-1.52-2.38-2.72-3.14-.36-.23-.75-.41-1.14-.53,.11-.66,.02-1.39-.34-2.09-.22-.44-.51-.84-.83-1.24,.54-.87,.83-1.92,.72-2.91-.24-2.11-1.9-3.89-4.02-4.25-.08-.01-.16-.01-.24-.02-.34-.09-.69-.13-1.03-.14,0-.74-.49-1.48-1.45-1.48-.41,0-.73,.14-.96,.35-.92-1.17-1.82-2.36-2.68-3.58-3.42-4.92-5.74-10.3-7.9-15.87-1.9-4.92-3.95-9.76-6.26-14.5,.91-.68,.74-2.41-.51-2.69,.18-.82-.25-1.77-1.29-1.85,.17-.84-.3-1.83-1.41-1.83-.04,0-.07,0-.11,.01-1.83-3.31-3.77-6.55-5.84-9.71-2.88-4.39-6.09-8.52-9.22-12.73,1.01-.64,.85-2.5-.48-2.75,0-.02,.01-.03,.02-.05,.06-.27,.1-.57,.09-.85-.02-.28-.05-.59-.15-.86-.16-.42-.33-.7-.61-1.05-.2-.24-.46-.43-.71-.6-.26-.17-.56-.29-.85-.4-.32-.12-.67-.16-1.01-.2-.23-.03-.46-.03-.7,0-.06,0-.12,0-.18,.02-.31-.52-.62-1.05-.9-1.59-1.19-2.21-2.1-4.55-3.34-6.73-1.25-2.18-2.88-4.11-5.05-5.42-.29-.18-.6-.33-.91-.48-.05-.71-.52-1.39-1.44-1.39-.17,0-.33,.03-.47,.08-.13-.4-.35-.78-.67-1.08-.25-.23-.49-.39-.79-.52-.12-.05-.23-.1-.36-.13-.19-.04-.4-.07-.6-.07-.26,0-.54,.04-.79,.13-.17,.06-.35,.14-.52,.22-.12,.07-.23,.15-.33,.24-.09,.07-.17,.15-.25,.22-2.47-.82-4.63-2-6.76-3.49-.38-.26-.75-.53-1.12-.8,.47-.89,.05-2.27-1.26-2.27-.15,0-.28,.02-.4,.05,.03-.19,.05-.38,.04-.57-.02-.27-.05-.55-.15-.81-.07-.17-.14-.36-.23-.52-.09-.17-.22-.32-.34-.47-.17-.21-.39-.37-.61-.52-.22-.15-.48-.25-.74-.32-.52-.12-1.11-.13-1.61,.05-.19,.07-.38,.14-.55,.24-.18,.1-.34,.23-.49,.36-.22,.18-.4,.42-.55,.66-.02,.03-.03,.06-.04,.1-3.23-1.06-6.94-.95-9.8,1.05-.62,.43-1.15,.96-1.6,1.54-.09-.01-.17-.03-.27-.03-.86,0-1.34,.6-1.43,1.26-.13,.05-.27,.11-.39,.16-.04,.02-.09,.04-.13,.06-.15,.09-.3,.21-.43,.32-.17,.15-.31,.34-.43,.53-.11,.2-.21,.42-.25,.64-.03,.15-.06,.36-.06,.53,0,.18,.04,.37,.07,.54,0,.05,.02,.1,.04,.15,.05,.17,.13,.34,.21,.5,.03,.06,.06,.11,.1,.16,.1,.14,.21,.3,.34,.42,.07,.06,.14,.12,.21,.17,.07,.05,.14,.12,.22,.17,.15,.1,.35,.16,.51,.23,.02,0,.05,0,.07,.01,.36,1.15,1.19,2.14,2.28,2.85,2.13,1.4,4.49,1.26,6.92,1.2,1.91-.04,3.34,.28,4.53,1.43-.21,.21-.4,.44-.56,.72-.1,.17-.17,.36-.25,.55-.03,.08-.06,.17-.08,.25-.08,.36-.1,.68-.05,1.05,.05,.35,.14,.65,.32,.96,.1,.17,.23,.32,.35,.47,.06,.07,.12,.13,.19,.18,.15,.12,.3,.25,.47,.34,.17,.09,.36,.18,.55,.22,.19,.04,.39,.08,.58,.07,.03,0,.07,0,.1,0,.17-.02,.34-.03,.5-.08,.07-.02,.12-.05,.19-.08,.18,.54,.63,.97,1.36,.97,.19,0,.35-.03,.5-.09,.03,.03,.06,.06,.09,.09,.69,.56,1.48,.98,2.36,1.16,1.26,.26,2.5-.14,3.75,.02,1.06,.13,1.23,1.14,1.62,1.98,.49,1.06,1.22,1.95,2.34,2.36,1,.36,2.21,.15,3.04,.9,.29,.26,.52,.59,.71,.94-.29,.45-.33,1.05-.11,1.54-1.45,.44-1.3,2.93,.46,2.93,.1,0,.2-.01,.29-.03,.09,.43,.37,.81,.81,.99-.08,.48,.04,1,.36,1.36-.1,.2-.17,.42-.15,.7,.15,2.79,.03,5.56-.27,8.34-.25,2.33-.38,4.69,.46,6.9-.21,.58-.08,1.28,.37,1.7-.64,.86-.27,2.45,1.14,2.45,.47,0,.82-.18,1.06-.44,1.35,1.24,3,2.19,4.73,2.9l1.1,3.6c-.75,.45-.89,1.55-.4,2.23-.08,.13-.15,.26-.19,.41-.04,.16-.06,.34-.07,.5,0,.04,0,.07,0,.11,0,.16,.04,.33,.06,.49,0,.04,.02,.08,.03,.12,.06,.18,.13,.37,.24,.54,.09,.14,.19,.27,.3,.39,.02,.03,.05,.05,.08,.07,.12,.1,.24,.21,.38,.29,.14,.08,.31,.14,.46,.2,.18,.07,.41,.08,.6,.1,.06,0,.12,0,.18,0,.74,2.52,1.36,5.3,2.91,7.45,1.32,1.84,3.42,3.11,5.75,2.93,1.12-.09,2.16-.55,2.97-1.34,.81-.8,1.28-2.06,2.45-2.4,2.35-.68,4.26,1.5,5.21,3.33,.36,.69,.67,1.42,.97,2.15-.33,.47-.6,.99-.71,1.57-.14,.73-.15,1.49,.08,2.2,.43,1.31,1.43,2.33,2.72,2.8-.22,.86,.24,1.93,1.39,1.93,.02,0,.05,0,.07,0,2.78,5.72,6.32,11.09,10.76,15.61-.28,.67-.09,1.54,.56,1.93-.04,.09-.08,.17-.11,.26-.03,.06-.05,.13-.06,.2-.04,.19-.07,.39-.08,.59,0,.06,0,.13,0,.19,.02,.19,.04,.4,.09,.59,.03,.13,.09,.24,.14,.36,.05,.12,.1,.25,.17,.36,.1,.16,.22,.31,.34,.45,.04,.05,.09,.1,.14,.15,.32,.28,.58,.43,.97,.58,.07,.03,.13,.05,.2,.06,.19,.04,.39,.07,.59,.07,.51,0,1.08-.15,1.5-.44,.33-.22,.54-.44,.77-.74,.04,.03,.07,.06,.11,.09,.96,.71,1.99,1.43,3.09,1.9,.07,.16,.17,.32,.29,.47,1.61,1.96,3.21,3.92,4.82,5.88,1.33,1.62,3.6,5.26,6.02,3.08,.82-.74,.41-2.26-.66-2.51Z"/>
    <path class="cls-1" d="M1835.12,32.5c-.06-.23-.17-.46-.27-.67-.16-.32-.56-.6-.9-.69-.14-.04-.29-.05-.45-.04,.56-10.67-.96-20.58-7.08-27.44-2.47-2.77-5.55-3.34-5.55-3.34-2.78-.68-5.36-.15-8.07,.64-2.65,.77-5.3,1.82-8.09,1.87-3.05,.05-6.02-.94-9.08-.9-2.74,.03-5.17,1.02-7.43,2.52-2.03,1.35-3.95,3.05-6.27,3.89-2.62,.95-5.37,.7-8.13,.33,.02-.11,.03-.23,.04-.35,.03-.34-.02-.69-.09-1.02l-.15-.36c-.09-.17-.22-.32-.39-.42-.09-.09-.2-.16-.33-.19-.18-.09-.37-.14-.58-.13-.29,0-.58,.04-.86,.09-.28,.05-.54,.17-.8,.29-.15,.06-.29,.14-.42,.23-.03,.02-.06,.05-.1,.07-.01-.02-.02-.04-.04-.06-.03-.12-.06-.25-.11-.37-.18-.42-.45-.76-.84-1-.74-.46-1.66-.35-2.4,.06-.4,.12-.75,.33-1.06,.61-.26,.23-.42,.53-.56,.85-.17,.25-.32,.5-.43,.82-.07,.21-.1,.43-.11,.65-1.34,.33-2.61,.91-3.72,1.8-2.23,1.8-3.33,4.57-5.22,6.68-3.58,3.98-8.54,6.35-13.35,8.48-3.38,1.49-6.77,2.96-10.16,4.43-2.16-1.52-4.99-2.08-7.51-1.1-2.48,.96-4.42,3.1-5.03,5.71-.08-.01-.15-.02-.24-.02-1,0-1.48,.8-1.44,1.58l-2.86,1.24c-2.48,1.08-4.98,2.15-7.13,3.82-2.05,1.59-3.57,3.69-4.26,6.21-.75,2.69-.57,5.54-.38,8.29,.19,2.67,.49,5.45-.15,8.09-.28,1.16-.76,2.25-1.36,3.27-.18-.08-.37-.12-.57-.12-.24-.15-.5-.29-.78-.38-1.76-.57-3.59,.78-3.94,2.52-.06,.28-.08,.57-.08,.86-.83-.26-1.71-.38-2.47-.42-1.73-.07-3.53,.38-5.01,1.28-3.32,2.03-4.9,6.31-3.8,10.03-.12,.11-.25,.22-.37,.33-1.8,1.73-3.18,3.75-4.48,5.87-1.39,2.28-2.77,4.54-5.04,6.04-.12,.08-.25,.15-.37,.22-.2-.11-.43-.17-.71-.17-.69,0-1.13,.39-1.33,.88-.08-.04-.15-.09-.24-.12-.12-.05-.24-.11-.37-.13-.19-.04-.41-.08-.61-.06-.41,.03-.77,.12-1.12,.33-.17,.1-.32,.23-.47,.35-.06,.05-.12,.11-.17,.18-.12,.15-.25,.3-.34,.46-.11,.18-.18,.38-.25,.57-.11,.27-.14,.57-.17,.86-.03,.26,0,.53,.04,.79-.09,.1-.19,.18-.28,.28-2.82,3.21-3.48,7.54-4.48,11.54-.49,1.96-1.05,3.98-2.23,5.65-1.35,1.91-3.48,2.39-5.3,3.69-1.62,1.17-2.46,2.69-2.76,4.34-1.01,.12-1.41,1.13-1.18,1.94-.07,.09-.12,.19-.16,.3-.09,.18-.14,.37-.13,.58l.05,.4c.07,.25,.2,.47,.39,.66l.3,.23c.23,.14,.49,.2,.76,.2h.19c.45,1.83,1.26,3.61,2.16,5.1,1.16,1.92,1.83,2.85,2.45,4.07,.1,.19,.83,1.72,1.39,3.47,1.27,4,1.21,7.88,1.19,8.78-.19,8.41-.44,15.77-.52,22.05-1.44,.01-1.79,1.69-1.07,2.53-.22,.13-.41,.3-.54,.52-.13,.25-.24,.51-.33,.77-.08,.26-.11,.54-.15,.81-.05,.43,0,.88,.1,1.3,.05,.12,.1,.24,.15,.36,.09,.17,.22,.32,.39,.42,.09,.09,.2,.16,.33,.19,.18,.09,.37,.14,.58,.13,.06,0,.11,0,.17,0-.77,.7-.62,2.21,.48,2.57,.37,8.5,1.69,13.87,5.18,15.89,2.02,1.16,5.04,1.38,6.95,.06,4.68-3.23,.34-14.09-3-33.36,1.72-.21,1.66-2.98-.2-2.98-.1,0-.2,.01-.29,.03,0-.06-.02-.11-.03-.17,.05,0,.1,.02,.15,.02,.41,0,.73-.1,1.09-.27,.12-.05,.21-.13,.31-.21,.11-.08,.21-.15,.3-.26,.23-.26,.37-.49,.5-.8,.14-.32,.19-.59,.22-.95,.03-.27-.02-.54-.07-.8-.01-.07-.03-.14-.06-.21-.07-.19-.14-.38-.25-.55-.31-.5-.75-.91-1.25-1.19-.36-.2-.76-.35-1.16-.47,.49-.84,.16-2.17-1.02-2.3-2.79-16.49-6.59-28.48,1.21-31.65,9.68-3.93,17.17-8.91,20.5-16.35,1.01-.16,1.38-1.21,1.1-2.02,.05,0,.1,.02,.16,.02,1.82,0,1.92-2.68,.3-2.97,1.04-5.09,6.76-8.98,11.82-10.2,8.45-2.05,9.38-8.46,10.31-14.84,.86-5.94,4.1-13.38,9.89-15.05,5.86-1.69,9.11-6.43,11.89-11.65,1.25-2.35,2.99-4.26,5.02-5.88,.75,.58,1.55,.92,2.5,1.03,.87,.1,1.74-.09,2.52-.48,1.39-.68,2.32-2.2,2.43-3.74,.21,.06,.43,.09,.65,.11,.24,.02,.48-.03,.71-.06,.12-.02,.23-.05,.34-.1,.22-.09,.45-.17,.64-.3,.2-.13,.39-.27,.56-.44,.17-.16,.31-.36,.45-.55,.07-.1,.13-.2,.19-.31,.1-.21,.2-.43,.26-.66,.03-.14,.05-.29,.06-.44,4.39-1.66,8.97-3.06,13.04-4.77,5.25-2.21,10.59-4.21,15.95-6.12,6.48-2.31,10.95-3.75,13.96-4.65,.19,.74,.55,1.43,1.1,2.06,.88,1,2.21,1.62,3.53,1.64,1.34,.02,2.63-.57,3.6-1.48,.68-.64,1.13-1.41,1.42-2.26,.81,.41,1.75,.57,2.71,.42,1.54-.25,2.82-1.54,3.25-3,.1-.35,.05-.72-.1-1.04,3.7-.61,6.22-.57,8.19,.43,.75,.38,1.43,.87,2.06,1.42-.27,.22-.52,.46-.7,.76-.48,.8-.54,1.87-.04,2.68,.2,.33,.52,.59,.9,.69,.11,.03,.21,.05,.32,.05,0,.18,0,.37,.02,.55,.09,.91,.35,1.75,.98,2.43,.81,.87,2.15,1.25,3.25,.88,2.59,8.19,1.92,18.15,1.92,18.15,0,0-.52,1.21-4.68,19.67,0,0-2.3,8.46-3.36,19.67-.04,.47-.07,.94-.11,1.4-.13-.03-.26-.06-.41-.06-1.08,0-1.56,.94-1.43,1.77,0,0-.02,0-.02,.01-.38,.35-.65,.83-.78,1.32-.15,.52-.13,1.02-.04,1.54,.02,.14,.06,.27,.11,.39,.09,.23,.18,.48,.33,.69,.29,.42,.65,.82,1.13,1.03,.17,.11,.36,.17,.56,.18,.09,.02,.18,.03,.27,.02,0,.47,0,.94,0,1.41,.06,2.93-.13,6.62,1.69,9.1,1.35,1.84,4.59,2.15,6.33,1.4,3.98-1.73-.18-11.04-.73-23.56,.15-.07,.29-.16,.39-.28,.16-.21,.33-.41,.46-.64,.13-.23,.23-.48,.33-.72,.16-.4,.22-.83,.25-1.26,.03-.42-.02-.85-.11-1.26-.09-.41-.26-.82-.47-1.18-.09-.15-.21-.29-.36-.4,.75-.64,.67-2.04-.25-2.51,.18-1.67,.44-3.36,.83-5.09,1.9-8.53,4.34-18.51,5.55-28.29,1.01-.18,1.36-1.28,1.03-2.09,.31-.24,.57-.49,.81-.84,.2-.29,.35-.64,.44-.98,.06-.23,.09-.48,.11-.71,.01-.12,.01-.23,0-.35-.02-.24-.05-.48-.11-.71Z"/>
    <path class="cls-1" d="M1670.53,185.27c0,2.9-.32,5.76-.94,8.58-.56,0-1.11-.02-1.67-.03-3.04-12.12-4.56-24.58-4.46-37.08,.02-2.66,.11-5.34,.06-8.01,2.33,12.18,7.03,24.01,7.01,36.54Z"/>
    <path class="cls-1" d="M1821.76,99.6c-.71-1.37-.68-3.08-.76-4.59-.17-3.4-.1-6.8,.15-10.2,.28-3.65,.78-7.28,1.41-10.89-.16,2.59-.24,5.18-.24,7.78,.02,6.41,.52,12.81,1.25,19.18-.74,0-1.44-.57-1.81-1.29Z"/>
    <g>
      <path class="cls-1" d="M1987.29,92.42s0,0,0,0c0,0,0,0,0,0,0,0,0,0,0,0,0,0,0,0,0,0,0,0,0,0,0,0Z"/>
      <path class="cls-1" d="M2132.99,183.77c-.16-.42-.48-.78-.87-.97,1.77-10.26,2.83-20.63,2.81-31.06-.03-15.85-2.37-31.71-6.82-46.91-3.03-10.35-7.07-20.41-12-30.01,.86-.77,1.36-1.88,1.43-3.05,.1-1.67-.97-3.49-2.75-3.64-.36-.03-.72,.06-1.05,.22,.06-.79-.42-1.62-1.44-1.62-.22,0-.41,.04-.58,.11-.98-1.69-1.98-3.36-3.02-5.01l-5-7.88c1.11-.26,1.36-1.67,.74-2.45,.04-.05,.08-.1,.11-.15,.42-.62,.66-1.49,.57-2.24-.06-.51-.17-1-.45-1.44-.28-.43-.64-.79-1.08-1.05-.32-.19-.69-.34-1.06-.4-.24-.04-.49-.08-.74-.08-.26,0-.52,.04-.78,.08-.15,.02-.3,.07-.44,.12-.25,.09-.5,.19-.72,.34-.14,.09-.26,.21-.39,.32-.74-1.56-1.52-3.13-2.77-4.35-1.88-1.83-4.49-2.3-6.97-1.59-2.83,.82-5.18,2.76-7.97,3.65-3.33,1.06-6.89,.24-10.29,.3-3.39,.06-6.46,1.12-9.3,2.95-.72,.46-1.41,.96-2.1,1.47-.18-.53-.63-.95-1.36-.95-.31,0-.57,.08-.78,.22-.25-.68-.67-1.29-1.36-1.61-1.35-.64-2.95-.18-3.87,.98-.78,.98-1.24,2.2-1.53,3.41-.02,.08-.03,.16-.05,.24-.39-.09-.75-.08-1.14,0-.56,.11-1.09,.46-1.5,.85-.81,.76-1.19,1.84-1.27,2.93-.08,1.05,.37,2.25,1.27,2.86-.4,.29-.8,.58-1.21,.87-16.63,11.64-34.92,20.57-52.18,31.18,.07-.8-.4-1.66-1.44-1.66-.36,0-.65,.1-.88,.27-.09-.02-.19-.04-.29-.04-.03,0-.05,0-.08,0-.07-.26-.16-.52-.3-.74-.55-.93-1.56-1.17-2.57-1.1-1.53,.12-3.12,.7-4.11,1.92-.98,1.22-1.51,2.9-.95,4.43,.14,.39,.37,.76,.62,1.1-.76,.52-.82,1.73-.18,2.36-.7,.48-1.39,.94-2.08,1.43-5.69,4.01-11.17,8.33-16.25,13.09-2.63,2.46-5.53,5.21-7.62,8.35-.13-.03-.26-.06-.41-.06-.44,0-.77,.16-1.01,.4-.12-.03-.25-.05-.39-.05-1.7,0-1.9,2.32-.61,2.88-.28,.52-.26,1.21,.08,1.69-.38,1.29-.6,2.63-.57,4.04,0,.38,.13,.7,.32,.93,.5,.6,1.57,.42,1.94,.37,3-.45,7.7-6.75,10.05-6.13,2.61,.68,2.6,9.9,2.55,13.18,0,0-.02,0-.03,0-.46,.04-.91,.16-1.29,.43-.19,.14-.35,.26-.5,.43-.26,.31-.39,.55-.53,.93-.14,.38-.18,.8-.18,1.2,0,.8,.09,1.64,.45,2.36,.21,.41,.56,.75,.98,.98-1.23,.6-1.01,2.85,.67,2.85,.09,0,.17-.01,.26-.03,0,.29,.01,.6,.02,.92,.16,5.64,.78,6.61,1.43,7.49,2.45,3.29,8.15,2.8,9.98-.9,1.02-2.05,.69-4.38-.39-8.09-.78-2.65-1.49-4.97-2.14-7.01,.61-.57,.63-1.66,.03-2.24,.3-.13,.55-.28,.83-.5,.24-.2,.44-.45,.61-.71,.17-.25,.29-.55,.38-.84,.09-.3,.14-.63,.14-.95-.01-1.41-1-2.58-2.32-2.98-.16-.05-.33-.07-.5-.09-.17-.02-.33-.05-.5-.04-.47,.02-.83,.13-1.25,.31-1.44-4.62-1.79-6.66-.71-8.7,2.1-3.97,7.92-4.84,9-5,5.75-.86,7.11,2.7,12.05,1.67,.5-.1,1.53-.81,3.25-2.05,.35,.81,.94,1.51,1.71,1.92,.87,.47,1.85,.57,2.81,.34,.96-.23,1.75-.82,2.34-1.59,.63-.83,.86-2.04,.56-3.03-.02-.06-.05-.11-.07-.17,.92-.58,.88-2.16-.13-2.64,.3-.21,.6-.41,.91-.63,1.9-1.31,3.79-2.62,5.69-3.93,1.68-1.16,3.4-2.47,5.38-3.05,2.06-.6,3.55,.26,5.41,1.01,1.74,.71,3.51,.76,5.24,0,.42-.18,.82-.41,1.21-.65,.02,.02,.04,.04,.06,.06,.5,.51,1.09,.87,1.75,1.14,1.13,.46,2.54,.41,3.57-.27,1.12-.73,1.78-1.89,1.9-3.21,.05-.54-.07-1.11-.31-1.62,.77-.83,.43-2.57-1.05-2.57-.02,0-.04,0-.06,0,.29-.43,.58-.86,.86-1.27,2.43-3.57,8.78-16.32,16.07-16.44,.3,0,3.39-.02,4.83,1.97,1.23,1.69,.72,4.08-.06,6.48-.17-.07-.36-.11-.58-.11-1.79,0-1.92,2.57-.39,2.95-.74,2.21-1.19,4.2-.07,5.37,.93,.97,2.69,1.12,3.84,.64,1.64-.68,2.29-2.68,2.38-3.55,.17-1.66-.06-3.41-.17-5.07-.05-.76-.13-1.52-.21-2.28,1.7-.22,1.64-2.98-.22-2.98-.04,0-.08,0-.12,.01,0-.06-.01-.12-.02-.18-.73-6.03,5.98-13.38,6.61-14.06,7.22-7.77,16.85-8.87,20.04-9.23,.62-.07,5.2-.59,8,0,13.79,2.91,19.9,40.28,20.89,70.69-.8-.7-1.77-1.17-2.87-1.18-.95,0-1.84,.33-2.56,.93-.78,.65-1.11,1.66-1.17,2.64-.03,.48,.02,.95,.06,1.42-1.83,.17-3.18,.97-4.36,2.51-2.31,3.03-3.73,6.89-3.25,10.73,.45,3.59,2.49,7.01,5.88,8.5,.58,.25,1.17,.43,1.77,.57-.23,.44-.39,.91-.48,1.4-.39,2.31,.53,4.94,2.52,6.28,.98,.66,2.26,.65,3.27,.06-2.09,20.04-6.11,36.25-8.14,43.86h0c-1.33,8.68-2.19,17.5-.74,26.23,.29,1.75,.58,3.74,2.26,4.72,1.3,.76,4.15-.4,4.03-.39s3.83-6.38,4.89-9.8c2.6-8.42,5.09-16.87,7.27-25.41,.04,0,.07,.02,.11,.02,2.81,.09,5.08-2.28,5.69-4.89,.66-2.83-.52-5.61-1.89-8.05,1.68-1.85,2.37-4.64,1.46-7Z"/>
    </g>
    <path class="cls-1" d="M1582.71,192.3c0-.75-.48-1.5-1.45-1.5-.55,0-.93,.26-1.17,.61-.08-.01-.16-.02-.24-.02-.96,0-1.45,.75-1.45,1.5-.91,.69-1.75,1.51-2.92,1.74-1.94,.37-3.99-.14-5.93-.22-2.11-.08-4.16,.29-5.89,1.55-.39,.28-.75,.6-1.09,.92-.14-.04-.29-.07-.46-.07-.75,0-1.21,.46-1.37,1.01-.14-.03-.28-.05-.42-.06-.06,0-.12-.01-.18-.01-.05,0-.11,0-.16,.01-.18,.02-.37,.04-.55,.08-.23,.06-.45,.15-.65,.26-.05,.03-.09,.05-.14,.08-.14,.1-.29,.21-.42,.33-.04,.04-.08,.08-.11,.12-.11,.14-.23,.27-.32,.42-.03,.05-.05,.09-.08,.14-.08,.16-.15,.33-.21,.5-.08,.22-.1,.47-.12,.7-.02,.25,.02,.51,.07,.76,.01,.06,.03,.12,.05,.18,.05,.16,.12,.31,.19,.46-2.85,2.14-6.38,3.22-9.88,3.88-7.51,1.42-13.49,1.73-15.08,1.7-6.07-.11-10.44,.18-13.82,.6,.03-.18,.03-.36-.03-.55-.05-.2-.14-.37-.27-.51-.11-.16-.25-.29-.42-.39-.12-.05-.24-.1-.36-.15-.27-.07-.53-.07-.8,0-.12,.05-.24,.1-.36,.15-.06,.04-.11,.08-.17,.13-.06-.15-.12-.3-.22-.42-.21-.3-.35-.43-.65-.65-.16-.11-.35-.19-.53-.25-.11-.04-.21-.04-.33-.06-.11-.01-.22-.04-.33-.03-.22,.01-.47,.04-.69,.12-.2,.07-.42,.16-.61,.28-.18,.11-.34,.24-.5,.37-.2,.16-.35,.34-.51,.54-.15,.2-.3,.39-.4,.62-.19,.43-.34,.88-.39,1.34l-.12-.05c-.27-.07-.53-.07-.8,0-.16,.04-.31,.08-.47,.11-.2,.05-.37,.14-.51,.27-.16,.11-.29,.25-.39,.42-.11,.17-.17,.36-.18,.56,0,.01,0,.02,0,.03-2.58,.45-5.06,.55-9.03-.28-9.99-2.11-17.35-7.57-27.08-9.08-.06-.69-.54-1.34-1.44-1.34-.15,0-.28,.02-.41,.06-.1-.25-.23-.47-.43-.66-.42-.4-.95-.52-1.51-.58-.64-.07-1.28,.13-1.84,.41-.79,.4-1.4,1.13-1.7,1.96-2.55,.49-3.36,1.56-3.62,1.98-.55,.9-.6,2.03-.6,2.15-.03,1.73,.97,3.4,2.22,4.53,.58,.52,1.19,.91,1.84,1.21-.05,.23-.05,.46,.01,.7l.15,.36c.03,.05,.07,.09,.1,.14,.02,.03,.03,.06,.05,.09,0-.02-.02-.04-.03-.06,0,0,0,0,0,0,.02,.05,.04,.09,.06,.14,.01,.03,.03,.06,.04,.09,0,.01,.01,.02,.02,.03,.04,.05,.08,.11,.13,.16,.04,.06,.08,.11,.13,.16,.1,.12,.24,.21,.37,.29,.13,.08,.28,.14,.43,.18,.02,0,.03,0,.05,.01,.07,.01,.14,.02,.21,.03,.07,.01,.14,.02,.21,.03,.15,0,.39-.04,.48-.06,.03,0,.06-.01,.09-.02,.36-.13,.52-.22,.81-.47,.02-.02,.04-.04,.06-.07,.05-.06,.1-.14,.16-.21,.14,.04,.29,.07,.46,.07,.63,0,1.06-.33,1.27-.76,1.96-.05,4.01-.21,5.78,.64,.56,.27,.86,.52,3.71,3.55-.29,.88,.16,2.03,1.36,2.03,0,0,.01,0,.02,0-.94,.76-.64,2.69,.91,2.69,.67,0,1.11-.37,1.31-.85,.14,.16,.28,.31,.41,.45,1.26,1.4,3.08,2.52,5.23,3.41-.03,.12-.05,.24-.05,.36,0,.09-.01,.18,0,.27,.02,.22,.04,.45,.1,.66,.06,.2,.14,.39,.23,.57,.03,.07,.07,.14,.12,.21,.21,.3,.4,.51,.68,.73,.1,.08,.21,.16,.32,.23,.17,.1,.37,.17,.56,.25,.25,.1,.54,.13,.8,.14,.27,.01,.56-.03,.82-.12,.39-.14,.66-.3,.98-.58,.05-.04,.1-.09,.14-.15,0-.01,.02-.02,.03-.04,.2,.48,.64,.85,1.32,.85,.92,0,1.39-.67,1.44-1.38,6.43,1.06,13.45,.86,17.58-.08,1.21-.27,2.64-.6,4.34-1.51,2.59-1.38,2.8-2.46,5.68-4.27,1.22-.77,2.78-1.53,4.98-2.22,3.78-1.18,6.26-1.15,8.8-.86,0,0,0,0,0,0,.02,.13,.04,.27,.05,.4,.07,.25,.2,.47,.39,.66l.3,.23c.23,.14,.49,.2,.76,.2h.71c.2,0,.4-.04,.57-.13,.13,.23,.29,.44,.46,.63,.17,.2,.39,.36,.6,.52,.22,.16,.46,.26,.72,.36,.25,.1,.53,.13,.79,.15,.07,0,.14,0,.21,0,.18-.02,.38-.03,.55-.09,.39-.13,.63-.28,.94-.53,.19-.15,.33-.36,.47-.55,.03-.05,.06-.1,.08-.15,.08-.16,.16-.33,.2-.5,.04-.15,.05-.31,.07-.47,1.63,0,3.51-.1,5.75-.4,7.74-1.04,12.68-3.44,20.56-7.69,.09,.09,.19,.18,.31,.24,.19,.11,.4,.19,.6,.27,.09,.03,.19,.06,.28,.08,.17,.03,.34,.06,.52,.07,.05,0,.1,0,.15,0,.08,0,.17-.02,.25-.03,.08-.01,.18-.02,.26-.04,.05,0,.1-.02,.14-.04,.13-.05,.27-.11,.4-.17,.02,0,.03-.02,.05-.02,.02,0,.03-.02,.05-.03,.11-.08,.23-.17,.34-.26,.03-.02,.05-.05,.08-.07,.01-.01,.02-.03,.04-.04,.09-.11,.18-.22,.26-.34,.02-.03,.04-.06,.05-.09,.02-.04,.03-.07,.05-.11,.07,.05,.13,.1,.21,.14,.16,.09,.34,.16,.51,.21,.24,.08,.51,.11,.76,.1,.19,0,.38-.04,.56-.07,.06,0,.12-.02,.19-.04,.24-.07,.49-.17,.7-.31,.15-.1,.3-.21,.43-.34,.14-.13,.26-.3,.36-.44,.34-.47,.47-1.06,.51-1.63,.02-.31-.03-.63-.08-.94-.03-.2-.09-.39-.16-.57-.05-.2-.14-.37-.27-.51-.03-.05-.09-.07-.13-.12,1.22-1.24,2.35-2.66,3.36-4.3,1.2-1.96,1.58-5.7-.38-6.99Z"/>
    <path class="cls-2" d="M1182.66,70.49s.04-.04,.05-.05c2.14-1.98,5.66-7.3,5.66-7.3s2.78-3.41,2.76-6.08c0-.27-.03-.51-.07-.73-.08-.49-.61-1.02-1.15-.75-2.45,1.2-5.89,5.09-7.45,7.81-.53,.93-1.78,2.55-2.4,4.97-.17,.67-.71,2.77,0,3.18,.54,.31,1.83-.36,2.61-1.06Z"/>
    <path class="cls-2" d="M1192.09,56.1s0,0,.01,0c.44-.06,1.07-.79,1.07-.79s.53-.34,.42-1.15c-.01-.08-.03-.16-.05-.24-.04-.17-.19-.46-.31-.51-.54-.24-1.21,.07-1.48,.51-.09,.15-.32,.33-.37,.9-.01,.16-.06,.66,.13,.96,.14,.23,.43,.34,.59,.33Z"/>
    <path class="cls-2" d="M1192.49,49.88s0,0,0,0c.39-.06,.95-.71,.95-.71s.47-.3,.37-1.03c-.01-.07-.03-.14-.04-.21-.04-.15-.17-.41-.28-.46-.48-.22-1.08,.06-1.32,.45-.08,.13-.29,.29-.33,.81-.01,.14-.05,.59,.12,.85,.13,.2,.38,.31,.52,.29Z"/>
    <path class="cls-2" d="M1147.94,107.54s-.02,.02-.03,.02c-1.23,.89-3.37,3.44-3.37,3.44s-1.64,1.6-1.8,2.99c-.02,.14-.01,.27,0,.38,.01,.26,.25,.56,.55,.46,1.34-.48,3.36-2.28,4.33-3.6,.33-.45,1.08-1.22,1.54-2.43,.13-.34,.53-1.39,.19-1.65-.26-.2-.97,.08-1.42,.39Z"/>
    <path class="cls-2" d="M1133.5,117.5s0,0,0,0c.19-.08,.33-.5,.33-.5s.18-.22-.03-.6c-.02-.04-.04-.07-.07-.11-.05-.08-.18-.2-.24-.21-.3-.06-.54,.16-.58,.4-.01,.08-.08,.19,0,.47,.02,.08,.1,.32,.25,.45,.11,.09,.26,.12,.33,.1Z"/>
    <path class="cls-2" d="M1124.7,130.68s0-.01,.01-.02c.46-.67,1.08-2.32,1.08-2.32s.54-1.09,.37-1.82c-.02-.07-.04-.14-.06-.19-.05-.13-.23-.24-.36-.13-.59,.48-1.28,1.74-1.54,2.57-.09,.29-.32,.8-.34,1.49,0,.19-.02,.79,.19,.86,.17,.05,.47-.21,.64-.45Z"/>
    <path class="cls-2" d="M1150.23,106.99s0,0,0,0c.21-.07,.47-.48,.47-.48s.24-.21,.11-.62c-.01-.04-.03-.08-.04-.12-.03-.08-.13-.22-.2-.24-.29-.08-.61,.13-.7,.37-.03,.08-.14,.19-.11,.49,0,.08,.03,.34,.15,.48,.09,.11,.24,.14,.32,.12Z"/>
    <path class="cls-2" d="M799.61,123.47s0,0,0,.01c.1,.45,.92,1.04,.92,1.04s.4,.52,1.23,.33c.09-.02,.17-.04,.24-.07,.17-.06,.46-.24,.5-.37,.21-.58-.18-1.26-.65-1.49-.16-.08-.37-.31-.97-.31-.17,0-.69,0-.98,.22-.23,.17-.32,.47-.29,.64Z"/>
    <path class="cls-2" d="M724.08,128.48s0,.01,0,.01c.14,.61,1.26,1.43,1.26,1.43s.55,.72,1.69,.46c.12-.03,.23-.06,.33-.1,.23-.08,.63-.32,.69-.5,.28-.8-.25-1.73-.9-2.05-.22-.11-.51-.42-1.34-.43-.23,0-.95,0-1.35,.3-.31,.23-.44,.65-.4,.88Z"/>
    <path class="cls-2" d="M1195.4,79.47s0,0,.01,0c.44-.06,1.07-.79,1.07-.79s.53-.34,.42-1.15c-.01-.08-.03-.16-.05-.24-.04-.17-.19-.46-.31-.51-.54-.24-1.21,.07-1.48,.51-.09,.15-.32,.33-.37,.9-.01,.16-.06,.66,.13,.96,.14,.23,.43,.34,.59,.33Z"/>
    <path class="cls-2" d="M1249.43,38.07s.02,.04,.02,.05c.87,1.92,3.72,5.56,3.72,5.56s1.71,2.69,3.55,3.29c.19,.06,.36,.09,.52,.12,.35,.05,.84-.18,.78-.62-.27-1.96-2.15-5.22-3.66-6.92-.52-.58-1.35-1.81-2.87-2.79-.42-.27-1.74-1.12-2.18-.73-.34,.3-.17,1.34,.13,2.04Z"/>
    <path class="cls-2" d="M1257.44,50.32s0,0,0,0c.39-.06,.95-.71,.95-.71s.47-.3,.37-1.03c-.01-.07-.03-.14-.04-.21-.04-.15-.17-.41-.28-.46-.48-.22-1.08,.06-1.32,.45-.08,.13-.29,.29-.33,.81-.01,.14-.05,.59,.12,.85,.13,.2,.38,.31,.52,.29Z"/>
    <path class="cls-2" d="M1259.49,112.64s-.01,.04-.02,.05c-.64,2.01-.95,6.62-.95,6.62s-.53,3.14,.44,4.82c.1,.17,.2,.31,.31,.43,.23,.28,.75,.42,.99,.06,1.11-1.64,1.89-5.32,1.9-7.59,0-.78,.21-2.24-.27-3.99-.13-.48-.55-2-1.14-2-.45,0-1.02,.88-1.26,1.6Z"/>
    <path class="cls-2" d="M1259.58,109.27s0,0,0,0c.39-.06,.95-.71,.95-.71s.47-.3,.37-1.03c-.01-.07-.03-.14-.04-.21-.04-.15-.17-.41-.28-.46-.48-.22-1.08,.06-1.32,.45-.08,.13-.29,.29-.33,.81-.01,.14-.05,.59,.12,.85,.13,.2,.38,.31,.52,.29Z"/>
    <path class="cls-2" d="M1274.04,75.2c.3-1.75,.06-3.51-.55-5.17-.11-.3-.49-.57-.77-.67-.31-.1-.73-.09-1.02,.07-.23,.13-.44,.31-.57,.54-.34,.31-.52,.76-.42,1.25,0,.01,0,.03,0,.04,0,.32-.05,.64-.08,.97-.05,.45-.02,.91,.04,1.35,.12,.89,.52,1.7,1.03,2.42,.12,.17,.39,.32,.58,.38,.28,.09,.58,.08,.86-.02,.22-.08,.4-.2,.56-.38,.21-.24,.28-.48,.34-.8Z"/>
    <path class="cls-2" d="M1220.94,66.07s.01,0,.01,0c.56-.08,1.38-1.03,1.38-1.03s.69-.44,.54-1.49c-.02-.11-.04-.21-.06-.31-.05-.22-.24-.59-.4-.66-.7-.32-1.57,.09-1.91,.66-.12,.19-.42,.42-.48,1.17-.02,.21-.07,.85,.17,1.24,.19,.3,.55,.45,.76,.42Z"/>
    <path class="cls-2" d="M1272.07,68.29s0,0,0,0c.39-.06,.95-.71,.95-.71s.47-.3,.37-1.03c-.01-.07-.03-.14-.04-.21-.04-.15-.17-.41-.28-.46-.48-.22-1.08,.06-1.32,.45-.08,.13-.29,.29-.33,.81-.01,.14-.05,.59,.12,.85,.13,.2,.38,.31,.52,.29Z"/>
    <path class="cls-2" d="M1341.28,67.74s.03,0,.04,0c1.46-.05,4.55-.91,4.55-.91s2.18-.38,3.05-1.4c.09-.1,.15-.2,.21-.3,.13-.21,.1-.59-.19-.66-1.33-.35-3.91,0-5.4,.52-.51,.18-1.52,.38-2.55,1.1-.28,.2-1.18,.82-1.05,1.21,.1,.3,.81,.46,1.34,.46Z"/>
    <path class="cls-2" d="M1350.25,67.89s0,0,0,0c.39-.06,.95-.71,.95-.71s.47-.3,.37-1.03c-.01-.07-.03-.14-.04-.21-.04-.15-.17-.41-.28-.46-.48-.22-1.08,.06-1.32,.45-.08,.13-.29,.29-.33,.81-.01,.14-.05,.59,.12,.85,.13,.2,.38,.31,.52,.29Z"/>
    <path class="cls-2" d="M1352.46,81.59s.01,0,.01,0c.56,.06,1.59-.64,1.59-.64s.77-.25,.9-1.29c.01-.11,.02-.21,.02-.31,0-.22-.08-.63-.22-.74-.59-.48-1.54-.31-2.01,.14-.16,.16-.51,.3-.77,1-.07,.19-.29,.8-.15,1.23,.1,.33,.42,.57,.62,.6Z"/>
    <path class="cls-2" d="M1366.52,75.1s0,0,0,0c.39-.06,.95-.71,.95-.71s.47-.3,.37-1.03c-.01-.07-.03-.14-.04-.21-.04-.15-.17-.41-.28-.46-.48-.22-1.08,.06-1.32,.45-.08,.13-.29,.29-.33,.81-.01,.14-.05,.59,.12,.85,.13,.2,.38,.31,.52,.29Z"/>
    <path class="cls-2" d="M1371.69,106.71s0,.03,0,.04c-.21,1.72,.25,5.49,.25,5.49,0,0,.06,2.62,1.1,3.82,.11,.12,.21,.22,.31,.3,.22,.19,.67,.23,.81-.1,.65-1.49,.71-4.58,.36-6.41-.12-.63-.18-1.84-.83-3.18-.18-.37-.75-1.53-1.22-1.44-.37,.07-.69,.87-.77,1.49Z"/>
    <path class="cls-2" d="M1372.7,103.04s0,0,0,0c.39-.06,.95-.71,.95-.71s.47-.3,.37-1.03c-.01-.07-.03-.14-.04-.21-.04-.15-.17-.41-.28-.46-.48-.22-1.08,.06-1.32,.45-.08,.13-.29,.29-.33,.81-.01,.14-.05,.59,.12,.85,.13,.2,.38,.31,.52,.29Z"/>
    <path class="cls-2" d="M1389.09,136.49c-.55-1.69-1.58-3.14-2.88-4.33-.23-.21-.69-.28-.99-.23-.32,.05-.68,.26-.87,.54-.14,.22-.24,.48-.25,.74-.16,.43-.11,.92,.21,1.31,0,.01,.02,.02,.02,.03,.15,.29,.26,.59,.37,.9,.16,.42,.4,.81,.66,1.18,.52,.73,1.24,1.26,2.04,1.67,.19,.1,.49,.1,.69,.07,.29-.05,.55-.2,.75-.41,.16-.17,.26-.36,.32-.59,.08-.31,.03-.56-.07-.87Z"/>
    <path class="cls-2" d="M1383.24,131.49s0,0,0,0c.39-.06,.95-.71,.95-.71s.47-.3,.37-1.03c-.01-.07-.03-.14-.04-.21-.04-.15-.17-.41-.28-.46-.48-.22-1.08,.06-1.32,.45-.08,.13-.29,.29-.33,.81-.01,.14-.05,.59,.12,.85,.13,.2,.38,.31,.52,.29Z"/>
    <path class="cls-2" d="M1408.64,155.15s0,.02,0,.02c.37,.93,1.66,2.72,1.66,2.72s.76,1.32,1.62,1.64c.09,.03,.17,.05,.24,.07,.17,.03,.4-.07,.38-.28-.09-.94-.92-2.53-1.6-3.37-.24-.29-.6-.89-1.31-1.39-.19-.14-.81-.57-1.02-.39-.17,.14-.11,.63,.02,.97Z"/>
    <path class="cls-2" d="M1412.76,161.01s0,0,0,0c.21-.03,.51-.38,.51-.38s.25-.16,.2-.55c0-.04-.01-.08-.02-.11-.02-.08-.09-.22-.15-.25-.26-.12-.58,.03-.71,.24-.04,.07-.16,.16-.18,.43,0,.08-.03,.32,.06,.46,.07,.11,.21,.17,.28,.16Z"/>
    <path class="cls-2" d="M1385.62,103.13c.02,.05,.04,.09,.05,.11,2.15,4.55,8.01,13.88,8.01,13.88s3.74,6.66,6.72,9.03c.31,.24,.57,.41,.81,.56,.54,.33,1.15,.13,.86-.82-1.29-4.26-5.54-12.2-8.54-16.67-1.03-1.53-2.8-4.59-5.49-7.57-.74-.82-3.07-3.4-3.54-2.86-.36,.42,.36,2.69,1.12,4.33Z"/>
    <path class="cls-2" d="M1402.8,130.42s0,0,0,0c.39-.06,.95-.71,.95-.71s.47-.3,.37-1.03c-.01-.07-.03-.14-.04-.21-.04-.15-.17-.41-.28-.46-.48-.22-1.08,.06-1.32,.45-.08,.13-.29,.29-.33,.81-.01,.14-.05,.59,.12,.85,.13,.2,.38,.31,.52,.29Z"/>
    <path class="cls-2" d="M1424.8,163.42s0,0,0,0c.39-.06,.95-.71,.95-.71s.47-.3,.37-1.03c-.01-.07-.03-.14-.04-.21-.04-.15-.17-.41-.28-.46-.48-.22-1.08,.06-1.32,.45-.08,.13-.29,.29-.33,.81-.01,.14-.05,.59,.12,.85,.13,.2,.38,.31,.52,.29Z"/>
    <path class="cls-2" d="M1418.14,170.16s0,0,0,0c.18-.35-.02-1.19-.02-1.19s.03-.56-.62-.9c-.07-.03-.13-.06-.2-.09-.14-.06-.43-.1-.53-.04-.46,.27-.58,.92-.4,1.34,.06,.14,.07,.41,.46,.74,.11,.09,.45,.38,.76,.4,.24,.01,.47-.13,.54-.26Z"/>
    <path class="cls-2" d="M1474.65,204.46s.03,.02,.03,.02c1.42,1.02,4.97,2.44,4.97,2.44s2.34,1.22,3.91,.89c.16-.03,.29-.08,.42-.13,.28-.11,.52-.48,.3-.77-1-1.29-3.7-2.85-5.49-3.44-.61-.2-1.71-.74-3.21-.81-.41-.02-1.71-.08-1.87,.38-.12,.36,.43,1.03,.94,1.4Z"/>
    <path class="cls-2" d="M1486.14,209.19s0,0,0,0c.28-.24,.39-1.04,.39-1.04s.22-.48-.22-1c-.05-.05-.09-.1-.14-.15-.1-.1-.34-.24-.45-.22-.49,.07-.82,.59-.81,1.02,0,.15-.08,.38,.14,.8,.06,.12,.26,.49,.52,.62,.2,.1,.45,.05,.56-.03Z"/>
    <path class="cls-2" d="M1491.81,225.75s0,0,0,0c.28-.24,.39-1.04,.39-1.04s.22-.48-.22-1c-.05-.05-.09-.1-.14-.15-.1-.1-.34-.24-.45-.22-.49,.07-.82,.59-.81,1.02,0,.15-.08,.38,.14,.8,.06,.12,.26,.49,.52,.62,.2,.1,.45,.05,.56-.03Z"/>
    <path class="cls-2" d="M1562.19,209.46s.03-.02,.03-.02c1.38-.98,4.86-2.41,4.86-2.41s2.28-1.2,3.86-.97c.16,.02,.3,.06,.42,.1,.28,.08,.54,.4,.33,.67-.95,1.2-3.58,2.71-5.34,3.32-.6,.21-1.68,.74-3.17,.87-.41,.04-1.71,.15-1.88-.25-.13-.31,.39-.94,.88-1.3Z"/>
    <path class="cls-2" d="M1573.48,204.71s0,0,0,0c.29,.2,.44,.91,.44,.91s.24,.42-.18,.9c-.04,.05-.09,.09-.13,.14-.1,.09-.33,.23-.44,.22-.49-.04-.85-.49-.86-.87,0-.13-.1-.33,.11-.73,.06-.11,.23-.45,.49-.57,.2-.1,.45-.07,.56,0Z"/>
    <path class="cls-2" d="M1511.02,211.54s0,0,0,0c.28-.24,.39-1.04,.39-1.04s.22-.48-.22-1c-.05-.05-.09-.1-.14-.15-.1-.1-.34-.24-.45-.22-.49,.07-.82,.59-.81,1.02,0,.15-.08,.38,.14,.8,.06,.12,.26,.49,.52,.62,.2,.1,.45,.05,.56-.03Z"/>
    <path class="cls-2" d="M1559.92,201.43s0,0,0,0c.32-.28,.45-1.19,.45-1.19s.25-.55-.25-1.14c-.05-.06-.11-.12-.16-.17-.12-.11-.39-.27-.51-.25-.56,.08-.94,.68-.93,1.17,0,.17-.09,.43,.16,.92,.07,.14,.29,.56,.6,.71,.23,.11,.52,.06,.64-.04Z"/>
    <path class="cls-2" d="M1670.37,191.92s-.02-.04-.02-.05c-.97-2.14-2.02-7.3-2.02-7.3s-1.04-3.45-.31-5.56c.07-.22,.16-.39,.24-.56,.19-.36,.7-.64,1.01-.28,1.4,1.62,2.78,5.62,3.14,8.2,.13,.88,.57,2.5,.36,4.58-.06,.57-.24,2.38-.84,2.51-.46,.1-1.18-.78-1.55-1.55Z"/>
    <path class="cls-2" d="M1666.83,175.18s0,0,0,0c.35-.34,1.36-.36,1.36-.36s.63-.22,1.19,.49c.06,.07,.11,.15,.15,.22,.1,.16,.23,.51,.18,.66-.19,.67-.9,1.03-1.42,.94-.18-.03-.48,.05-.97-.34-.13-.11-.55-.44-.66-.83-.08-.3,.03-.64,.15-.77Z"/>
    <path class="cls-2" d="M1677.33,93.13s.01-.03,.01-.04c.58-1.58,2.64-4.74,2.64-4.74s1.21-2.28,2.63-2.99c.15-.07,.28-.12,.4-.16,.28-.09,.68,.03,.65,.36-.1,1.53-1.41,4.26-2.52,5.76-.38,.51-.97,1.56-2.12,2.51-.32,.26-1.32,1.09-1.69,.86-.29-.18-.21-.99-.01-1.57Z"/>
    <path class="cls-2" d="M1685.02,82.45s0,0,0,0c.35,.06,.79,.63,.79,.63s.4,.27,.22,.89c-.02,.06-.04,.12-.06,.18-.05,.13-.2,.35-.3,.39-.46,.18-.98-.08-1.15-.42-.06-.12-.23-.26-.21-.7,0-.12,.02-.51,.2-.73,.14-.17,.38-.25,.51-.24Z"/>
    <path class="cls-2" d="M1669.39,114.81s.03-.03,.04-.04c1.7-1.6,6.2-4.24,6.2-4.24s2.9-2.08,5.11-2.08c.23,0,.42,.02,.6,.05,.4,.06,.82,.45,.59,.86-1.07,1.83-4.38,4.41-6.69,5.58-.79,.4-2.16,1.33-4.19,1.8-.56,.13-2.31,.54-2.63,.01-.24-.4,.35-1.36,.96-1.95Z"/>
    <path class="cls-2" d="M1665.93,115.77s0,0,0,0c.35,.06,.79,.63,.79,.63s.4,.27,.22,.89c-.02,.06-.04,.12-.06,.18-.05,.13-.2,.35-.3,.39-.46,.18-.98-.08-1.15-.42-.06-.12-.23-.26-.21-.7,0-.12,.02-.51,.2-.73,.14-.17,.38-.25,.51-.24Z"/>
    <path class="cls-2" d="M1709.4,70.5s-.02,.04-.03,.05c-1.15,2.03-2.7,7-2.7,7s-1.35,3.3-.9,5.4c.05,.22,.11,.39,.17,.56,.14,.36,.59,.66,.92,.33,1.49-1.49,3.23-5.32,3.85-7.81,.21-.85,.81-2.4,.83-4.45,0-.56,.03-2.34-.52-2.5-.42-.13-1.2,.69-1.63,1.42Z"/>
    <path class="cls-2" d="M1710.64,68.22s0,0,0,0c.3,.14,.96-.1,.96-.1s.46-.01,.67-.62c.02-.06,.04-.12,.05-.18,.03-.13,.04-.39-.02-.48-.26-.39-.8-.46-1.12-.27-.11,.06-.32,.09-.56,.47-.07,.1-.27,.43-.26,.71,.01,.22,.15,.41,.26,.47Z"/>
    <path class="cls-2" d="M1697.28,67.62s0,0,0,0c.35,.06,.79,.63,.79,.63s.4,.27,.22,.89c-.02,.06-.04,.12-.06,.18-.05,.13-.2,.35-.3,.39-.46,.18-.98-.08-1.15-.42-.06-.12-.23-.26-.21-.7,0-.12,.02-.51,.2-.73,.14-.17,.38-.25,.51-.24Z"/>
    <path class="cls-2" d="M1707.01,42.57s.03-.03,.03-.03c1.34-1.26,4.91-3.33,4.91-3.33s2.3-1.63,4.04-1.63c.18,0,.33,.02,.47,.04,.32,.05,.65,.36,.46,.68-.85,1.44-3.47,3.47-5.29,4.39-.62,.31-1.71,1.05-3.31,1.41-.44,.1-1.83,.42-2.07,0-.19-.32,.28-1.07,.76-1.54Z"/>
    <path class="cls-2" d="M1705.9,45.08s0,0,0,0c.35,.06,.79,.63,.79,.63s.4,.27,.22,.89c-.02,.06-.04,.12-.06,.18-.05,.13-.2,.35-.3,.39-.46,.18-.98-.08-1.15-.42-.06-.12-.23-.26-.21-.7,0-.12,.02-.51,.2-.73,.14-.17,.38-.25,.51-.24Z"/>
    <path class="cls-2" d="M1742.28,35.69s.02,0,.02,0c.8,.14,1.82,1.46,1.82,1.46s.92,.63,.52,2.06c-.04,.15-.09,.29-.14,.42-.11,.29-.46,.8-.7,.89-1.07,.41-2.26-.19-2.66-.97-.14-.27-.53-.6-.5-1.62,.01-.28,.04-1.17,.46-1.69,.32-.4,.88-.59,1.17-.55Z"/>
    <path class="cls-2" d="M1810.35,72.15s0-.05,0-.06c-.04-2.33-1.21-7.41-1.21-7.41s-.5-3.53-1.96-5.11c-.15-.16-.29-.28-.43-.39-.3-.24-.84-.28-.96,.18-.53,2.04-.09,6.22,.63,8.68,.25,.84,.52,2.48,1.53,4.26,.28,.49,1.15,2.03,1.71,1.89,.43-.11,.69-1.2,.69-2.04Z"/>
    <path class="cls-2" d="M1821.23,98.54s-.01-.05-.02-.06c-.67-2.3-.94-7.52-.94-7.52s-.53-3.57,.54-5.43c.11-.19,.22-.34,.34-.48,.25-.3,.81-.45,1.08-.03,1.18,1.89,1.98,6.08,1.95,8.65,0,.88,.19,2.54-.35,4.5-.15,.54-.62,2.24-1.26,2.22-.49-.01-1.09-1.03-1.35-1.86Z"/>
    <path class="cls-2" d="M1823.11,22.63s0,0,0,0c.37,.06,.84,.68,.84,.68s.43,.29,.24,.96c-.02,.07-.04,.13-.07,.19-.05,.14-.21,.37-.32,.41-.5,.19-1.05-.09-1.23-.45-.06-.12-.25-.28-.23-.75,0-.13,.02-.54,.21-.79,.15-.19,.41-.27,.55-.26Z"/>
    <path class="cls-2" d="M1821.28,82.12s0,0,0,0c.35,.06,.79,.63,.79,.63s.4,.27,.22,.89c-.02,.06-.04,.12-.06,.18-.05,.13-.2,.35-.3,.39-.46,.18-.98-.08-1.15-.42-.06-.12-.23-.26-.21-.7,0-.12,.02-.51,.2-.73,.14-.17,.38-.25,.51-.24Z"/>
    <path class="cls-2" d="M1981.06,105.58s-.03,.04-.04,.04c-1.51,1.86-5.65,5.06-5.65,5.06s-2.64,2.47-4.77,2.65c-.22,.02-.41,0-.58,0-.39-.03-.83-.41-.64-.87,.88-2.05,3.87-5.09,6-6.53,.73-.49,1.98-1.61,3.9-2.28,.53-.19,2.19-.77,2.54-.23,.27,.41-.23,1.49-.76,2.17Z"/>
    <path class="cls-2" d="M1967.53,114.89s0,0,0,0c-.15-.32,.07-1.01,.07-1.01s0-.48,.6-.69c.06-.02,.12-.04,.18-.05,.13-.03,.4-.03,.49,.03,.41,.28,.49,.85,.31,1.18-.06,.11-.08,.34-.45,.58-.1,.07-.43,.27-.71,.25-.22-.02-.43-.17-.49-.28Z"/>
    <path class="cls-2" d="M1977.55,133.75s0,0,0-.01c-.2-.42,.1-1.32,.1-1.32s0-.63,.79-.91c.08-.03,.16-.05,.24-.07,.17-.04,.52-.05,.64,.04,.54,.37,.64,1.12,.4,1.55-.08,.15-.11,.44-.6,.76-.14,.09-.56,.36-.94,.33-.29-.02-.56-.22-.64-.37Z"/>
    <path class="cls-2" d="M1970.68,144.93s0,0,0,0c-.15-.32,.07-1.01,.07-1.01s0-.48,.6-.69c.06-.02,.12-.04,.18-.05,.13-.03,.4-.03,.49,.03,.41,.28,.49,.85,.31,1.18-.06,.11-.08,.34-.45,.58-.1,.07-.43,.27-.71,.25-.22-.02-.43-.17-.49-.28Z"/>
    <path class="cls-2" d="M2003.73,116.83s0-.01,0-.01c.09-.59,1.05-1.34,1.05-1.34s.45-.67,1.5-.4c.11,.03,.21,.06,.31,.1,.22,.08,.59,.33,.66,.5,.31,.78-.12,1.65-.69,1.95-.19,.1-.43,.39-1.18,.38-.21,0-.86-.02-1.24-.32-.29-.23-.44-.64-.41-.85Z"/>
    <path class="cls-2" d="M2005.95,113.99s0,0,0,0c-.15-.32,.07-1.01,.07-1.01s0-.48,.6-.69c.06-.02,.12-.04,.18-.05,.13-.03,.4-.03,.49,.03,.41,.28,.49,.85,.31,1.18-.06,.11-.08,.34-.45,.58-.1,.07-.43,.27-.71,.25-.22-.02-.43-.17-.49-.28Z"/>
    <path class="cls-2" d="M1985.61,93.15s0-.01,0-.01c-.36-.57-.09-1.93-.09-1.93s-.11-.91,.99-1.45c.11-.06,.23-.1,.34-.14,.24-.09,.75-.16,.93-.06,.84,.44,1.13,1.5,.86,2.18-.09,.23-.08,.66-.73,1.2-.18,.15-.75,.62-1.3,.64-.42,.02-.85-.22-.99-.42Z"/>
    <path class="cls-2" d="M2003.41,87.49s.04-.03,.04-.04c1.8-1.49,6.91-4.21,6.91-4.21s3.21-2.04,6-2.39c.29-.04,.53-.05,.77-.06,.52-.02,1.13,.21,.92,.55-.96,1.56-4.58,4.04-7.23,5.3-.91,.43-2.44,1.36-4.89,2.04-.67,.19-2.8,.78-3.31,.43-.39-.26,.15-1.09,.79-1.63Z"/>
    <path class="cls-2" d="M2032.01,101.74s0,0,0,0c.31,.25,.07,.92,.07,.92s.1,.43-.87,.78c-.1,.04-.2,.07-.29,.09-.21,.06-.65,.13-.81,.1-.73-.15-.97-.64-.74-.98,.08-.12,.07-.32,.64-.63,.16-.09,.65-.35,1.13-.41,.37-.04,.74,.04,.86,.13Z"/>
    <path class="cls-2" d="M2112.87,232.5c0-.05,0-.09,0-.11,.12-4.54,2.68-15.52,2.68-15.52s1.13-7.33,4.18-11.86c.31-.47,.61-.85,.9-1.2,.63-.78,1.76-1.4,1.99-.64,1.06,3.39,.06,11.89-1.5,17.38-.53,1.88-1.14,5.32-3.27,9.78-.59,1.23-2.44,5.1-3.6,5.41-.89,.24-1.4-1.62-1.38-3.24Z"/>
    <path class="cls-2" d="M2122.59,197.5s.01,0,.01,0c.6-.06,1.07,.93,1.07,.93s.57,.37-.11,1.78c-.07,.14-.15,.28-.22,.42-.16,.3-.57,.84-.78,.98-.95,.62-1.74,.35-1.86-.28-.04-.22-.27-.43,.02-1.38,.08-.26,.33-1.09,.79-1.66,.36-.44,.84-.75,1.07-.78Z"/>
    <path class="cls-2" d="M2130.44,194.11s.02,0,.03,0c1.08-.11,1.93,1.67,1.93,1.67s1.02,.66-.2,3.2c-.13,.26-.26,.51-.39,.75-.3,.54-1.02,1.52-1.4,1.77-1.72,1.12-3.14,.63-3.35-.5-.07-.39-.49-.77,.03-2.49,.14-.47,.6-1.96,1.43-3,.64-.8,1.52-1.34,1.93-1.41Z"/>
    <path class="cls-2" d="M2061.78,94.77s0-.02,0-.03c-.18-1.09,.06-3.76,.06-3.76s-.01-1.77,.69-2.89c.07-.11,.14-.21,.21-.3,.15-.19,.46-.35,.57-.17,.48,.81,.59,2.86,.39,4.19-.07,.46-.09,1.29-.52,2.38-.12,.3-.49,1.25-.83,1.33-.26,.07-.5-.38-.57-.77Z"/>
    <path class="cls-2" d="M2061.59,86.97s0,0,0,0c-.15-.32,.07-1.01,.07-1.01s0-.48,.6-.69c.06-.02,.12-.04,.18-.05,.13-.03,.4-.03,.49,.03,.41,.28,.49,.85,.31,1.18-.06,.11-.08,.34-.45,.58-.1,.07-.43,.27-.71,.25-.22-.02-.43-.17-.49-.28Z"/>
    <path class="cls-2" d="M1979.27,153.91s0-.03,0-.03c-.15-1.37,.22-4.35,.22-4.35s.06-2.07,.85-3.02c.08-.1,.16-.17,.24-.24,.17-.15,.51-.17,.61,.09,.48,1.19,.51,3.64,.24,5.09-.09,.5-.14,1.46-.64,2.51-.14,.29-.57,1.2-.93,1.13-.28-.06-.52-.69-.58-1.19Z"/>
    <path class="cls-2" d="M2087.63,45.32s-.04,0-.04,0c-1.76,.18-5.28,1.62-5.28,1.62s-2.54,.7-3.36,2.19c-.08,.15-.14,.3-.19,.43-.11,.3,.01,.82,.38,.9,1.68,.38,4.72-.3,6.4-1.15,.57-.29,1.74-.65,2.82-1.73,.3-.3,1.23-1.23,.98-1.75-.19-.4-1.09-.58-1.72-.52Z"/>
    <path class="cls-2" d="M2092.43,44.63s0,0,0,0c.17-.4-.35-1.1-.35-1.1s-.11-.54-1.16-.59c-.11,0-.21,0-.32,0-.23,0-.67,.08-.8,.18-.61,.44-.62,1.1-.24,1.42,.13,.11,.21,.35,.89,.51,.19,.04,.77,.18,1.24,.07,.36-.08,.67-.32,.74-.46Z"/>
    <path class="cls-2" d="M2020.12,82.33s0,0,0,0c.31,.25,.07,.92,.07,.92s.1,.43-.87,.78c-.1,.04-.2,.07-.29,.09-.21,.06-.65,.13-.81,.1-.73-.15-.97-.64-.74-.98,.08-.12,.07-.32,.64-.63,.16-.09,.65-.35,1.13-.41,.37-.04,.74,.04,.86,.13Z"/>
    <path class="cls-2" d="M2038.19,100.84s.01,0,.01,.01c.55,.44,.13,1.66,.13,1.66s.17,.77-1.56,1.39c-.18,.06-.36,.12-.53,.17-.38,.11-1.17,.24-1.46,.18-1.31-.26-1.75-1.14-1.32-1.76,.15-.21,.13-.58,1.15-1.14,.28-.15,1.17-.64,2.04-.74,.66-.08,1.32,.07,1.54,.23Z"/>
    <path class="cls-2" d="M2048.73,57.24s.01,0,.01,0c.53,.32,1.61-.28,1.61-.28s.77-.04,1.05-1.51c.03-.15,.05-.3,.07-.44,.04-.32,.02-.95-.09-1.16-.49-.94-1.41-1.08-1.93-.61-.18,.16-.53,.23-.88,1.14-.1,.25-.4,1.05-.34,1.73,.05,.52,.31,1,.5,1.13Z"/>
    <path class="cls-2" d="M2053.97,48.42s0,0,0,0c.39,.07,.5,.78,.5,.78s.29,.34-.4,1.09c-.07,.08-.14,.15-.22,.22-.16,.16-.51,.42-.67,.47-.71,.21-1.16-.11-1.11-.52,.02-.14-.09-.32,.27-.86,.1-.15,.41-.62,.81-.89,.31-.21,.67-.31,.82-.29Z"/>
    <path class="cls-2" d="M2112.57,136.79s.04,0,.04,0c1.76-.18,3.13,2.71,3.13,2.71s1.66,1.07-.33,5.2c-.2,.42-.43,.83-.64,1.22-.48,.87-1.66,2.47-2.28,2.88-2.79,1.83-5.1,1.03-5.44-.82-.12-.63-.79-1.25,.05-4.04,.23-.77,.97-3.19,2.33-4.87,1.04-1.29,2.47-2.18,3.14-2.29Z"/>
    <path class="cls-2" d="M2119.12,162.29s-.01,.02-.01,.02c-.57,.8-2.28,.32-2.28,.32s-1.06,.3-2.06-2.04c-.1-.24-.19-.48-.28-.72-.19-.52-.43-1.6-.37-2.01,.25-1.84,1.44-2.52,2.33-1.98,.31,.18,.81,.12,1.67,1.5,.24,.38,.98,1.57,1.19,2.76,.16,.91,.01,1.84-.19,2.15Z"/>
    <path class="cls-2" d="M2115.57,70.42s.01,0,.01,0c.6-.06,1.07,.93,1.07,.93s.57,.37-.11,1.78c-.07,.14-.15,.28-.22,.42-.16,.3-.57,.84-.78,.98-.95,.62-1.74,.35-1.86-.28-.04-.22-.27-.43,.02-1.38,.08-.26,.33-1.09,.79-1.66,.36-.44,.84-.75,1.07-.78Z"/>
    <path class="cls-2" d="M2112.46,154.57s.01,0,.01,0c.6,.08,1.11-.7,1.11-.7s.58-.27-.02-1.44c-.06-.12-.13-.24-.2-.35-.15-.25-.52-.71-.73-.83-.92-.55-1.72-.37-1.87,.13-.05,.17-.29,.33-.05,1.12,.07,.22,.28,.9,.71,1.39,.33,.37,.81,.65,1.03,.69Z"/>
  </g>
</svg>