<?xml version="1.0" encoding="UTF-8"?>
<svg id="Livello_2" data-name="Livello 2" xmlns="http://www.w3.org/2000/svg" viewBox="0 0 2500 1249">
  <defs>
    <style>
      .cls-1 {
        fill: #9091e3;
      }

      .cls-2 {
        fill: none;
        stroke: #f4f4f4;
        stroke-miterlimit: 10;
      }
    </style>
  </defs>
  <g id="Frame">
    <rect class="cls-2" x=".5" y=".5" width="2499" height="1248"/>
  </g>
  <g id="Livello_3" data-name="Livello 3">
    <path class="cls-1" d="M49.35,586.96c-.35-7.54-1.54-15.05-3.54-22.32-.78-2.83-1.67-5.62-2.62-8.39,1.85-3.6,3.46-7.32,4.77-11.16,.32-.94-.52-1.89-1.45-1.9-2.04-.01-4.07-.03-6.11-.04-3.68-7.29-5.02-15.49-7.6-23.22,.15-5.85,.29-11.69,.44-17.54,.06-2.23,.11-4.47,.17-6.7,.05-2.09,.27-4.26,.06-6.35-.2-2.02-1.18-3.61-2.52-5.09-.67-.74-1.35-1.47-2.04-2.2-.05-15.13,.62-30.28,1.14-45.38,.63-18.14,1.39-36.27,2.11-54.4,1-24.98,1.92-49.97,2.36-74.97,.32-.37,.64-.73,.96-1.1,1.1-1.27,2.88-2.66,2.37-4.54-.22-.83-.7-1.64-1.05-2.43-.4-.89-.8-1.78-1.2-2.67-.3-.67-.6-1.33-.9-2,.07-7.03,.11-14.07,.09-21.1-.03-8.46-.08-16.93-.29-25.4,2.54-4.92,4.84-9.97,6.87-15.13,.46-1.18,1.33-2.67,1.32-3.97,0-1.37-1-2.16-2.2-2.56-2.29-.77-4.73-1.25-7.14-1.63-.06-.76-.11-1.52-.17-2.28-1.32-15.57-3.97-31.22-9.88-45.76-.52-1.29-1.37-2.76-2.98-6.67-1.12-2.72-1.2-3.22-1.84-3.61-2.6-1.6-9.13,1.62-11.37,6.72-1.05,2.4-.61,3.99-.28,9.96,.23,4.22,.12,8.46,.18,12.69,.24,16.59,.48,33.19,.71,49.78,.47,33.03,.95,66.05,1.42,99.08,.48,33.19,.95,66.38,1.43,99.57s.95,66.38,1.43,99.57,.95,66.38,1.43,99.57c.06,4.07,.12,8.13,.17,12.2,.01,.71,.47,1.21,1.1,1.45,6.46,2.37,12.55-1.94,16.53-6.75,4.57-5.52,7.78-12.38,10.48-18.97,5.73-13.98,8.33-29.27,7.63-44.36Z"/>
  </g>
</svg>