<?xml version="1.0" encoding="UTF-8"?>
<svg id="Livello_2" data-name="Livello 2" xmlns="http://www.w3.org/2000/svg" viewBox="0 0 2500 1249">
  <defs>
    <style>
      .cls-1 {
        fill: #9091e3;
      }

      .cls-2 {
        fill: none;
        stroke: #f4f4f4;
        stroke-miterlimit: 10;
      }
    </style>
  </defs>
  <g id="Frame">
    <rect class="cls-2" x=".5" y=".5" width="2499" height="1248"/>
  </g>
  <g id="Livello_3" data-name="Livello 3">
    <path class="cls-1" d="M2441.83,123.63c.02,.06,.1,.37-.02,.45-.09,.06-.27-.04-.4-.12"/>
    <path class="cls-1" d="M2438.72,126c-4.12,15.33-16.61,36.18-34.11,41.14-24.68,7-66.46-11.28-85.62-30.67-.9-.91-5.79-3.85-12.68-4.99-9.8-1.62-17.94,1.88-24.33,4.72,0,0-12.4,5.52-21.99,15-30.66,30.29-33.74,102.48-16.51,127.9,1.15,1.7,2.78,4.06,5.68,6.15,11.97,8.65,24.76-2.23,43.98-2.76,14.98-.41,12.71,6.05,41.77,12.92,13.93,3.29,24.04,4.08,43.32,5.57,19.73,1.53,29.81,2.24,40.06-.27,17.18-4.2,21.21-11.41,25.53-8.51,8.68,5.83-3.92,37.49-10.3,99.58-1.83,17.83-2.58,32.58,5,46.62,6.29,11.64,19.91,25.78,29.05,22.29,1.96-.75,3.21-2.11,4.45-3.67,9.91-12.49,12.05-29.21,12.9-36.39,2.71-23,4.06-34.5,4.22-40.92,1-41.14-1.39-77.46-2.42-91.42-1.16-15.79-.83-31.7-2.28-47.46-.35-3.77-1.08-11.13,.08-20.77,1.18-9.8,3.53-15.4,5.22-21.27,2.15-7.45,2.85-14,2.07-41.84-.74-26.31-1.71-32.9-2.01-44.88-1.29-52.19,13.34-83.92-.59-104.53-1.98-2.93-3.75-4.46-5.84-4.82-8.95-1.53-20.29,19-33.4,42.76h0c-16.43,29.77-4.41,55.16-11.23,80.53Z"/>
  </g>
</svg>