<?xml version="1.0" encoding="UTF-8"?>
<svg id="Livello_2" data-name="Livello 2" xmlns="http://www.w3.org/2000/svg" viewBox="0 0 2422.04 402.13">
  <defs>
    <style>
      .cls-1 {
        fill: #9091e3;
      }
    </style>
  </defs>
  <g id="Livello_1-2" data-name="Livello 1">
    <path d="M952.88,215.76c1.93,0,1.93-3,0-3s-1.93,3,0,3h0Z"/>
  </g>
  <g id="Livello_3" data-name="Livello 3">
    <path class="cls-1" d="M1413.38,184.76c-16.19,33.74,6.59,68.17-11,81-10.27,7.49-26.14,1.49-31,0-40.67-12.45-35.03-66.26-73-111-37.27-43.92-94.42-53.02-132-59-38.51-6.13-59.28-1.16-137.04,9.01-60.39,7.9-121.28,11.7-181.64,19.84-116.3,15.69-232.85,27.77-232.32,36.15,.49,7.84,104.12,22.24,106.79,33.38,0,.04,.05,.2,.11,.44,2.77,11.15,8.65,13.92,8.65,13.92s.56,.01,.95,.39c2.7,2.58,146.64-5.16,181.39,44.97,32.71,47.19-59.36,66.24-151.21,71.75-84.48,5.07-154.29-63.63-205.18-103.58-36.95-29.02-68.63-60.52-117.49-61.26-22.71-.34-40.23,5.63-59.81,12.69-74.26,26.77-79.26,62.5-120.19,75.31-85.8,26.86-166.5-98.05-220.22-64.35C14.27,200.01-1,247.25,.05,254.3c.25,1.68,1.29,8.32,5.74,16.06,13.24,23.05,54.79,46.87,199.87,49.87,61.13,1.27,66.53-3.18,122.79-.57,44.37,2.06,88.6,6.69,132.59,12.75,172.45,23.75,343.14,70.11,518.23,69.71,42.1-.1,84.21-3.1,125.79-9.8,43.32-6.99,85.07-19.17,126.83-32.41,42.83-13.57,85.69-26.08,130.58-30.42,40.4-3.9,81.1-2.85,121.52,.19,81.96,6.16,163.35,20.87,245.7,21.38,39.05,.24,78.34-2.92,116.36-12.2,39.63-9.67,73.85-28.68,110.8-45.08,19.63-8.71,40.55-15.25,62.26-14.14,18.62,.95,36.58,7.25,53.42,14.89,31.71,14.38,61.44,34.45,95.72,42.47,70.02,16.37,126.11-36.4,191.88-47.52,17.42-2.95,34.9-1.6,51.16,5.56,3.64,1.6,7.12-.31,7.52-4.32,5.04-50.16,4.2-100.52-2.51-150.49-.17-1.28-.54-2.29-1.18-3.09-.99-1.24-2.31-1.67-2.49-1.73-13.97-5.27-78.24-69.65-78.24-69.65-41.02-41.09-93.98-55.62-114-60-21.14-4.63-58.64-12.31-97,5-14.22,6.41-23.05,13.78-34.95,23.86-53.17,45.02-54.6,82.14-98.05,116.14-12.47,9.76-31.7,24.77-58.86,29.6-46.71,8.31-88.88-61.43-140.22-69.87-5.18-.85-11.59-1.35-18.92,.27-23.56,5.2-36.83,27.89-42,37-11.14,19.65-5.49,23.87-16,50-7.47,18.58-19.46,46.72-38,50-33.07,5.86-55.11-73.49-112-80-4.16-.48-13.71-2.53-27-7-24.91-8.37-30.42-15.77-42-19-27.09-7.56-67.7,13.21-82,43Z"/>
  </g>
</svg>