<?xml version="1.0" encoding="UTF-8"?>
<svg id="Livello_2" data-name="Livello 2" xmlns="http://www.w3.org/2000/svg" viewBox="0 0 88.4 47.88">
  <defs>
    <style>
      .cls-1 {
        fill: #8ada51;
      }

      .cls-2 {
        fill: #caea60;
      }
    </style>
  </defs>
  <g id="Livello_4" data-name="Livello 4">
    <path class="cls-1" d="M88.33,19.51c-1.23-3.33-4.9-4.33-7.87-5.61l-4.17-1.81c.04-.78-.44-1.58-1.44-1.58-.03,0-.05,0-.07,0,0-.04-.02-.08-.03-.11-.07-.18-.14-.36-.23-.53-.09-.17-.22-.32-.34-.46-.05-.06-.1-.12-.17-.17-.32-.28-.63-.46-1.04-.59-.1-.03-.2-.05-.3-.07-.23-.03-.46-.07-.69-.07-.34,0-.68,.06-1.01,.13-.2,.04-.4,.09-.6,.15-.29,.1-.51,.23-.74,.42-.2-.08-.39-.17-.59-.25-5.34-2.31-10.74-4.65-16.44-5.83,.08-.8-.39-1.67-1.43-1.67-.23,0-.43,.04-.6,.12-.2-.5-.53-.94-1.02-1.2-.44-.23-.88-.33-1.37-.37-.37-.02-.75,.04-1.11,.1-.62,.09-1.27,.26-1.78,.64-.2,.15-.39,.29-.55,.48-.26,.32-.38,.54-.54,.91-.04,.1-.06,.21-.09,.31-5.11,.38-10,2.18-14.37,5.06-4,2.63-7.27,5.47-9.8,8.03-.59,0-.99,.29-1.22,.68-.17-.07-.36-.12-.58-.12-1.46,0-1.81,1.71-1.07,2.55-1.23,1.44-2.13,2.66-2.72,3.53-2.57,3.85-4.04,7.29-5.44,10.23-.65,.01-1.08,.37-1.28,.84-.18-.09-.39-.15-.64-.15-1.23,0-1.67,1.22-1.33,2.11-.59,.64-.52,1.81,.22,2.32-.76,.94-1.63,1.78-2.7,2.48-.75,.49-3.12,1.91-3.18,3.93-.04,1.29,.88,2.45,1.76,3.06,2.39,1.66,6.66,.92,8.76-1.23,1.39-1.42,2.39-3.15,3.38-4.91,.34,.08,.69,.11,1.05,.09,.71-.05,1.4-.23,2.02-.59,1.26-.74,1.99-2.1,2.03-3.55,0-.26-.02-.52-.06-.78,1.58-.1,1.77-2.26,.56-2.84,1.48-1.5,3.08-2.87,4.8-4.06,1.37-.95,2.93-2.12,4.53-2.65,.87-.29,1.32,.26,2,.74,.66,.47,1.41,.8,2.23,.86,.42,.04,.83,0,1.23-.06,.28,.58,.72,1.08,1.32,1.35,.46,.2,.82,.3,1.32,.34,.35,.03,.71-.02,1.05-.1,.83-.2,1.47-.75,1.96-1.43,.37-.5,.56-1.09,.67-1.69,1.59-.01,1.86-2.07,.8-2.77,.38-.3,.76-.59,1.12-.9,1.48-1.26,2.87-2.6,4.18-4.03,1.04-1.13,2.27-3.25,3.89-3.53,1.5-.26,3.15,1.54,4.29,2.32,1.51,1.04,3.1,1.96,4.74,2.77,0,0,.02,0,.02,.01-.44,.89-.02,2.23,1.28,2.23,.04,0,.07,0,.11-.01,.06,.16,.12,.33,.21,.48,.09,.16,.22,.31,.33,.45,.04,.05,.08,.1,.13,.14,.14,.12,.29,.24,.44,.34,.05,.04,.11,.06,.17,.09,.17,.08,.34,.16,.53,.21,.62,.14,1.26,.07,1.81-.25,.2-.12,.4-.27,.56-.45,.15-.18,.32-.37,.42-.59,.04-.09,.08-.18,.12-.27,1.66,.49,3.35,.88,5.07,1.15,1.86,.28,5.06-.21,5.97-2.01,3.49,.5,7.02,.35,10.48-.5,.73-.18,1.35-1.07,1.07-1.83Z"/>
    <path class="cls-2" d="M5.79,40.45s.02,0,.02,0c.78,.26,.82,1.75,.82,1.75s.5,.77-1.13,2.16c-.17,.14-.34,.27-.51,.4-.37,.28-1.18,.74-1.52,.79-1.54,.25-2.37-.53-2.16-1.38,.07-.29-.1-.68,.79-1.71,.25-.28,1.02-1.17,1.92-1.63,.69-.35,1.47-.46,1.77-.38Z"/>
    <path class="cls-2" d="M8.76,34.84s0,0,0-.01c-.04-.44-.68-.69-.68-.69s-.29-.38-1.04,.25c-.08,.06-.15,.13-.22,.2-.15,.15-.43,.49-.48,.66-.25,.75,.02,1.3,.4,1.32,.13,0,.29,.16,.81-.15,.14-.08,.6-.35,.88-.74,.22-.3,.33-.69,.32-.85Z"/>
    <path class="cls-2" d="M31.03,12.5s.04,0,.05-.01c2.13-.44,6.27-2.65,6.27-2.65s3.02-1.18,3.84-3.1c.08-.2,.13-.38,.17-.55,.09-.38-.11-1-.58-1.06-2.11-.25-5.75,.96-7.7,2.2-.67,.42-2.05,1.02-3.24,2.47-.33,.4-1.36,1.66-.99,2.27,.29,.47,1.4,.57,2.18,.43Z"/>
    <path class="cls-2" d="M25.23,13.94s0,.01,0,.01c-.16,.51,.57,1.31,.57,1.31s.2,.65,1.5,.58c.13,0,.26-.02,.39-.04,.28-.03,.81-.18,.96-.32,.7-.61,.62-1.42,.12-1.77-.17-.12-.3-.4-1.15-.51-.23-.03-.97-.12-1.53,.07-.43,.15-.78,.47-.85,.66Z"/>
    <path class="cls-2" d="M40.3,24.67s0-.01,0-.02c-.33-.63-1.74-.68-1.74-.68s-.78-.41-1.93,.86c-.12,.13-.23,.26-.33,.39-.23,.29-.58,.92-.6,1.19-.08,1.22,.75,1.9,1.53,1.75,.27-.05,.66,.09,1.54-.6,.24-.19,1.01-.79,1.35-1.49,.26-.54,.29-1.16,.18-1.4Z"/>
    <path class="cls-2" d="M34.93,25.69s0,0,0,0c-.03-.28-.43-.43-.43-.43s-.18-.24-.65,.16c-.05,.04-.09,.08-.14,.13-.1,.09-.27,.31-.3,.42-.15,.47,0,.82,.25,.83,.08,0,.18,.1,.51-.09,.09-.05,.38-.22,.55-.46,.14-.19,.21-.43,.2-.54Z"/>
    <path class="cls-2" d="M54.32,8.18s.03,.02,.04,.02c1.5,.86,5.12,1.72,5.12,1.72s2.42,.89,3.91,.18c.15-.07,.28-.16,.39-.24,.26-.18,.46-.66,.21-.94-1.12-1.26-3.93-2.45-5.74-2.74-.62-.1-1.75-.47-3.23-.24-.41,.07-1.68,.27-1.78,.83-.08,.43,.54,1.08,1.07,1.4Z"/>
    <path class="cls-2" d="M65.7,9.84s0,0,0,0c-.03-.22-.36-.32-.36-.32s-.16-.18-.51,.16c-.04,.03-.07,.07-.1,.11-.07,.08-.2,.26-.22,.34-.1,.38,.05,.65,.24,.65,.07,0,.15,.07,.4-.1,.07-.05,.29-.19,.42-.39,.1-.16,.15-.35,.14-.43Z"/>
    <path class="cls-2" d="M64.81,21.83s0,0,0,0c-.04-.39-.61-.61-.61-.61s-.26-.33-.92,.23c-.07,.06-.13,.12-.19,.18-.14,.13-.38,.44-.43,.59-.22,.67,.01,1.16,.36,1.18,.12,0,.25,.14,.72-.13,.13-.07,.53-.31,.78-.66,.19-.27,.3-.61,.29-.76Z"/>
    <path class="cls-2" d="M61.99,20.45s0,0,0,0c-.04-.24-.39-.35-.39-.35s-.17-.2-.56,.17c-.04,.04-.08,.08-.11,.12-.08,.09-.22,.28-.24,.38-.11,.42,.05,.71,.26,.71,.07,0,.16,.08,.44-.11,.08-.05,.32-.21,.46-.43,.11-.17,.16-.38,.15-.48Z"/>
    <path class="cls-2" d="M78.58,17.28s0-.02,0-.02c-.17-.83,1.46-1.58,1.46-1.58s.56-.82,3.02-.04c.25,.08,.5,.17,.73,.26,.52,.19,1.49,.69,1.74,.97,1.15,1.25,.78,2.38-.28,2.61-.36,.08-.69,.42-2.33,.12-.45-.08-1.88-.34-2.9-.92-.78-.44-1.35-1.09-1.43-1.4Z"/>
  </g>
</svg>