<?xml version="1.0" encoding="UTF-8"?>
<svg id="Livello_2" data-name="Livello 2" xmlns="http://www.w3.org/2000/svg" viewBox="0 0 2500 1249">
  <defs>
    <style>
      .cls-1 {
        fill: #9091e3;
      }

      .cls-2 {
        fill: lime;
        stroke: #000;
      }

      .cls-2, .cls-3 {
        stroke-miterlimit: 10;
      }

      .cls-3 {
        fill: none;
        stroke: #f4f4f4;
      }
    </style>
  </defs>
  <g id="Frame">
    <rect class="cls-3" x=".5" y=".5" width="2499" height="1248"/>
  </g>
  <g id="Livello_1-2" data-name="Livello 1">
    <line class="cls-2" x1="679.11" y1="220.67" x2="679.5" y2="220.5"/>
  </g>
  <g id="Livello_3" data-name="Livello 3">
    <path class="cls-1" d="M78.02,178.92c-2.22,12.05,5.58,22.66,13.98,34.08,38.44,52.28,111.02,53.89,125.78,53.94,74.18,16.27,74.41,31.07,155.09,67.22,107.8,48.3,225.82,42.34,340.87,34.25,58.6-4.12,117.36-8.62,176.14-6.34,62.97,2.44,124.82,15.55,187.61,19.82,61.52,4.18,122.45-3.72,182.42-17.21,30.19-6.79,59.78-16.02,89.94-22.83,33.07-7.46,65.15,6.8,97.77,11.31,60.68,8.4,122.19,3.22,183.03-.38,65.66-3.89,131.31-7.79,196.97-11.68,64.26-3.81,128.52-7.62,192.78-11.43,33.18-1.97,66.39-3.64,99.55-5.91,21.47-1.47,44.73-4.95,57.97-23.9,12.43-17.79,17.51-42.69,21.87-63.63,4.67-22.44,7.55-40.39,5.08-64.51-.05-.5-.13-1.25-.24-2.23-3.35-30.11-18.49-55.42-18.49-55.42-11.25-18.88-18.41-20.23-20.74-20.48-3.8-.41-6.9,.79-8.4,1.43-21.08,8.99-99.46,65.05-148.24,87.24-25.12,11.43-55.45,25.24-81.52,12.56-19.95-9.71-34.12-33.33-42.58-47.43-8.84-14.74-13.26-22.11-13.16-30.21,.36-29.41,41.28-47.61,35.41-61.29-1.64-3.83-6.06-5.34-8.56-6.1-32.35-9.77-94.68,29.95-121.19,62.43-34.64,42.45-65.95,90.6-113.81,119.52-22.76,13.75-48.78,23.29-75.62,23.28-28.27-.01-53.61-12.14-74.74-30.31-37.91-32.61-70.86-142.71-105.42-105.63-29.13,31.25-41.92,17.48-55.57-.05-8.46-10.86-24.4-34-29.2-35-1.04-.22-1.74-.32-2.79-.45-18.54-2.18-35.16,11.1-40.64,15.6-45.73,37.59-78.15,90.6-120.37,93.85-27.9,2.15-45.23-18.58-52.39-10.8-13.37,14.52,54.05,88.38,30.39,106.8-1.81,1.41-3.6,2.75-5.37,4.03-97.15,70.09-133.87-57.43-49.55-120.28,13.24-9.87,1.92-14.75,1.92-14.75l-9.42-4.84c-1.53-.39-3.05-.77-4.58-1.16-4.69-.5-11.51-.79-19.56,.46-8.85,1.38-26.31,4.09-35.91,16.58-7.17,9.33-8.97,22.81-10.94,37.58-.73,5.44-1.42,13.36-7.43,19.33-2.36,2.35-5.35,4.23-9.05,5.51-8.27,2.86-17.49,2.24-25.9,.35-52.6-11.85-81.9-69.69-136.04-78.09-19.45-3.02-16.98-3.86-36.18-2.72-10.37,.61-35.71,26.89-43,19-6.19-6.7-14.51-36.74-7-44,2.52-2.44,1.16-7.86-2.6-8.53-19.44-3.41-38.59-1.73-56.96,5.58-2.29,.91-4.58,3.42-3.49,6.15,18.19,45.72-19.95,96.15-69.7,86.42-21.63-4.23-37.99-20.09-53.12-34.99-22.05-21.73-36.33-28.93-47.99-38.95-49.63-42.61-153.43-30.67-254.18-18.11-87.58,10.92-166.69,21.46-172.93,55.34Z"/>
  </g>
</svg>